<svg width="15" height="16" viewBox="0 0 15 16" fill="none" xmlns="http://www.w3.org/2000/svg">
<path d="M1.5652 6.47455C1.59329 6.12457 1.75217 5.79801 2.01021 5.55991C2.26824 5.3218 2.60649 5.18963 2.9576 5.1897H11.3776C11.7287 5.18963 12.0669 5.3218 12.325 5.55991C12.583 5.79801 12.7419 6.12457 12.77 6.47455L13.3307 13.4575C13.3461 13.6496 13.3216 13.8429 13.2587 14.0251C13.1957 14.2073 13.0957 14.3746 12.965 14.5162C12.8343 14.6579 12.6756 14.771 12.4991 14.8484C12.3225 14.9257 12.1318 14.9657 11.939 14.9658H2.39617C2.20339 14.9657 2.0127 14.9257 1.83613 14.8484C1.65955 14.771 1.5009 14.6579 1.37017 14.5162C1.23944 14.3746 1.13946 14.2073 1.07652 14.0251C1.01358 13.8429 0.989054 13.6496 1.00448 13.4575L1.5652 6.47455V6.47455Z" stroke="white" stroke-width="1.3" stroke-linecap="round" stroke-linejoin="round"/>
<path d="M9.96035 7.28462V3.79316C9.96035 3.05237 9.66607 2.34192 9.14225 1.8181C8.61843 1.29428 7.90798 1 7.16719 1C6.42639 1 5.71594 1.29428 5.19212 1.8181C4.6683 2.34192 4.37402 3.05237 4.37402 3.79316V7.28462" stroke="white" stroke-width="1.3" stroke-linecap="round" stroke-linejoin="round"/>
<circle cx="12.5" cy="4.5" r="2" fill="#C09679" stroke="white"/>
</svg>
