<?xml version="1.0" standalone="no"?>
<!DOCTYPE svg PUBLIC "-//W3C//DTD SVG 1.1//EN" "http://www.w3.org/Graphics/SVG/1.1/DTD/svg11.dtd" >
<svg xmlns="http://www.w3.org/2000/svg" xmlns:xlink="http://www.w3.org/1999/xlink" version="1.1">
<metadata>
Created by FontForge 20170731 at Fri Dec 10 18:39:15 2021
 By Aleksey,,,
</metadata>
<defs>
<font id="ArsenicaTrial-Bold" horiz-adv-x="0" >
  <font-face 
    font-family="Arsenica Trial"
    font-weight="700"
    font-stretch="normal"
    units-per-em="1000"
    panose-1="0 0 8 0 0 0 0 0 0 0"
    ascent="800"
    descent="-200"
    x-height="467"
    cap-height="703"
    bbox="-792 -228.286 1525.6 1082"
    underline-thickness="50"
    underline-position="-150"
    unicode-range="U+0020-F8FF"
  />
<missing-glyph horiz-adv-x="463" 
d="M86 725h293v-925h-293v925zM308 633v30h-153v-30h61v-35h-62v-30h154v30h-61v35h61zM247 479v65h-93v-96h154v31h-61zM185 512h31v-33h-31v33zM308 392v31h-154v-31h62v-34h-62v-31h93v65h61zM308 275v92h-30v-61h-124v-31h154zM308 150v104h-92v-52h31v22h31v-44h-93v74
h-31v-104h154zM308 -10v104h-154v-104h154zM185 64h93v-44h-93v44zM308 -62v30h-154v-30h65l-65 -44v-30h154v30h-94l64 44h30z" />
    <glyph glyph-name=".notdef" horiz-adv-x="463" 
d="M86 725h293v-925h-293v925zM308 633v30h-153v-30h61v-35h-62v-30h154v30h-61v35h61zM247 479v65h-93v-96h154v31h-61zM185 512h31v-33h-31v33zM308 392v31h-154v-31h62v-34h-62v-31h93v65h61zM308 275v92h-30v-61h-124v-31h154zM308 150v104h-92v-52h31v22h31v-44h-93v74
h-31v-104h154zM308 -10v104h-154v-104h154zM185 64h93v-44h-93v44zM308 -62v30h-154v-30h65l-65 -44v-30h154v30h-94l64 44h30z" />
    <glyph glyph-name=".null" 
 />
    <glyph glyph-name="nonmarkingreturn" horiz-adv-x="333" 
 />
    <glyph glyph-name="space" unicode=" " horiz-adv-x="250" 
 />
    <glyph glyph-name="exclam" unicode="!" horiz-adv-x="327" 
d="M137 344q-14 60 -39 146q-20 68 -29.5 107t-9.5 72q0 47 102 47q101 0 101 -48q0 -32 -8.5 -68.5t-29.5 -107.5q-24 -78 -39 -142t-20 -131q-1 -5 -4.5 -5t-4.5 5q-5 65 -19 125zM84 2q-24 16 -24 40q0 32 33.5 54t85.5 22q39 0 62 -16t23 -41q0 -30 -33.5 -52t-83.5 -23
q-39 0 -63 16z" />
    <glyph glyph-name="quotedbl" unicode="&#x22;" horiz-adv-x="288" 
d="M70 495q-5 0 -5 6q-3 45 -12.5 72t-23.5 51q-9 17 -13 27t-4 23q0 21 10.5 28.5t47.5 7.5t48 -8t11 -29q0 -13 -3.5 -22.5t-13.5 -27.5q-14 -25 -23.5 -51.5t-12.5 -70.5q-1 -6 -6 -6zM217 495q-5 0 -5 6q-3 45 -12.5 72t-23.5 51q-9 17 -13 27t-4 23q0 21 10.5 28.5
t47.5 7.5t48 -8t11 -29q0 -13 -3.5 -22.5t-13.5 -27.5q-14 -25 -23.5 -51.5t-12.5 -70.5q-1 -6 -6 -6z" />
    <glyph glyph-name="numbersign" unicode="#" horiz-adv-x="493" 
d="M481 473q7 0 7 -5q0 -2 -2.5 -4t-6.5 -2h-47l-49 -224h48q7 0 7 -4q0 -2 -2.5 -4t-6.5 -2h-48l-23 -109l-22 -104q-2 -12 -7 -15.5t-12 -3.5q-9 0 -13.5 4.5t-1.5 18.5l44 209h-252l-46 -213q-2 -12 -7 -15.5t-13 -3.5q-19 0 -14 23l45 209h-47q-7 0 -7 5q0 2 2.5 3.5
t5.5 1.5h48l49 224h-48q-7 0 -7 5q0 2 2 4t6 2h49l33 157q6 25 12 55q3 12 8 15.5t13 3.5q18 0 13 -23l-44 -208h252l47 212q2 12 7 15.5t13 3.5q14 0 14 -13q0 -6 -1 -10q-4 -19 -4 -21l-41 -187h47zM348 238l21 95l28 129h-252q-18 -80 -49 -224h252z" />
    <glyph glyph-name="dollar" unicode="$" horiz-adv-x="650" 
d="M542.5 49.5q-71.5 -56.5 -193.5 -65.5v-55q0 -6 -2.5 -9t-5.5 -3t-5.5 3t-2.5 9v54q-9 -1 -27 -1q-62 0 -120 17.5t-94 46t-36 58.5q0 4 2 14l61 187q2 7 5 7t3 -9q-3 -92 19.5 -161.5t69.5 -107.5t113 -38h4v268q-10 7 -51 34q-65 42 -106.5 75.5t-66.5 72t-25 83.5
t31.5 85t88.5 67.5t130 34.5v55q0 11 8 11t8 -11v-54q11 1 33 1q47 0 98.5 -13t86 -36.5t34.5 -52.5q0 -4 -2 -14l-52 -163q-1 -6 -4 -6q-4 0 -4 9l1 21q0 64 -25 118.5t-68.5 87t-97.5 34.5v-217q23 -16 65 -42q63 -39 103.5 -71t68 -76.5t27.5 -100.5q0 -90 -71.5 -146.5z
M269.5 558.5q21.5 -29.5 64.5 -60.5v205q-47 -2 -66.5 -21t-19.5 -59q0 -35 21.5 -64.5zM416.5 25q26.5 24 26.5 73q0 45 -25 82.5t-69 71.5v-255q41 4 67.5 28z" />
    <glyph glyph-name="percent" unicode="%" horiz-adv-x="771" 
d="M59 405q-42 49 -42 132q0 81 44.5 131t116.5 50q71 0 113 -49.5t42 -131.5q0 -81 -45 -131t-117 -50q-70 0 -112 49zM256 456q0 45 -16 103.5t-41.5 100.5t-51.5 42q-53 0 -53 -84q0 -46 16 -105t42 -100.5t52 -41.5q52 0 52 85zM480 31.5q-42 49.5 -42 132.5
q0 81 44.5 130.5t116.5 49.5q70 0 112.5 -49t42.5 -131t-45 -132t-117 -50q-70 0 -112 49.5zM677 82q0 45 -16 104t-41.5 101t-51.5 42q-53 0 -53 -85q0 -45 16 -104t42 -100.5t52 -41.5q52 0 52 84z" />
    <glyph glyph-name="ampersand" unicode="&#x26;" horiz-adv-x="912" 
d="M921.5 538.5q2.5 -1.5 0.5 -6.5q-15 -30 -47.5 -61.5t-75.5 -53.5q60 -79 60 -187q0 -66 -23 -123t-64.5 -91t-95.5 -34t-91.5 32t-69.5 89l-7 12q-38 -61 -93 -97t-144 -36q-70 0 -124.5 28.5t-84.5 80.5t-30 121q0 55 30 110t90.5 92t147.5 37h13q-28 48 -40.5 81
t-12.5 60q0 34 24.5 62.5t74 46t121.5 17.5q62 0 108.5 -16.5t71 -42.5t24.5 -52q0 -15 -9 -29l-70 -100q76 -11 152 -11q60 0 100.5 19t57.5 49q4 5 6.5 3.5zM810 274q-22 56 -56.5 91t-68.5 35q-90 0 -118 2q-16 0 -16 9q0 5 3 9l17 28q16 28 22.5 48.5t6.5 46.5
q0 42 -20 79.5t-52 60t-64 22.5q-31 0 -46.5 -12t-15.5 -45q0 -31 17 -67t70 -126q32 -53 75 -129l3 -5l101 -178q23 -41 43.5 -60t53.5 -19q35 0 51 22t16 72q0 60 -22 116zM448.5 87q25.5 11 53.5 39l-46 82l-58 101q-3 5 -6 10.5t-8 12.5q-33 51 -70.5 76t-74.5 25
q-41 0 -57.5 -28.5t-16.5 -70.5q0 -63 27.5 -122.5t78.5 -97.5t118 -38q34 0 59.5 11z" />
    <glyph glyph-name="quotesingle" unicode="'" horiz-adv-x="151" 
d="M75 495q-5 0 -5 6q-3 45 -12.5 72t-23.5 51q-9 17 -13 27t-4 23q0 21 10.5 28.5t47.5 7.5t48 -8t11 -29q0 -13 -3.5 -22.5t-13.5 -27.5q-14 -25 -23.5 -51.5t-12.5 -70.5q-1 -6 -6 -6z" />
    <glyph glyph-name="parenleft" unicode="(" horiz-adv-x="353" 
d="M104.5 21q-87.5 112 -87.5 249q0 167 86 285.5t248 185.5q1 1 3 1q3 0 4 -3t-1 -5q-73 -55 -115 -169t-42 -253q0 -160 42 -283.5t115 -179.5q2 -2 2 -3q0 -2 -2.5 -3.5t-5.5 -0.5q-159 67 -246.5 179z" />
    <glyph glyph-name="parenright" unicode=")" horiz-adv-x="353" 
d="M248.5 563q87.5 -112 87.5 -249q0 -167 -86.5 -286t-247.5 -186h-3q-3 0 -4 2.5t1 4.5q72 55 114.5 169.5t42.5 252.5q0 161 -42 284t-115 179q-2 2 -2 4t2.5 3t5.5 0q159 -66 246.5 -178z" />
    <glyph glyph-name="asterisk" unicode="*" horiz-adv-x="343" 
d="M309 596q0 -15 -14 -20q-5 -2 -15 -2q-8 0 -26 4q-30 5 -41 5q-19 0 -35 -5q13 -18 27.5 -27.5t34.5 -17.5q10 -4 19.5 -9t14.5 -12q4 -5 4 -12q0 -14 -24 -31q-19 -15 -32 -15q-10 0 -16 8q-9 13 -11 41q-2 20 -6.5 36.5t-16.5 33.5q-11 -17 -15 -33t-6 -35
q-1 -12 -3.5 -23t-8.5 -20t-15 -9t-32 15q-25 18 -25 31q0 6 5 13q6 9 13.5 14t22.5 12q18 9 31 17t27 23q-15 4 -32 4q-16 0 -40 -4q-20 -4 -29 -4q-11 0 -16 2q-14 3 -14 19q0 9 6 27q7 22 15.5 29.5t18.5 4.5q9 -3 17 -9t20 -18q16 -16 27.5 -25.5t29.5 -17.5
q-1 21 -7 36t-17 36q-8 12 -11.5 21t-3.5 18q0 11 9 16t32 5q24 0 33.5 -5.5t9.5 -16.5t-6.5 -24l-7.5 -15q-11 -17 -17.5 -34t-7.5 -39q21 8 35 19t28 27q8 9 16 16t16 10q11 3 18.5 -4t14.5 -29q6 -16 6 -27z" />
    <glyph glyph-name="plus" unicode="+" horiz-adv-x="382" 
d="M184 224q0 3 -1 5.5t-4 2.5h-133q-6 0 -10 3t-4 6q0 4 3.5 6.5t10.5 2.5h132q4 0 5 3t1 8v131q0 7 3 11.5t6 4.5q9 0 9 -16v-131q0 -5 1 -8t4 -3h132q5 0 8 -3t3 -6q0 -9 -11 -9h-132q-3 0 -4 -2.5t-1 -5.5v-131q0 -13 -9 -13q-3 0 -6 3.5t-3 9.5v131z" />
    <glyph glyph-name="comma" unicode="," horiz-adv-x="268" 
d="M45 -165q-4 0 -4 3q0 2 6 5q104 39 104 114q0 15 -12.5 21.5t-38.5 11.5q-32 5 -50 15.5t-18 39.5q0 16 14.5 33t39.5 28.5t54 11.5q49 0 73 -22t24 -58q0 -49 -32.5 -93t-77.5 -73.5t-79 -36.5h-3z" />
    <glyph glyph-name="hyphen" unicode="-" horiz-adv-x="304" 
d="M27 258q-13 0 -13 5q0 4 13 4h262q12 0 12 -4q0 -5 -12 -5h-262z" />
    <glyph glyph-name="period" unicode="." horiz-adv-x="268" 
d="M56 2q-24 16 -24 40q0 32 33.5 54t85.5 22q39 0 62 -16t23 -41q0 -30 -33.5 -52t-83.5 -23q-39 0 -63 16z" />
    <glyph glyph-name="slash" unicode="/" horiz-adv-x="241" 
d="M83 200q95 353 141 518q2 8 7 8t4 -10q-35 -122 -131 -482q-46 -177 -86 -321q-2 -8 -8 -8q-7 0 -4 9z" />
    <glyph glyph-name="zero" unicode="0" horiz-adv-x="611" 
d="M450.5 28.5q66.5 39.5 105 106.5t38.5 146q0 80 -40 146t-106 104.5t-142 38.5q-81 0 -147.5 -40t-104 -107t-37.5 -144q0 -76 38.5 -143t104.5 -107t145 -40t145.5 39.5zM130 475q36 31 81.5 48.5t94.5 17.5q48 0 92.5 -18t78.5 -48h-347zM499 454q66 -79 66 -175
q0 -46 -15.5 -88.5t-43.5 -77.5h-346zM110 104q-31 36 -48 81t-17 94q2 97 58 167h346zM131 84h349q-37 -30 -81.5 -47.5t-92.5 -17.5q-95 0 -175 65z" />
    <glyph glyph-name="one" unicode="1" horiz-adv-x="611" 
d="M450.5 28.5q66.5 39.5 105 106.5t38.5 146q0 80 -40 146t-106 104.5t-142 38.5q-81 0 -147.5 -40t-104 -107t-37.5 -144q0 -76 38.5 -143t104.5 -107t145 -40t145.5 39.5zM130 475q36 31 81.5 48.5t94.5 17.5q48 0 92.5 -18t78.5 -48h-347zM499 454q66 -79 66 -175
q0 -46 -15.5 -88.5t-43.5 -77.5h-346zM110 104q-31 36 -48 81t-17 94q2 97 58 167h346zM131 84h349q-37 -30 -81.5 -47.5t-92.5 -17.5q-95 0 -175 65z" />
    <glyph glyph-name="two" unicode="2" horiz-adv-x="611" 
d="M450.5 28.5q66.5 39.5 105 106.5t38.5 146q0 80 -40 146t-106 104.5t-142 38.5q-81 0 -147.5 -40t-104 -107t-37.5 -144q0 -76 38.5 -143t104.5 -107t145 -40t145.5 39.5zM130 475q36 31 81.5 48.5t94.5 17.5q48 0 92.5 -18t78.5 -48h-347zM499 454q66 -79 66 -175
q0 -46 -15.5 -88.5t-43.5 -77.5h-346zM110 104q-31 36 -48 81t-17 94q2 97 58 167h346zM131 84h349q-37 -30 -81.5 -47.5t-92.5 -17.5q-95 0 -175 65z" />
    <glyph glyph-name="three" unicode="3" horiz-adv-x="611" 
d="M450.5 28.5q66.5 39.5 105 106.5t38.5 146q0 80 -40 146t-106 104.5t-142 38.5q-81 0 -147.5 -40t-104 -107t-37.5 -144q0 -76 38.5 -143t104.5 -107t145 -40t145.5 39.5zM130 475q36 31 81.5 48.5t94.5 17.5q48 0 92.5 -18t78.5 -48h-347zM499 454q66 -79 66 -175
q0 -46 -15.5 -88.5t-43.5 -77.5h-346zM110 104q-31 36 -48 81t-17 94q2 97 58 167h346zM131 84h349q-37 -30 -81.5 -47.5t-92.5 -17.5q-95 0 -175 65z" />
    <glyph glyph-name="four" unicode="4" horiz-adv-x="659" 
d="M450.5 28.5q66.5 39.5 105 106.5t38.5 146q0 80 -40 146t-106 104.5t-142 38.5q-81 0 -147.5 -40t-104 -107t-37.5 -144q0 -76 38.5 -143t104.5 -107t145 -40t145.5 39.5zM130 475q36 31 81.5 48.5t94.5 17.5q48 0 92.5 -18t78.5 -48h-347zM499 454q66 -79 66 -175
q0 -46 -15.5 -88.5t-43.5 -77.5h-346zM110 104q-31 36 -48 81t-17 94q2 97 58 167h346zM131 84h349q-37 -30 -81.5 -47.5t-92.5 -17.5q-95 0 -175 65z" />
    <glyph glyph-name="five" unicode="5" horiz-adv-x="611" 
d="M450.5 28.5q66.5 39.5 105 106.5t38.5 146q0 80 -40 146t-106 104.5t-142 38.5q-81 0 -147.5 -40t-104 -107t-37.5 -144q0 -76 38.5 -143t104.5 -107t145 -40t145.5 39.5zM130 475q36 31 81.5 48.5t94.5 17.5q48 0 92.5 -18t78.5 -48h-347zM499 454q66 -79 66 -175
q0 -46 -15.5 -88.5t-43.5 -77.5h-346zM110 104q-31 36 -48 81t-17 94q2 97 58 167h346zM131 84h349q-37 -30 -81.5 -47.5t-92.5 -17.5q-95 0 -175 65z" />
    <glyph glyph-name="six" unicode="6" horiz-adv-x="611" 
d="M450.5 28.5q66.5 39.5 105 106.5t38.5 146q0 80 -40 146t-106 104.5t-142 38.5q-81 0 -147.5 -40t-104 -107t-37.5 -144q0 -76 38.5 -143t104.5 -107t145 -40t145.5 39.5zM130 475q36 31 81.5 48.5t94.5 17.5q48 0 92.5 -18t78.5 -48h-347zM499 454q66 -79 66 -175
q0 -46 -15.5 -88.5t-43.5 -77.5h-346zM110 104q-31 36 -48 81t-17 94q2 97 58 167h346zM131 84h349q-37 -30 -81.5 -47.5t-92.5 -17.5q-95 0 -175 65z" />
    <glyph glyph-name="seven" unicode="7" horiz-adv-x="611" 
d="M450.5 28.5q66.5 39.5 105 106.5t38.5 146q0 80 -40 146t-106 104.5t-142 38.5q-81 0 -147.5 -40t-104 -107t-37.5 -144q0 -76 38.5 -143t104.5 -107t145 -40t145.5 39.5zM130 475q36 31 81.5 48.5t94.5 17.5q48 0 92.5 -18t78.5 -48h-347zM499 454q66 -79 66 -175
q0 -46 -15.5 -88.5t-43.5 -77.5h-346zM110 104q-31 36 -48 81t-17 94q2 97 58 167h346zM131 84h349q-37 -30 -81.5 -47.5t-92.5 -17.5q-95 0 -175 65z" />
    <glyph glyph-name="eight" unicode="8" horiz-adv-x="611" 
d="M450.5 28.5q66.5 39.5 105 106.5t38.5 146q0 80 -40 146t-106 104.5t-142 38.5q-81 0 -147.5 -40t-104 -107t-37.5 -144q0 -76 38.5 -143t104.5 -107t145 -40t145.5 39.5zM130 475q36 31 81.5 48.5t94.5 17.5q48 0 92.5 -18t78.5 -48h-347zM499 454q66 -79 66 -175
q0 -46 -15.5 -88.5t-43.5 -77.5h-346zM110 104q-31 36 -48 81t-17 94q2 97 58 167h346zM131 84h349q-37 -30 -81.5 -47.5t-92.5 -17.5q-95 0 -175 65z" />
    <glyph glyph-name="nine" unicode="9" horiz-adv-x="611" 
d="M450.5 28.5q66.5 39.5 105 106.5t38.5 146q0 80 -40 146t-106 104.5t-142 38.5q-81 0 -147.5 -40t-104 -107t-37.5 -144q0 -76 38.5 -143t104.5 -107t145 -40t145.5 39.5zM130 475q36 31 81.5 48.5t94.5 17.5q48 0 92.5 -18t78.5 -48h-347zM499 454q66 -79 66 -175
q0 -46 -15.5 -88.5t-43.5 -77.5h-346zM110 104q-31 36 -48 81t-17 94q2 97 58 167h346zM131 84h349q-37 -30 -81.5 -47.5t-92.5 -17.5q-95 0 -175 65z" />
    <glyph glyph-name="colon" unicode=":" horiz-adv-x="268" 
d="M56 328q-24 16 -24 40q0 32 33.5 54t85.5 22q39 0 62 -16t23 -41q0 -30 -33.5 -52t-83.5 -23q-39 0 -63 16zM56 2q-24 16 -24 40q0 32 33.5 54t85.5 22q39 0 62 -16t23 -41q0 -30 -33.5 -52t-83.5 -23q-39 0 -63 16z" />
    <glyph glyph-name="semicolon" unicode=";" horiz-adv-x="268" 
d="M56 328q-24 16 -24 40q0 32 33.5 54t85.5 22q39 0 62 -16t23 -41q0 -30 -33.5 -52t-83.5 -23q-39 0 -63 16zM45 -165q-4 0 -4 3q0 2 6 5q104 39 104 114q0 15 -12.5 21.5t-38.5 11.5q-32 5 -50 15.5t-18 39.5q0 16 14.5 33t39.5 28.5t54 11.5q49 0 73 -22t24 -58
q0 -49 -32.5 -93t-77.5 -73.5t-79 -36.5h-3z" />
    <glyph glyph-name="less" unicode="&#x3c;" horiz-adv-x="395" 
d="M367 81q10 -7 10 -12q0 -12 -49 -35q-40 -17 -57 -17q-11 0 -23 7l-222 144q-8 5 -9.5 9t-1.5 14v25q0 9 2.5 13t9.5 10l330 220q8 4 13 4q12 0 1 -7l-275 -181q-4 -4 -4 -10q0 -7 8 -12z" />
    <glyph glyph-name="equal" unicode="=" horiz-adv-x="376" 
d="M43 175q-14 0 -14 5q0 4 14 4h293q11 0 11 -5q0 -4 -11 -4h-293zM43 289q-14 0 -14 5q0 4 14 4h293q11 0 11 -5q0 -4 -11 -4h-293z" />
    <glyph glyph-name="greater" unicode="&#x3e;" horiz-adv-x="395" 
d="M369 324q7 -5 9 -9.5t2 -13.5v-25q0 -8 -2.5 -12.5t-9.5 -10.5l-331 -220q-7 -4 -12 -4q-12 0 -1 7l275 182q4 4 4 9q0 7 -8 12l-267 172q-10 7 -10 12q0 12 48 35q39 17 57 17q13 0 24 -7z" />
    <glyph glyph-name="question" unicode="?" horiz-adv-x="549" 
d="M226.5 288.5q13.5 37.5 41.5 86.5q24 44 36 74t12 69q0 155 -123 155q-60 0 -100 -26t-61 -83q-1 -4 -3.5 -6.5t-4.5 -2.5q-6 0 -3 9q27 70 97.5 111.5t155.5 41.5q65 0 120.5 -22t89 -64t33.5 -100q0 -44 -21 -75t-50.5 -51.5t-79.5 -46.5q-47 -24 -75.5 -43t-47.5 -47
t-19 -66q0 -7 -4.5 -7.5t-4.5 6.5q-2 50 11.5 87.5zM140 2q-24 16 -24 40q0 32 33.5 54t85.5 22q39 0 62.5 -16.5t23.5 -40.5q0 -30 -34 -52t-84 -23q-39 0 -63 16z" />
    <glyph glyph-name="at" unicode="@" horiz-adv-x="918" 
d="M550 46q-29 21 -29 69q0 18 2 29q-1 5 -5 5t-10 -7q-50 -60 -104.5 -88.5t-119.5 -28.5q-64 0 -94.5 34t-30.5 91q0 80 50.5 151t139 113.5t198.5 42.5q76 0 128.5 -35.5t52.5 -110.5q0 -29 -7 -58l-29 -115q-4 -16 -4 -30q0 -15 7 -22t24 -7q35 0 69.5 30t56.5 87
t22 134q0 72 -41 137t-121 106t-191 41q-137 0 -241 -46t-163 -139.5t-59 -230.5q0 -165 101.5 -246.5t269.5 -81.5q84 0 146 18t112 54q5 4 9 4q3 0 3 -2q0 -5 -6 -9q-56 -46 -124.5 -72.5t-158.5 -26.5q-109 0 -195.5 36t-138.5 115t-52 202q0 130 72 235t189.5 164.5
t248.5 59.5q111 0 196.5 -44t131.5 -116t46 -151q0 -80 -40.5 -152.5t-102.5 -116t-122 -43.5q-57 0 -86 21zM486 137.5q45 56.5 66 131.5l12 51q7 33 7 52q0 67 -66 67q-72 0 -117.5 -47.5t-66 -111.5t-20.5 -114q0 -44 16.5 -64.5t52.5 -20.5q71 0 116 56.5z" />
    <glyph glyph-name="A" unicode="A" horiz-adv-x="753" 
d="M748 1.5q0 -4.5 -5 -4.5q-36 3 -47 3h-204q-25 0 -82 -3q-9 0 -9 5q0 4 8 4q31 1 51.5 17t20.5 49q0 24 -13 56l-36 87q-7 5 -12 5t-11 -3q-61 -26 -134 -42.5t-143 -20.5q-18 0 -24 -17v1l-4 -10q-12 -31 -12 -54q0 -34 22 -50.5t55 -17.5q9 0 9 -4q0 -5 -9 -5
q-63 3 -87 3h-25q-14 0 -47 -3q-5 0 -5 4.5t5 4.5q21 1 39.5 28t45.5 94l175 430q4 11 4 26q0 23 -9 41l-21 52q-6 16 -22 17q-4 1 -3 3.5t5 2.5h183q9 0 14 -2.5t8 -11.5l228 -558q27 -67 46 -94t40 -28q5 0 5 -4.5zM417.5 237q3.5 7 0.5 12h1l-133 326l-161 -396
q-1 -3 -1 -8q0 -8 10 -8q70 4 142.5 20t129.5 43q8 4 11.5 11z" />
    <glyph glyph-name="B" unicode="B" horiz-adv-x="733" 
d="M36 -2h-1q-6 0 -6.5 4t6.5 4q33 1 53 31.5t20 97.5v430q0 67 -20.5 97.5t-52.5 31.5q-6 0 -6 4t7 4q30 -2 64 -2t67 1t60 2q114 4 147 4q94 0 155 -22t89 -57.5t28 -78.5q0 -146 -182 -166q111 -5 175.5 -50.5t64.5 -130.5q0 -101 -83 -155t-242 -54q-59 0 -165 4
q-21 1 -50 2t-64 1q-34 0 -64 -2zM341 387q56 5 83.5 40t27.5 107q0 79 -35 120t-82 42l-30 2q-12 0 -15.5 -5.5t-3.5 -20.5v-626q0 -26 7 -35t30 -9h31q62 0 101 45t39 132q0 94 -35.5 145.5t-116.5 52.5l-28 1q-6 0 -6 3.5t5 4.5z" />
    <glyph glyph-name="C" unicode="C" horiz-adv-x="713" 
d="M555 274q-2 -5 -6 -4t-2 6q19 50 19 105q0 45 -12.5 89.5t-34.5 82.5q-33 61 -83 96.5t-101 35.5q-142 0 -142 -145q0 -117 47 -222.5t123.5 -169.5t161.5 -64q41 0 87.5 13.5t82.5 47.5q5 5 7.5 2.5t-1.5 -7.5q-64 -77 -143.5 -117.5t-169.5 -40.5q-96 0 -177.5 44
t-130 125t-48.5 186q0 104 53.5 191.5t143.5 138t195 50.5q67 0 128.5 -17t99.5 -44t38 -53q0 -4 -2 -10z" />
    <glyph glyph-name="D" unicode="D" horiz-adv-x="782" 
d="M218 -4q-84 4 -118 4l-64 -3q-7 0 -7 5q0 4 7 4q32 1 52 31.5t20 96.5v431q0 67 -20 97.5t-52 31.5q-7 0 -7 4t5 4l66 -2q28 0 126 4q94 4 119 4q143 0 234 -49t131 -128.5t40 -176.5q0 -102 -47.5 -184.5t-134.5 -130t-202 -47.5q-52 0 -148 4zM462.5 45.5
q50.5 44.5 74.5 119t24 165.5q0 96 -27 180t-82.5 136t-137.5 52q-28 0 -28 -38v-617q0 -24 11 -33t39 -9q76 0 126.5 44.5z" />
    <glyph glyph-name="E" unicode="E" horiz-adv-x="667" 
d="M36 -3q-6 0 -6.5 4.5t6.5 4.5q32 1 52 31.5t20 97.5v430q0 67 -20 97.5t-52 31.5q-7 0 -7 4q0 2 2 3.5t5 1.5q45 -3 64 -3h298q47 0 78 3t72 8q30 4 34 4q11 0 16.5 -6.5t6.5 -21.5q4 -105 23 -272q1 -4 -2 -5t-5 3q-29 84 -52 128t-50 75q-39 44 -87.5 59.5t-113.5 15.5
q-32 0 -32 -43v-243q0 -12 5 -21t16 -9q32 0 56 2q31 4 54.5 31t42.5 89q2 6 5.5 6t2.5 -6q-6 -42 -6 -106q0 -97 11 -158v-1q0 -4 -3 -4t-5 5q-21 64 -46.5 95.5t-55.5 35.5q-24 2 -56 2q-11 0 -16 -9t-5 -21v-268q0 -31 8 -45t27 -14q67 0 125.5 20.5t100.5 62.5
q64 63 97 189q2 8 5.5 6t1.5 -7q-19 -130 -21 -267q0 -15 -6 -21.5t-18 -6.5q-13 0 -32 4q-80 11 -164 11h-310q-19 0 -64 -3z" />
    <glyph glyph-name="F" unicode="F" horiz-adv-x="638" 
d="M75 -1q-19 0 -39 -2q-7 0 -7 4q0 5 7 5q31 3 50.5 34t19.5 95v430q0 64 -19.5 95t-50.5 34q-7 0 -7 5q0 4 7 4q20 -2 39 -2l22 -1h304q70 0 150 11q28 4 33 4q11 0 16.5 -6.5t6.5 -21.5q0 -119 16 -238v-2q0 -5 -3.5 -5.5t-5.5 5.5q-25 71 -70 132.5t-84 85.5
q-41 26 -140 26q-21 0 -29 -16.5t-8 -50.5v-247q0 -12 5 -21.5t16 -9.5q42 0 66 3q33 3 55.5 27t41.5 86q1 6 5 6t3 -6q-5 -34 -5 -94q0 -88 10 -156v-1q0 -4 -3.5 -4t-4.5 5q-22 63 -46 91t-56 32q-36 3 -66 3q-11 0 -16 -9.5t-5 -21.5v-180q0 -113 93 -121q4 0 6.5 -1.5
t2.5 -3.5q0 -4 -9 -4q-26 2 -52 2l-29 1h-198z" />
    <glyph glyph-name="G" unicode="G" horiz-adv-x="730" 
d="M704 338q10 0 14 -3t4 -11q0 -7 -3.5 -20.5t-4.5 -25.5q-5 -39 -5 -129q0 -10 -2.5 -16t-8.5 -14q-58 -69 -138.5 -103t-170.5 -34q-96 0 -178 44t-130.5 124.5t-48.5 185.5q0 103 52.5 190.5t141 139t191.5 51.5q73 0 135.5 -16.5t99 -41.5t36.5 -49q0 -6 -1 -9
l-108 -269q63 0 115 5zM597.5 144q-10.5 36 -31.5 91q-45 72 -166 97q-6 1 -5.5 5.5t6.5 3.5q73 -9 170 -9q14 35 14 76q0 77 -52 152q-38 57 -93 91t-105 34q-147 0 -147 -146q0 -123 49.5 -244t123.5 -198t142 -77q95 0 104 63q1 25 -9.5 61z" />
    <glyph glyph-name="H" unicode="H" horiz-adv-x="851" 
d="M822.5 1.5q-0.5 -4.5 -6.5 -4.5q-48 3 -65 3h-194q-19 0 -64 -3q-7 0 -7.5 4.5t6.5 4.5q33 1 53 31.5t20 97.5v236q0 21 -15 13q-120 -59 -250 -70q-14 -1 -14 -23v-156q0 -67 20.5 -97.5t52.5 -31.5q7 0 6.5 -4.5t-6.5 -4.5q-48 3 -65 3h-194q-19 0 -64 -3
q-6 0 -6.5 4.5t6.5 4.5q32 1 52 31.5t20 97.5v430q0 67 -20 97.5t-52 31.5q-7 0 -7 4q0 2 2 3.5t5 1.5q45 -3 64 -3h194q17 0 65 3q6 0 6.5 -4.5t-6.5 -4.5q-32 -1 -52.5 -31.5t-20.5 -97.5v-226q0 -9 3 -13t11 -3q60 4 124 22t123 47q18 9 18 26v147q0 67 -20 97.5
t-53 31.5q-6 0 -6 4q0 5 7 5q45 -3 64 -3h194q17 0 65 3q6 0 6.5 -4.5t-6.5 -4.5q-32 -1 -52.5 -31.5t-20.5 -97.5v-430q0 -67 20.5 -97.5t52.5 -31.5q7 0 6.5 -4.5z" />
    <glyph glyph-name="I" unicode="I" horiz-adv-x="395" 
d="M88 662.5q-20 30.5 -52 31.5q-7 0 -7 4q0 2 2 3.5t5 1.5q45 -3 64 -3h194q17 0 65 3q6 0 6.5 -4.5t-6.5 -4.5q-32 -1 -52.5 -31.5t-20.5 -97.5v-430q0 -67 20.5 -97.5t52.5 -31.5q7 0 6.5 -4.5t-6.5 -4.5q-48 3 -65 3h-194q-19 0 -64 -3q-6 0 -6.5 4.5t6.5 4.5
q32 1 52 31.5t20 97.5v430q0 67 -20 97.5z" />
    <glyph glyph-name="J" unicode="J" horiz-adv-x="615" 
d="M123.5 7q-54.5 25 -80.5 63.5t-26 79.5q0 77 63 109t144 30q7 0 7 -4t-6 -5q-34 -5 -49 -22.5t-15 -58.5q0 -40 14 -86.5t44.5 -80.5t76.5 -34q43 0 61 27t18 80q0 28 -6 56t-17 68q-12 42 -18 72.5t-6 62.5v201q0 67 -20 97.5t-53 31.5q-6 0 -6 4q0 2 2 3.5t5 1.5
q45 -3 64 -3h194q17 0 65 3q6 0 6.5 -4.5t-6.5 -4.5q-32 -1 -52.5 -31.5t-20.5 -97.5v-322q0 -126 -67 -193.5t-181 -67.5q-80 0 -134.5 25z" />
    <glyph glyph-name="K" unicode="K" horiz-adv-x="734" 
d="M789 -56q0 -6 -9 -3q-154 45 -259 142.5t-179 257.5l-56 -67v-139q0 -67 20.5 -97.5t52.5 -31.5q7 0 6.5 -4.5t-6.5 -4.5q-48 3 -65 3h-194q-19 0 -64 -3q-6 0 -6.5 4.5t6.5 4.5q32 1 52 31.5t20 97.5v430q0 67 -20 97.5t-52 31.5q-7 0 -7 4q0 2 2 3.5t5 1.5q45 -3 64 -3
h194q17 0 65 3q6 0 6.5 -4.5t-6.5 -4.5q-32 -1 -52.5 -31.5t-20.5 -97.5v-279l52 64l-3 7l11 2l187 227q34 41 34 70q0 18 -12 27.5t-28 10.5q-6 0 -5.5 4.5t5.5 4.5q42 -3 57 -3h30q22 0 79 3q8 0 8 -5q0 -4 -8 -4q-34 -1 -66 -25.5t-81 -82.5l-188 -225q73 12 155 43l4 1
q6 0 8 -7q20 -95 61 -191.5t93.5 -167t103.5 -90.5q6 -2 6 -5z" />
    <glyph glyph-name="L" unicode="L" horiz-adv-x="636" 
d="M36 -3q-6 0 -6.5 4.5t6.5 4.5q32 1 52 31.5t20 97.5v430q0 67 -20 97.5t-52 31.5q-7 0 -7 4q0 2 2 3.5t5 1.5q45 -3 64 -3h194q20 0 68 3q7 0 7 -5q0 -4 -7 -4q-34 -1 -55 -31.5t-21 -97.5v-509q0 -28 7.5 -37.5t28.5 -9.5q57 0 111 31.5t95 84.5q64 84 83 209q2 6 5 6
q2 0 3.5 -2t0.5 -5q-8 -68 -12.5 -146t-4.5 -140v-33v-8q0 -11 -3 -15.5t-12 -4.5q-8 0 -29 3q-107 11 -200 11h-259q-19 0 -64 -3z" />
    <glyph glyph-name="M" unicode="M" horiz-adv-x="914" 
d="M908 2q0 -5 -7 -5q-45 3 -64 3h-200q-26 0 -92 -3q-4 0 -7 1.5t-3 3.5q0 4 9 4q43 1 70 25.5t27 77.5q0 7 -2 25l-51 435q-1 7 -6 7q-3 0 -7 -7l-195 -526q-3 -9 -8 -9q-6 0 -9 8l-201 524q-2 6 -7 6t-5 -7l-46 -431q-1 -8 -1 -23q0 -53 27.5 -78.5t69.5 -26.5q9 0 9 -4
q0 -5 -9 -5q-66 3 -93 3h-30q-20 0 -65 -3q-6 0 -6.5 4.5t6.5 4.5q69 2 82 128l52 468q-23 48 -45.5 69.5t-48.5 22.5q-7 0 -6.5 4.5t6.5 4.5q48 -3 65 -3h157q17 0 23 -15l149 -393q2 -5 5 -5t5 5l153 398q4 10 12 10h144q19 0 70 3q6 0 6.5 -4.5t-6.5 -4.5
q-31 -1 -50.5 -24t-19.5 -72q0 -10 2 -32l51 -432q16 -126 84 -128q6 0 6 -4z" />
    <glyph glyph-name="N" unicode="N" horiz-adv-x="776" 
d="M760.5 698.5q0.5 -4.5 -6.5 -4.5q-32 -1 -52 -31.5t-20 -97.5v-571q0 -7 -6 -7t-11 6l-516 617q-4 4 -7 4q-5 0 -5 -7v-473q0 -67 20.5 -97.5t52.5 -31.5q7 0 6.5 -4.5t-6.5 -4.5q-24 3 -65 3h-27q-41 0 -65 -3q-6 0 -6.5 4.5t6.5 4.5q32 1 52.5 31.5t20.5 97.5v505
q-27 29 -46.5 42t-39.5 14q-7 0 -6.5 4.5t6.5 4.5q23 -3 64 -3l167 -1q28 0 42 -16l345 -427q5 -5 9 -5t4 7l-1 306q0 67 -20 97.5t-52 31.5q-7 0 -7 4q0 2 2 3.5t5 1.5q45 -3 64 -3h28q19 0 64 3q6 0 6.5 -4.5zM171 588l-34 39z" />
    <glyph glyph-name="O" unicode="O" horiz-adv-x="850" 
d="M208.5 27.5q-83.5 45.5 -130 126.5t-46.5 183q0 105 53.5 192t147 137.5t209.5 50.5q109 0 194.5 -45.5t133.5 -126t48 -181.5q0 -105 -54.5 -192.5t-150.5 -138.5t-214 -51q-107 0 -190.5 45.5zM621 56q36 39 36 111q0 111 -48 232.5t-125 202.5t-158 81
q-63 0 -98.5 -37.5t-35.5 -108.5q0 -110 47.5 -232.5t123.5 -205t156 -82.5q66 0 102 39z" />
    <glyph glyph-name="P" unicode="P" horiz-adv-x="695" 
d="M317 294q-5 1 -5 5t6 4l32 -1q65 -1 100.5 49t35.5 127q0 51 -16.5 102t-46.5 84t-69 33l-33 2q-21 0 -28 -9t-7 -34v-521q0 -66 26.5 -97t68.5 -32q9 0 9 -4q0 -5 -9 -5q-60 3 -84 3h-197q-19 0 -64 -3q-6 0 -6.5 4.5t6.5 4.5q32 1 52 31.5t20 97.5v430q0 67 -20 97.5
t-53 31.5q-6 0 -6 4t5 4q17 0 28 -1l38 -1q35 0 63.5 1t48.5 2q104 4 163 4q304 0 304 -209q0 -96 -68 -152t-204 -56q-15 0 -49 2z" />
    <glyph glyph-name="Q" unicode="Q" horiz-adv-x="850" 
d="M1020.5 -68q3.5 -2 0.5 -7q-30 -42 -89 -77.5t-114 -35.5q-65 0 -154.5 45.5t-191.5 129.5q-40 -5 -73 -5q-107 0 -190.5 45.5t-130 126.5t-46.5 183q0 105 53.5 192t147 137.5t209.5 50.5q109 0 194.5 -45.5t133.5 -126t48 -181.5q0 -108 -57 -197t-154 -138q8 -3 17 -8
q115 -69 179.5 -99t108.5 -30q32 0 56 8t45 29q4 5 7.5 3zM229 333.5q37 -107.5 98.5 -191t130.5 -112.5q17 15 63 15q40 0 72 -11q31 17 47.5 51t16.5 82q0 111 -48 232.5t-125 202.5t-158 81q-63 0 -98.5 -37.5t-35.5 -108.5q0 -96 37 -203.5z" />
    <glyph glyph-name="R" unicode="R" horiz-adv-x="730" 
d="M787 -59q-1 -4 -7 -3q-104 28 -175 71t-129.5 119t-116.5 204l-39 3q-5 0 -4.5 3t5.5 4l22 1q76 9 108 56t32 134q0 84 -37 123.5t-101 41.5h-24q-20 1 -27.5 -7.5t-7.5 -31.5v-524q0 -67 20.5 -97.5t52.5 -31.5q7 0 6.5 -4.5t-6.5 -4.5q-48 3 -65 3h-194q-19 0 -64 -3
q-6 0 -6.5 4.5t6.5 4.5q32 1 52 31.5t20 97.5v430q0 67 -20 97.5t-53 31.5q-6 0 -6 4t5 4q17 0 28 -1l38 -1q35 0 63 1t49 2q104 4 162 4q160 0 235 -45.5t75 -144.5q0 -81 -69 -128t-204 -56v-1q30 -3 62 -3q34 0 76 5h2q5 0 9 -3.5t5 -8.5q33 -135 90 -241t127 -135
q6 -1 5 -5z" />
    <glyph glyph-name="S" unicode="S" horiz-adv-x="650" 
d="M119 305q2 7 5 7t3 -9q-3 -92 19.5 -161.5t69.5 -107.5t113 -38q49 0 81.5 23.5t32.5 78.5q0 61 -42 106t-119 94q-65 42 -106.5 75.5t-66.5 72t-25 83.5q0 50 38.5 93.5t107 69.5t153.5 26q47 0 98.5 -13t86 -36.5t34.5 -52.5q0 -4 -2 -14l-52 -163q-1 -6 -4 -6
q-4 0 -4 9q4 70 -20.5 130t-71 95.5t-104.5 35.5q-53 0 -74.5 -19t-21.5 -61q0 -33 19.5 -61.5t53.5 -54t94 -63.5q63 -39 103.5 -71t68 -76.5t27.5 -100.5q0 -64 -38 -112.5t-108 -75t-162 -26.5q-62 0 -120 17.5t-94 46t-36 58.5q0 4 2 14z" />
    <glyph glyph-name="T" unicode="T" horiz-adv-x="713" 
d="M693 447q0 -5 -3.5 -5t-4.5 5q-35 108 -72.5 165.5t-81.5 71.5q-13 8 -69 8q-8 0 -12 -11.5t-4 -25.5v-520q0 -67 27.5 -97.5t71.5 -31.5q9 0 9 -4q0 -5 -9 -5q-63 3 -88 3h-201q-24 0 -87 -3q-9 0 -9 5q0 4 9 4q44 1 71.5 31.5t27.5 97.5v520q0 13 -4.5 25t-12.5 12
q-54 0 -69 -8q-88 -30 -153 -237q-1 -5 -5 -5q-2 0 -3.5 2t-0.5 5q11 91 11 177l-1 66q0 23 22 23q12 0 33 -3q74 -12 183 -12h178q108 0 182 12q21 3 33 3q24 0 23 -28q-3 -36 -3 -73q0 -72 12 -165v-2z" />
    <glyph glyph-name="U" unicode="U" horiz-adv-x="773" 
d="M250 17.5q-70 35.5 -107.5 102t-37.5 156.5v289q0 67 -19 97.5t-50 31.5q-6 0 -5.5 4.5t5.5 4.5q45 -3 61 -3h196q23 0 77 3q8 0 8 -5q0 -4 -8 -4q-39 -1 -63 -31.5t-24 -97.5v-298q0 -101 53.5 -160t147.5 -59q57 0 101 29t68 82t24 121l-1 285q0 67 -24.5 97.5
t-63.5 31.5q-8 0 -8 4q0 5 8 5q57 -3 78 -3h25q15 0 51 3q5 0 5.5 -4.5t-4.5 -4.5q-26 -1 -42 -31.5t-16 -97.5v-282q0 -141 -71.5 -221t-198.5 -80q-95 0 -165 35.5z" />
    <glyph glyph-name="V" unicode="V" horiz-adv-x="764" 
d="M759.5 698.5q0.5 -4.5 -5.5 -4.5q-23 -1 -43.5 -28.5t-46.5 -93.5l-185 -479q-2 -4 -2 -11t3 -13l5 -12q2 -4 2 -10q0 -9 -9 -11l-133 -52q-6 -2 -9 -2q-12 0 -17 14l-225 576q-26 67 -44.5 94t-40.5 28q-5 0 -4.5 4.5t4.5 4.5q36 -3 47 -3h207q22 0 82 3q8 0 8 -5
q0 -4 -8 -4q-31 -1 -52 -17.5t-21 -50.5q0 -22 12 -55l180 -467q2 -5 5.5 -5.5t4.5 5.5l181 467q13 33 13 59q0 31 -18 47t-45 17q-7 0 -7 4q0 5 7 5q54 -3 73 -3h24q16 0 52 3q5 0 5.5 -4.5z" />
    <glyph glyph-name="W" unicode="W" horiz-adv-x="1093" 
d="M1088.5 698.5q0.5 -4.5 -5.5 -4.5q-24 -1 -44 -29.5t-41 -94.5l-156 -473v-1q-2 -4 -2 -11q0 -4 3 -16l6 -12q2 -6 2 -9q0 -10 -9 -12l-140 -51q-6 -2 -9 -2q-13 0 -17 13l-129 398l-98 -295v-1q-3 -7 -3 -13q0 -8 4 -16l5 -12q2 -6 2 -9q0 -10 -9 -12l-140 -51
q-6 -2 -9 -2q-12 0 -16 13l-187 574q-21 66 -41 94.5t-44 29.5q-6 0 -5.5 4.5t5.5 4.5q36 -3 52 -3h200q17 0 59 3q6 0 6.5 -4.5t-6.5 -4.5q-21 -1 -35 -16t-14 -46q0 -28 11 -62l148 -457q2 -5 6 -5q5 0 7 5l89 268q5 15 5 24q0 10 -8 34l2 -1l-43 132q-22 66 -46 94.5
t-53 29.5q-7 0 -6.5 4.5t6.5 4.5q45 -3 63 -3h205q20 0 74 3q8 0 8 -5q0 -4 -8 -4q-28 -1 -47 -18t-19 -52q0 -24 10 -54l147 -457q1 -7 7 -7q5 0 7 7l150 457q10 31 10 55q0 34 -18.5 51t-45.5 18q-8 0 -8 4q0 5 8 5q51 -3 73 -3h24q13 0 52 3q5 0 5.5 -4.5z" />
    <glyph glyph-name="X" unicode="X" horiz-adv-x="768" 
d="M755.5 1.5q-0.5 -4.5 -6.5 -4.5q-48 3 -65 3h-224q-18 0 -69 -3q-7 0 -7 5q0 4 7 4q23 1 39 13.5t16 36.5q0 27 -24 65l-127 208l-134 -209q-24 -37 -24 -64q0 -24 17 -36.5t41 -13.5q8 0 8 -4q0 -5 -8 -5q-54 3 -74 3h-29q-19 0 -64 -3q-7 0 -7.5 4.5t6.5 4.5
q29 1 55 26t67 88l141 216l-149 243q-39 62 -65.5 88t-54.5 27q-6 0 -6 4q0 5 7 5q45 -3 64 -3h225q20 0 74 3q7 0 7 -5q0 -4 -7 -4q-25 -1 -42 -14t-17 -38q0 -27 22 -63l120 -195l127 196q24 37 24 64q0 24 -17 36.5t-42 13.5q-7 0 -7 4q0 5 7 5q54 -3 74 -3h29q17 0 59 3
q6 0 6.5 -4.5t-5.5 -4.5q-26 -1 -50.5 -26t-65.5 -88l-134 -205l157 -254q38 -62 64.5 -88t54.5 -27q7 0 6.5 -4.5z" />
    <glyph glyph-name="Y" unicode="Y" horiz-adv-x="703" 
d="M194 -3q-6 0 -6.5 4.5t6.5 4.5q32 1 52.5 31.5t19.5 97.5v114q0 26 -10 46l-146 281q-35 66 -56 92t-43 27q-6 0 -5.5 4.5t5.5 4.5q18 -3 52 -3h207q50 0 78 3q8 0 8 -5q0 -4 -8 -4q-27 -1 -46 -15.5t-19 -42.5q0 -25 18 -61l132 -264q5 -9 9 -9q5 0 10 10l132 262
q17 34 17 61q0 28 -18.5 42.5t-45.5 15.5q-8 0 -8 4q0 5 8 5q54 -3 77 -3h26q13 0 52 3q5 0 5 -4.5t-5 -4.5q-22 -1 -43 -27t-55 -92l-141 -280q-9 -17 -9 -45l1 -115q0 -67 20 -97.5t52 -31.5q7 0 6.5 -4.5t-6.5 -4.5q-45 3 -65 3h-193q-17 0 -65 -3z" />
    <glyph glyph-name="Z" unicode="Z" horiz-adv-x="687" 
d="M572 -10q-46 10 -93 10h-338q-30 0 -64 -2q-12 -1 -28 -1q-20 0 -20 15q0 9 8 23l410 638q3 6 3 11q0 9 -10 8l-160 -8q-56 -3 -95.5 -24.5t-69 -72.5t-52.5 -141q-1 -6 -5 -5.5t-3 5.5q13 100 18 241q1 14 6.5 20.5t16.5 6.5q5 0 33 -4q67 -10 129 -10h162l213 3
q13 0 13 -9q0 -11 -23 -45l-400 -628q-3 -4 -3 -8q0 -6 10 -5l189 9q75 5 136 75.5t87 187.5q2 6 4 6q5 0 3 -6q-22 -122 -20 -267q0 -14 -5.5 -20.5t-17.5 -6.5q-6 0 -34 4z" />
    <glyph glyph-name="bracketleft" unicode="[" horiz-adv-x="341" 
d="M32 715q0 8 2.5 13.5t12.5 5.5h289q8 0 12 -1.5t4 -3.5q0 -5 -15 -5h-128q-8 0 -11 -2t-3.5 -10.5t-0.5 -22.5v-802q0 -14 0.5 -22.5t3.5 -10.5t11 -2h128q15 0 15 -5q0 -2 -4 -3.5t-12 -1.5h-289q-10 0 -12.5 5.5t-2.5 13.5v854z" />
    <glyph glyph-name="backslash" unicode="\" horiz-adv-x="238" 
d="M233 -102q0 -7 -6 -7q-4 0 -6 2.5t-3 9.5q-110 405 -212 787q-1 3 -1 7q0 7 6 7q4 0 6 -2.5t4 -10.5l6 -23q20 -74 96 -357t109 -404q1 -4 1 -9z" />
    <glyph glyph-name="bracketright" unicode="]" horiz-adv-x="341" 
d="M309 -139q0 -8 -2.5 -13.5t-12.5 -5.5h-290q-7 0 -11.5 1.5t-4.5 3.5q0 5 15 5h129q8 0 11 2t3.5 10.5t0.5 22.5v802q0 14 -0.5 22.5t-3.5 10.5t-11 2h-129q-15 0 -15 5q0 2 4.5 3.5t11.5 1.5h290q10 0 12.5 -5.5t2.5 -13.5v-854z" />
    <glyph glyph-name="asciicircum" unicode="^" horiz-adv-x="397" 
d="M358 484q7 -11 7 -17q0 -5 -6.5 -6.5t-23.5 -1.5q-40 0 -56 1.5t-23 6t-12 15.5l-82 150q-5 8 -11 8q-5 0 -10 -5l-94 -170q-2 -4 -4.5 -5t-8.5 -1q-3 0 -1 5l136 241q5 7 8.5 9.5t11.5 2.5h7q9 0 13.5 -2t9.5 -9z" />
    <glyph glyph-name="underscore" unicode="_" horiz-adv-x="257" 
d="M9 -49q-13 0 -13 5q0 4 13 4h262q12 0 12 -4q0 -5 -12 -5h-262z" />
    <glyph glyph-name="grave" unicode="`" horiz-adv-x="480" 
d="M153.5 548q-55.5 30 -99.5 66.5t-44 64.5q0 9 44 9q42 0 73 -6q12 -2 17.5 -11.5t9.5 -29.5q8 -35 23.5 -63.5t57.5 -54.5q4 -2 3 -5.5t-5 -3.5q-24 4 -79.5 34z" />
    <glyph glyph-name="a" unicode="a" horiz-adv-x="600" 
d="M611.5 207.5q4.5 0.5 4.5 -6.5q0 -67 -22 -116.5t-58 -75.5t-76 -26q-36 0 -64 30.5t-41 88.5l-3 14q-19 -65 -62 -99t-95 -34q-58 0 -98 25t-59 65t-17 84q1 51 49.5 80t128.5 29q67 0 120 -11l-24 99q-11 47 -36 70t-69 23q-59 0 -98 -31t-47 -102q-2 -8 -6 -8t-4 8
q10 89 77.5 129.5t152.5 40.5q94 0 141 -34t67 -117l47 -208q10 -45 38 -45q22 0 35.5 36.5t13.5 84.5q0 6 4.5 6.5zM343 142q0 9 -1 15l-20 83q-38 11 -71 11q-43 0 -60.5 -16.5t-17.5 -60.5q0 -46 25.5 -80t69.5 -34q59 0 71 60q4 9 4 22z" />
    <glyph glyph-name="b" unicode="b" horiz-adv-x="605" 
d="M488.5 454.5q45.5 -28.5 73 -83t27.5 -128.5q0 -68 -32.5 -128t-89 -96t-125.5 -36q-40 0 -70 10t-68 29q-27 14 -41.5 19.5t-31.5 5.5q-12 0 -22.5 -7.5t-30.5 -26.5l-20 -19q-5 -5 -8 -5q-2 0 -3.5 2.5t-0.5 6.5q15 110 15 250l-3 249q0 51 -4.5 75t-13.5 29.5t-25 3.5
h-1q-9 0 -8 8q145 40 225 109h3q8 0 7 -9q-9 -55 -12 -105.5t-3 -118.5v-66q0 -23 2 -40t6 -13q63 113 156 113q53 0 98.5 -28.5zM429 23.5q19 25.5 19 75.5q0 72 -24.5 142t-62 113.5t-75.5 43.5q-28 0 -44 -31.5t-16 -95.5v-50q0 -103 36 -163t104 -60q44 0 63 25.5z" />
    <glyph glyph-name="c" unicode="c" horiz-adv-x="494" 
d="M399 179q-1 -4 -6 -4t-2 8q4 12 4 31q0 46 -25.5 106t-64 102t-74.5 42q-78 0 -78 -96q0 -73 35.5 -145t93 -118t120.5 -46q50 0 84 33q5 4 7 1.5t-1 -5.5q-41 -53 -99 -79.5t-123 -26.5q-68 0 -126 30t-92.5 85t-34.5 127q0 67 36 126.5t97.5 96t134.5 36.5q50 0 96 -12
t72 -30.5t21 -36.5z" />
    <glyph glyph-name="d" unicode="d" horiz-adv-x="633" 
d="M644.5 208.5q3.5 0.5 3.5 -4.5q0 -58 -20.5 -109t-55 -81t-75.5 -30q-43 0 -75 25.5t-40 77.5l-2 4q-3 3 -5 3q-4 0 -7 -7q-55 -105 -153 -105q-51 0 -96.5 28.5t-73.5 82t-28 125.5q0 75 35 135.5t91 95t114 34.5q70 0 120 -38v52q0 51 -5 75t-13.5 29.5t-25.5 3.5h-1
q-4 0 -6 2t-2 3.5t1 2.5q145 41 224 109h3q8 0 7 -9q-8 -56 -11 -106.5t-3 -117.5v-337q0 -35 8 -53t27 -18q36 0 47.5 33t13.5 89q0 5 3.5 5.5zM362.5 92q14.5 23 17.5 78l-1 65q-6 104 -40.5 168.5t-99.5 64.5q-81 0 -81 -103q0 -68 25.5 -137t63.5 -114t73 -45
q28 0 42.5 23z" />
    <glyph glyph-name="e" unicode="e" horiz-adv-x="515" 
d="M487 93q1 -1 2 -2.5t-1 -4.5q-38 -49 -100.5 -76.5t-121.5 -27.5q-67 0 -124 30t-91 85t-34 127q0 68 36 127.5t99 95.5t139 36q85 0 142 -43t57 -121q0 -36 -13 -76l-297 -10q35 -74 96 -123.5t125 -49.5q51 0 84 33q1 1 2 0zM166.5 436q-18.5 -25 -18.5 -72
q0 -60 29 -124q70 1 123 5l26 1q11 7 11 30q0 30 -18.5 75t-46 77.5t-51.5 32.5q-36 0 -54.5 -25z" />
    <glyph glyph-name="f" unicode="f" horiz-adv-x="381" 
d="M22 457q-6 0 -6 3.5t6 4.5q41 5 62 22t21 62q0 57 24 98t63 62.5t82 21.5q35 0 67 -14.5t56 -41.5q5 -8 5 -11q0 -6 -9 -15q-19 -18 -49 -41l-40 -32q-6 -6 -10 -6q-5 0 -9 7q-26 50 -55.5 77t-52.5 27q-13 0 -21 -9q-8 -7 -8 -29q0 -26 13 -61.5t38 -67t58 -46.5
q12 -2 30 -2h94q1 0 1 -3q0 -6 -6 -6h-82q-21 0 -28 -5.5t-7 -24.5v-294q0 -69 20 -97t67 -28q7 0 7 -4q0 -5 -7 -5q-40 2 -85 2l-169 -1l-38 -1q-10 -1 -27 -1q-6 0 -6 4.5t6 4.5q36 0 51.5 28t15.5 97v295q0 18 -6 24t-22 6h-44z" />
    <glyph glyph-name="g" unicode="g" horiz-adv-x="525" 
d="M490 11q33 -37 33 -87q0 -61 -39 -100.5t-108 -39.5q-77 0 -126 53q-58 -24 -113 -24q-61 0 -92 31.5t-31 83.5q0 50 30 90t78 66q-52 23 -82 66.5t-30 102.5q0 68 33.5 119.5t91 80t127.5 28.5q38 0 78 -10q1 60 20.5 98.5t48 56t59.5 17.5q21 0 36 -10t15 -25
q0 -5 -1 -8l-24 -90q-5 -15 -15 -15q-5 0 -9 3q-29 21 -69 21q-51 0 -50 -51q65 -22 102 -72t37 -119q0 -60 -33.5 -109.5t-91.5 -77.5t-128 -28q-57 0 -104 18q-29 -14 -43 -28t-14 -38q0 -18 12.5 -29t32.5 -11q30 0 60 9t72 26q49 20 81 29.5t67 9.5q56 0 89 -37z
M151 440q-19 -21 -19 -62q0 -62 23.5 -131.5t60.5 -117t77 -47.5q37 0 56 20.5t19 58.5q0 55 -25 126.5t-63 122.5t-73 51q-37 0 -56 -21zM439.5 -191q23.5 13 23.5 38q0 19 -12 30t-34 11q-30 0 -58 -8.5t-69 -26.5l-30 -13q46 -44 118 -44q38 0 61.5 13z" />
    <glyph glyph-name="h" unicode="h" horiz-adv-x="700" 
d="M710.5 207.5q4.5 0.5 4.5 -6.5q0 -67 -22 -116.5t-57.5 -75.5t-75.5 -26q-37 0 -65 30t-42 89l-65 264q-8 32 -19.5 45.5t-37.5 13.5q-41 0 -63.5 -49.5t-22.5 -124.5v-141q0 -59 11.5 -80.5t48.5 -22.5q5 0 5 -4.5t-5 -4.5q-46 2 -125 2q-102 0 -160 -2q-5 0 -5 4.5
t6 4.5q25 0 36.5 5.5t17 27.5t5.5 71l-3 386q0 51 -4.5 75t-13.5 29.5t-25 3.5h-2q-4 0 -6 2t-2 3.5t1 2.5q146 41 225 109h3q7 0 6 -9q-8 -56 -11 -106.5t-3 -117.5v-137q14 55 58.5 93.5t108.5 38.5q63 0 97.5 -28.5t47.5 -84.5l61 -246q11 -45 39 -45q22 0 36 37t13 84
q0 6 4.5 6.5z" />
    <glyph glyph-name="i" unicode="i" horiz-adv-x="328" 
d="M260.5 42.5q12.5 -34.5 47.5 -35.5q5 0 5 -5t-5 -4q-19 1 -142 1q-124 0 -143 -1q-5 0 -4.5 4.5t6.5 4.5q30 0 44 31t14 95v167q0 56 -12.5 77.5t-51.5 17.5h-1q-3 0 -3.5 3.5t3.5 4.5q58 12 121.5 36t106.5 52q6 4 9 4q4 0 4 -8q-7 -72 -9 -111t-2 -93v-150
q0 -56 12.5 -90.5zM76.5 564.5q-23.5 17.5 -23.5 45.5q0 36 32.5 61t83.5 25q40 0 64 -18.5t24 -46.5q0 -35 -33.5 -59.5t-83.5 -24.5q-40 0 -63.5 17.5z" />
    <glyph glyph-name="j" unicode="j" horiz-adv-x="312" 
d="M88 300q0 56 -12.5 77.5t-51.5 17.5h-1q-3 0 -3.5 3.5t3.5 4.5q58 12 121.5 36t106.5 52q6 4 9 4q4 0 3 -8q-6 -73 -8 -112t-2 -92v-116q0 -104 -52.5 -176.5t-124.5 -108t-126 -36.5q-9 0 -9 6t9 6q45 1 73.5 15t46.5 64t18 152v211zM63.5 564.5q-23.5 17.5 -23.5 45.5
q0 36 32.5 61t83.5 25q40 0 64 -18.5t24 -46.5q0 -35 -33.5 -59.5t-83.5 -24.5q-40 0 -63.5 17.5z" />
    <glyph glyph-name="k" unicode="k" horiz-adv-x="615" 
d="M646 -30q0 -2 -2.5 -2.5t-6.5 0.5q-115 26 -201.5 93t-156.5 170l-34 -27v-94q0 -59 11.5 -80.5t48.5 -22.5q5 0 5 -4.5t-5 -4.5q-46 2 -125 2q-102 0 -160 -2q-5 0 -5 4.5t6 4.5q25 0 36.5 5.5t17 27.5t5.5 71l-3 386q0 51 -4.5 75t-13.5 29.5t-25 3.5h-2q-4 0 -6 2
t-2 3.5t1 2.5q146 41 225 109h3q7 0 6 -9q-8 -56 -11 -106.5t-3 -117.5v-278l30 26l-7 11q9 -4 38 15l130 113q23 19 23 36q0 19 -24.5 30.5t-47.5 15.5q-5 0 -4.5 4.5t5.5 4.5q48 -2 114 -2q69 0 107 2q6 0 6.5 -4.5t-5.5 -4.5q-39 0 -151 -82l-53 -43q4 1 5 -1
q63 -161 114.5 -242.5t116.5 -114.5q4 -1 4 -5z" />
    <glyph glyph-name="l" unicode="l" horiz-adv-x="325" 
d="M72.5 571.5q-4.5 23.5 -13.5 29t-25 3.5h-2q-6 0 -7 4t0 5q145 39 225 109h2q9 0 7 -10q-8 -56 -11 -106.5t-3 -117.5v-355q0 -56 12.5 -90.5t47.5 -35.5q5 0 5 -5t-5 -4q-19 1 -142 1q-124 0 -143 -1q-5 0 -4.5 4.5t6.5 4.5q30 0 44 31t14 95l-3 363q0 52 -4.5 75.5z
" />
    <glyph glyph-name="m" unicode="m" horiz-adv-x="981" 
d="M991.5 207.5q4.5 0.5 4.5 -6.5q0 -67 -22 -116.5t-57.5 -75.5t-75.5 -26q-37 0 -65 30t-42 89l-66 268q-8 32 -21.5 45.5t-34.5 13.5q-35 0 -51 -33.5t-17 -77.5l29 -198q5 -31 16.5 -45t25.5 -14q8 0 15 5q3 2 4.5 1t-1.5 -5q-16 -38 -45 -58.5t-64 -20.5q-43 2 -76 30
t-39 76l-42 278q-11 62 -52 62q-28 0 -44.5 -34.5t-22.5 -78.5v-33v-173q0 -59 11.5 -80.5t48.5 -22.5q5 0 5 -4.5t-5 -4.5q-46 2 -125 2q-102 0 -160 -2q-5 0 -5 4.5t6 4.5q25 0 36.5 5.5t17 27.5t5.5 71v189q0 56 -12.5 77.5t-51.5 17.5h-1q-3 0 -3.5 3.5t3.5 4.5
q58 12 121.5 36t106.5 52q6 4 9 4q4 0 4 -8q-4 -40 -9 -110q18 44 54.5 75t92.5 31q51 0 89.5 -29.5t50.5 -93.5q10 52 51 87.5t104 35.5q62 0 98 -26t50 -82l59 -250q11 -45 39 -45q22 0 36 37t13 84q0 6 4.5 6.5z" />
    <glyph glyph-name="n" unicode="n" horiz-adv-x="701" 
d="M711.5 207.5q4.5 0.5 4.5 -6.5q0 -67 -22 -116.5t-58 -75.5t-75 -26q-37 0 -65 30t-42 89l-65 264q-8 32 -19.5 45.5t-37.5 13.5q-35 0 -56.5 -36t-27.5 -95v-11v-173q0 -59 11.5 -80.5t48.5 -22.5q5 0 5 -4.5t-5 -4.5q-46 2 -125 2q-102 0 -160 -2q-5 0 -5 4.5t6 4.5
q25 0 36.5 5.5t17 27.5t5.5 71v189q0 56 -12.5 77.5t-51.5 17.5h-1q-3 0 -3.5 3.5t3.5 4.5q58 12 121.5 36t106.5 52q6 4 9 4q4 0 4 -8q-7 -81 -10 -123q17 51 60.5 85.5t103.5 34.5q63 0 97 -28.5t48 -84.5l61 -246q6 -22 15 -33.5t24 -11.5q22 0 36 37t13 84q0 6 4.5 6.5z
" />
    <glyph glyph-name="o" unicode="o" horiz-adv-x="592" 
d="M142.5 12.5q-59.5 30.5 -92.5 85.5t-33 126q0 74 38 133t104.5 92.5t146.5 33.5q79 0 140 -30.5t95 -85t34 -125.5q0 -74 -39.5 -133.5t-107.5 -93t-150 -33.5q-76 0 -135.5 30.5zM413.5 29q22.5 22 22.5 63q0 60 -34 147.5t-81.5 152.5t-83.5 67q-38 1 -60.5 -21
t-22.5 -65q0 -60 34 -146.5t81.5 -151.5t82.5 -67q39 -1 61.5 21z" />
    <glyph glyph-name="p" unicode="p" horiz-adv-x="618" 
d="M501 454.5q45 -28.5 72.5 -83t27.5 -128.5q0 -68 -32 -128t-86 -96t-117 -36q-31 0 -52 6.5t-43 16.5q-16 7 -21 7q-11 0 -11 -16v-65q0 -70 16 -97t49 -28q5 0 5 -5t-5 -4q-48 2 -148 2q-98 0 -146 -2q-6 0 -5 4.5t8 4.5q31 0 46 28t15 98v367q0 56 -12 77.5t-51 17.5
h-1q-4 0 -4 3.5t4 4.5q58 12 121.5 36t106.5 52q6 4 8 4q5 0 4 -8l-3 -31l-4 -60q0 -29 5 -24q27 48 63.5 79.5t92.5 31.5q52 0 97 -28.5zM440.5 22.5q19.5 26.5 19.5 76.5q0 71 -24.5 140.5t-62 113.5t-73.5 44q-29 -1 -44.5 -27.5t-16.5 -75.5v-11v-73q0 -62 17.5 -110.5
t48.5 -76t70 -27.5q46 0 65.5 26.5z" />
    <glyph glyph-name="q" unicode="q" horiz-adv-x="607" 
d="M52 354q35 61 92 95t119 34q31 0 59 -8t61 -23q26 -11 43 -16.5t33 -5.5q41 0 93 48q4 5 7 3.5t2 -6.5q-17 -120 -17 -257v-286q0 -70 16 -97t49 -28q5 0 5 -5t-5 -4q-48 2 -148 2q-98 0 -146 -2q-6 0 -5 4.5t8 4.5q31 0 46 28t15 98v111q0 25 -2 43q-1 8 -3 8t-6 -8
q-27 -51 -67 -78t-89 -27q-51 0 -96 28.5t-72 82t-27 125.5q0 75 35 136zM182.5 227.5q24.5 -69.5 62 -114t72.5 -44.5q32 0 47 25t15 85v15q0 273 -142 273q-45 0 -62 -27t-17 -75q0 -68 24.5 -137.5z" />
    <glyph glyph-name="r" unicode="r" horiz-adv-x="496" 
d="M451.5 465q30.5 -18 30.5 -48q0 -4 -2 -14l-66 -224q-1 -6 -4.5 -4.5t-2.5 6.5q4 21 4 45q0 45 -15 76t-38 46.5t-47 15.5q-37 0 -50 -48.5t-13 -135.5v-70q0 -59 11.5 -80.5t48.5 -22.5q5 0 5 -4.5t-5 -4.5q-46 2 -125 2q-102 0 -160 -2q-5 0 -5 4.5t6 4.5
q25 0 36.5 5.5t17 27.5t5.5 71v189q0 56 -12.5 77.5t-51.5 17.5h-1q-3 0 -3.5 3.5t3.5 4.5q58 12 121.5 36t106.5 52q6 4 9 4q4 0 4 -8q-7 -71 -9 -109t-2 -83q10 78 40.5 133t94.5 55q38 0 68.5 -18z" />
    <glyph glyph-name="s" unicode="s" horiz-adv-x="489" 
d="M67 203q1 4 4 4t4 -5q12 -87 57.5 -147t107.5 -60q61 0 61 44q-1 38 -35.5 72.5t-98.5 77.5q-62 43 -94 78t-32 80q0 39 29 70t79 48.5t112 17.5q39 0 85.5 -8t77 -22.5t25.5 -34.5l-37 -138q-1 -3 -3.5 -3t-2.5 4q-12 89 -61 138.5t-112 49.5q-28 0 -39 -9t-11 -26
q0 -26 31 -52.5t107 -75.5q62 -39 100 -81t38 -98q0 -67 -65 -106t-170 -39q-46 0 -93.5 11t-76 29.5t-23.5 39.5z" />
    <glyph glyph-name="t" unicode="t" horiz-adv-x="366" 
d="M104 19.5q-32 37.5 -32 90.5v317q0 15 -3.5 22.5t-17.5 7.5h-35q-6 0 -5.5 3t5.5 4q66 12 129 61t89 117q1 7 5 7q3 0 3 -7l-5 -157q0 -13 5.5 -16t20.5 -3h87q1 0 1 -3q0 -2 -2 -4t-6 -2h-78q-17 0 -22.5 -5t-5.5 -19v-279q0 -40 15 -60.5t39 -20.5q19 0 40 12.5
t40 34.5q3 3 5 3t2.5 -2t-1.5 -6q-52 -69 -100.5 -101t-90.5 -32q-50 0 -82 37.5z" />
    <glyph glyph-name="u" unicode="u" horiz-adv-x="655" 
d="M666.5 208.5q3.5 0.5 3.5 -4.5q0 -58 -20.5 -109t-55.5 -81t-76 -30q-46 0 -79.5 29.5t-37.5 89.5q-13 -53 -53.5 -87t-111.5 -34q-75 0 -121 50.5t-46 147.5v120q0 56 -12 77.5t-51 17.5h-1q-3 0 -3.5 3.5t3.5 4.5q58 12 121.5 36t106.5 52q6 4 8 4q5 0 4 -8
q-7 -77 -9 -116t-2 -88v-115q0 -136 74 -136q44 0 68.5 39.5t24.5 93.5v135q0 56 -12.5 77.5t-50.5 17.5h-1q-4 0 -4 3.5t4 4.5q58 12 121.5 36t106.5 52q6 4 8 4q5 0 4 -8q-7 -77 -9 -116t-2 -88v-131q0 -71 35 -71q36 0 47.5 33t14.5 89q0 5 3.5 5.5z" />
    <glyph glyph-name="v" unicode="v" horiz-adv-x="577" 
d="M574 462.5q0 -4.5 -4 -4.5q-24 0 -40.5 -24.5t-45.5 -93.5l-103 -251q-1 -3 -1 -9q0 -5 2 -11l10 -22q1 -2 1 -5q0 -8 -7 -9l-129 -48q-3 -1 -7 -1q-9 0 -13 10l-144 346q-29 70 -45.5 94t-39.5 24q-4 0 -4 4.5t4 4.5q20 -2 45 -2h180q45 0 83 2q8 0 8 -4q0 -5 -8 -5
q-64 0 -64 -51q0 -27 17 -67l96 -232q3 -6 7 -6t7 6l96 232q18 44 18 69q0 49 -60 49q-7 0 -7 5q0 4 7 4q36 -2 78 -2h13q24 0 46 2q4 0 4 -4.5z" />
    <glyph glyph-name="w" unicode="w" horiz-adv-x="865" 
d="M862 462.5q0 -4.5 -4 -4.5q-23 0 -39.5 -24t-44.5 -94l-99 -250q-1 -3 -1 -8q0 -4 3 -13l10 -21q1 -2 1 -5q0 -8 -7 -9l-129 -49q-3 -1 -7 -1q-9 0 -13 10l-100 263l-66 -167q-1 -3 -1 -7t1.5 -8t1.5 -6l10 -21q1 -2 1 -5q0 -7 -6 -9l-129 -49q-3 -1 -7 -1q-9 0 -13 10
l-134 345q-26 69 -42.5 94t-40.5 25q-4 0 -4 4.5t4 4.5q22 -2 46 -2h179q24 0 46 2q4 0 4 -4.5t-4 -4.5q-32 0 -32 -37q0 -31 20 -82l87 -228q3 -6 6 -6q5 0 6 6l63 158l-27 70q-26 69 -43.5 94t-44.5 25q-4 0 -4 4.5t4 4.5q24 -2 51 -2h179q34 0 66 2q5 0 5 -4.5t-5 -4.5
q-49 0 -49 -46q0 -29 17 -73l85 -228q2 -6 6 -6q5 0 6 6l90 228q17 43 17 71q0 48 -56 48q-7 0 -7 5q0 4 7 4q34 -2 75 -2h12q24 0 46 2q4 0 4 -4.5z" />
    <glyph glyph-name="x" unicode="x" horiz-adv-x="585" 
d="M591 3.5q0 -4.5 -6 -4.5q-17 0 -27 1l-38 1h-193l-38 -1q-10 -1 -27 -1q-6 0 -6 4.5t6 4.5q44 0 44 34q0 26 -31 76l-69 110l-74 -112q-31 -46 -31 -75q0 -33 43 -33q6 0 6 -4.5t-6 -4.5q-17 0 -27 1l-38 1h-14l-38 -1q-10 -1 -27 -1q-6 0 -6 4.5t6 4.5q33 0 56 22t66 86
l79 119l-71 113q-30 47 -45 68t-30.5 31.5t-35.5 10.5q-4 0 -4 4.5t4 4.5q28 -2 56 -2h193q39 0 75 2q6 0 6 -4.5t-6 -4.5q-53 0 -53 -37q0 -28 29 -73l52 -82l56 83q31 47 31 73q0 36 -52 36q-6 0 -6 4.5t6 4.5q36 -2 75 -2h14q34 0 66 2q5 0 5 -4.5t-5 -4.5q-34 0 -57 -22
t-66 -87l-62 -91l89 -140q41 -65 64 -87.5t56 -22.5q6 0 6 -4.5z" />
    <glyph glyph-name="y" unicode="y" horiz-adv-x="577" 
d="M574 462.5q0 -4.5 -4 -4.5q-24 0 -40.5 -24.5t-44.5 -93.5l-146 -352q-32 -74 -57.5 -116t-58.5 -64t-80 -22q-33 0 -65.5 11t-54.5 29.5t-23 37.5q0 17 15 51.5t33.5 64.5t24.5 30q3 0 2 -8q-3 -23 16 -68t50 -79.5t64 -34.5q22 0 38 16.5t28 49.5q1 17 -11.5 51
t-31.5 79l-135 324q-29 70 -45.5 94t-39.5 24q-4 0 -4 4.5t4 4.5q20 -2 45 -2h180q42 0 78 2q7 0 7 -4q0 -5 -7 -5q-60 0 -60 -49q0 -25 18 -69l96 -231q3 -7 7 -7t7 6l96 232q17 40 17 67q0 51 -64 51q-7 0 -7 5q0 4 7 4q38 -2 83 -2h13q24 0 46 2q4 0 4 -4.5z" />
    <glyph glyph-name="z" unicode="z" horiz-adv-x="511" 
d="M450 -5q-32 5 -64 5h-181q-25 0 -87 -2l-78 -1q-14 0 -14 11q0 6 9 23l251 412q2 3 2 8q0 6 -8 6l-75 -4q-45 -1 -84.5 -34.5t-60.5 -103.5q-1 -6 -5 -5t-3 6q8 52 8 95q0 33 -2 48v4q0 9 9 9q8 0 29.5 -3t62.5 -3h158l161 2q9 0 9 -7q0 -5 -18 -33q-27 -41 -49 -80
l-199 -327q-3 -3 -3 -7q0 -6 10 -6l85 5q50 0 81 19.5t49.5 54t36.5 94.5q2 5 5.5 4.5t2.5 -6.5q-10 -71 -10 -113q0 -27 3 -60q0 -7 -2 -10t-8 -3q-7 0 -21 2z" />
    <glyph glyph-name="braceleft" unicode="{" horiz-adv-x="334" 
d="M146.5 -114q-48.5 38 -48.5 105q0 28 4 80q5 43 5 82q0 61 -17.5 98t-63.5 37q-9 0 -9 4t9 4q46 0 63.5 28.5t17.5 80.5q0 19 -5 101q-4 56 -4 75q0 64 50 109t177 45q13 0 13 -4q0 -5 -14 -5q-37 0 -50.5 -32t-13.5 -96q0 -27 4 -79q1 -13 2 -28.5t1 -31.5
q0 -78 -53 -113.5t-119 -42.5q-4 0 -4 -2.5t4 -2.5q107 -3 139.5 -45.5t32.5 -100.5q0 -37 -4 -93q-3 -36 -3 -68q0 -63 14 -98.5t50 -35.5q15 0 15 -5q0 -4 -14 -4q-130 0 -178.5 38z" />
    <glyph glyph-name="bar" unicode="|" horiz-adv-x="222" 
d="M103 718q0 11 8 11t8 -11l-1 -842q0 -6 -2.5 -9t-5.5 -3t-5.5 3t-2.5 9z" />
    <glyph glyph-name="braceright" unicode="}" horiz-adv-x="351" 
d="M198 697q48 -38 48 -105q0 -27 -4 -79t-4 -82q0 -62 17 -98.5t64 -36.5q9 0 9 -4q0 -5 -9 -5q-47 0 -64 -28t-17 -81q0 -35 4 -101q4 -56 4 -75q0 -63 -49.5 -108.5t-176.5 -45.5q-13 0 -13 4q0 5 13 5q38 0 51.5 32t13.5 96q0 26 -4 80q-4 44 -4 59q0 79 53 114t120 42
q3 1 3 3t-3 2q-107 3 -140 46t-33 101q0 36 4 92q4 48 4 68q0 63 -14 98.5t-51 35.5q-15 0 -15 5q0 4 15 4q130 0 178 -38z" />
    <glyph glyph-name="asciitilde" unicode="~" horiz-adv-x="339" 
d="M36 193q-3 0 -4 3t1 7q12 32 29 47.5t41 15.5q22 0 57 -16l39 -19q24 -11 39 -11q17 0 30.5 12t27.5 36q3 5 7 5q7 0 4 -9q-13 -32 -30 -47.5t-40 -15.5q-26 0 -60 18l-32 16q-30 14 -46 14q-17 0 -29.5 -12t-25.5 -38q-3 -6 -8 -6z" />
    <glyph glyph-name="uni00A0" unicode="&#xa0;" horiz-adv-x="250" 
 />
    <glyph glyph-name="exclamdown" unicode="&#xa1;" horiz-adv-x="327" 
d="M238.5 497q22.5 -16 22.5 -40q0 -31 -32.5 -53t-83.5 -23q-40 0 -64 16.5t-24 41.5q0 30 34.5 52t85.5 22q39 0 61.5 -16zM185 152q15 -62 39 -143q21 -72 29.5 -109t8.5 -69q0 -47 -102 -47q-101 0 -101 47q0 32 8.5 68.5t29.5 107.5q24 81 39 143.5t20 129.5q1 6 4.5 6
t4.5 -6q5 -66 20 -128z" />
    <glyph glyph-name="cent" unicode="&#xa2;" horiz-adv-x="494" 
d="M493 93.5q2 -2.5 -1 -5.5q-39 -50 -92.5 -76.5t-114.5 -29.5v-170q0 -6 -2.5 -9t-5.5 -3t-5.5 3t-2.5 9v170q-68 0 -125.5 30t-92 85t-34.5 127q0 64 33.5 122.5t92 95.5t127.5 41v171q0 11 8 11t8 -11v-171q50 0 96 -12t71.5 -30.5t20.5 -36.5l-75 -225q-1 -4 -6 -4
t-2 8q4 12 4 31q0 54 -33 122.5t-76 103.5l-1 -338q57 -43 117 -43q50 0 84 33q5 4 7 1.5zM185 230q32 -69 84 -115l1 337q-19 12 -39 12q-78 0 -78 -96q0 -69 32 -138z" />
    <glyph glyph-name="sterling" unicode="&#xa3;" horiz-adv-x="620" 
d="M600.5 155.5q3.5 -0.5 1.5 -5.5q-19 -64 -63.5 -116t-120.5 -52q-47 0 -81 11.5t-73 31.5q-30 15 -50 22.5t-44 7.5q-41 0 -90 -26q-21 -18 -34 -27q-21 -18 -34 -18q-9 0 -9 7t10.5 17.5t29.5 18.5q23 8 44 18q39 36 57.5 76.5t18.5 89.5q0 33 -11 60t-32 55h-113
q-6 0 -6 4t6 4h107l-17 22q-37 45 -55.5 80t-18.5 82q0 61 38.5 104.5t97.5 65.5t118 22q223 0 296 -124q5 -8 -1.5 -17t-36.5 -31q-77 -56 -97 -56q-7 0 -9 7q-14 58 -43.5 105t-67.5 73.5t-74 26.5q-43 0 -64 -20q-17 -17 -17 -58q0 -32 13 -57t40 -60q32 -41 48.5 -75
t16.5 -83v-7h180q7 0 7 -4t-7 -4h-181q-6 -57 -56.5 -132.5t-116.5 -138.5l33 15q72 34 123 52t101 18q31 0 56.5 -4.5t62.5 -13.5q42 -11 59 -11q18 0 30.5 9t21.5 30q3 6 6.5 5.5z" />
    <glyph glyph-name="currency" unicode="&#xa4;" horiz-adv-x="413" 
d="M381 165l-35 -34l-50 49q-44 -28 -101 -28q-46 0 -82 19l-41 -44l-17 19l41 37q-24 18 -37.5 45.5t-13.5 60.5q0 51 33 89l-46 42l35 34l46 -46q41 26 97 26q51 0 90 -22l41 42l16 -16l-42 -37q23 -18 35.5 -44.5t12.5 -58.5q0 -50 -32 -87zM265.5 188.5
q13.5 24.5 13.5 59.5q0 38 -12.5 79t-34.5 68t-47 27q-32 0 -45.5 -26t-13.5 -66q0 -38 12.5 -77t35 -64t50.5 -25t41.5 24.5z" />
    <glyph glyph-name="yen" unicode="&#xa5;" horiz-adv-x="703" 
d="M697 698.5q0 -4.5 -5 -4.5q-22 -1 -43 -27t-55 -92l-141 -280q-4 -7 -7 -19h166q9 0 9 -9q0 -3 -2.5 -6t-6.5 -3h-168v-8l1 -90h167q9 0 9 -8q0 -9 -9 -9h-167v-8q0 -67 20 -97.5t52 -31.5q7 0 6.5 -4.5t-6.5 -4.5q-45 3 -65 3h-193q-17 0 -65 -3q-6 0 -6.5 4.5t6.5 4.5
q32 1 52.5 31.5t19.5 97.5v8h-168q-5 0 -8 3t-3 6q0 4 3 6.5t8 2.5h168v88v10h-168q-5 0 -8 2.5t-3 6.5q0 3 3 5.5t8 2.5h165q-5 15 -7 19l-146 281q-35 66 -56 92t-43 27q-6 0 -5.5 4.5t5.5 4.5q18 -3 52 -3h207q50 0 78 3q8 0 8 -5q0 -4 -8 -4q-27 -1 -46 -15.5t-19 -42.5
q0 -25 18 -61l132 -264q5 -9 9 -9q5 0 10 10l132 262q17 34 17 61q0 28 -18.5 42.5t-45.5 15.5q-8 0 -8 4q0 5 8 5q54 -3 77 -3h26q13 0 52 3q5 0 5 -4.5z" />
    <glyph glyph-name="brokenbar" unicode="&#xa6;" horiz-adv-x="224" 
d="M105 614q1 36 1 76q0 10 8 10t8 -10q0 -195 -2 -322q0 -4 -2.5 -6t-5.5 -2t-5.5 2t-2.5 6zM119 -91q0 -9 -9 -9q-3 0 -6 2.5t-3 6.5q0 84 1 137l1 188q0 8 9 8q8 0 8 -8z" />
    <glyph glyph-name="section" unicode="&#xa7;" horiz-adv-x="577" 
d="M125 -110q-11 1 -14.5 17.5t-7.5 62.5q-7 80 -17 136v1q0 5 4 5t5 -4q20 -75 55.5 -132t62.5 -69q11 -4 20.5 -6.5t20.5 -2.5q28 0 45.5 20.5t17.5 48.5q0 34 -14.5 65t-45 66.5t-94.5 101.5q-77 84 -111.5 138.5t-34.5 111.5q0 70 36.5 130.5t105 97t159.5 36.5
q20 0 30 -1q13 -1 37 -1h20q7 0 18.5 0.5t28.5 -0.5q12 -1 16 -19t8 -66q8 -88 15 -131v-2q0 -4 -4 -3.5t-4 4.5q-19 80 -54 135t-63 66q-11 6 -20 7.5t-23 1.5q-26 0 -46 -18.5t-20 -53.5q0 -34 14 -62.5t43.5 -60.5t89.5 -87q51 -48 83.5 -85t52.5 -81.5t20 -96.5
q0 -69 -39.5 -131.5t-114.5 -101t-176 -38.5q-64 0 -105 1zM469.5 -8.5q32.5 36.5 32.5 85.5q0 36 -17.5 71.5t-54 79t-110.5 121.5q-89 93 -128.5 147t-39.5 98q0 46 37 80q-56 -20 -87.5 -54.5t-31.5 -78.5q0 -56 40.5 -114t131.5 -156q92 -95 132.5 -151.5t40.5 -105.5
q0 -24 -7.5 -46t-22.5 -36q52 23 84.5 59.5z" />
    <glyph glyph-name="dieresis" unicode="&#xa8;" horiz-adv-x="500" 
d="M89.5 559q-21.5 18 -21.5 43q1 30 24.5 50.5t61.5 20.5q29 0 50 -18t21 -43q0 -30 -23.5 -50.5t-60.5 -20.5q-30 0 -51.5 18zM269.5 558q-21.5 17 -21.5 42q0 31 23 52t62 21q30 0 50.5 -18t20.5 -43q0 -30 -23.5 -50.5t-60.5 -20.5q-29 0 -50.5 17z" />
    <glyph glyph-name="copyright" unicode="&#xa9;" horiz-adv-x="757" 
d="M188.5 33q-73.5 45 -115 124.5t-41.5 179.5q0 95 46.5 181t130.5 139t190 53q93 0 167.5 -45t116.5 -124t42 -176t-47 -184t-131.5 -140t-192.5 -53q-92 0 -165.5 45zM545 59.5q73 42.5 111.5 122t38.5 188.5q0 87 -40.5 158t-112 112t-160.5 41q-99 0 -171 -42
t-110.5 -119.5t-38.5 -182.5q0 -88 39 -161.5t109.5 -116t159.5 -42.5q102 0 175 42.5zM273.5 146.5q-53.5 27.5 -85 78t-31.5 116.5q0 62 33.5 117t90 88.5t123.5 33.5q66 0 116 -22.5t50 -57.5q0 -7 -3 -16l-58 -149q-2 -6 -4.5 -4t-2.5 12q0 58 -22 105.5t-57 74.5
t-72 27t-55 -19t-18 -64q0 -67 30.5 -130t81.5 -102.5t108 -39.5q54 0 91 26q4 3 5.5 0t-1.5 -5q-38 -49 -91 -73t-112 -24q-63 0 -116.5 27.5z" />
    <glyph glyph-name="ordfeminine" unicode="&#xaa;" horiz-adv-x="359" 
d="M42 474.5q-24 27.5 -24 64.5q0 29 25.5 45.5t70.5 16.5q39 0 64 -5l-12 52q-6 24 -23 36t-42 12q-30 0 -49 -16t-20 -53q0 -5 -4 -5t-4 5q0 48 36.5 69.5t88.5 21.5t78 -18.5t36 -63.5l24 -110q2 -13 7 -18.5t14 -5.5q12 0 19.5 18.5t6.5 44.5q0 3 3.5 3.5t3.5 -3.5
q0 -36 -11.5 -63t-29.5 -41t-37 -14q-50 0 -65 65l-2 8q-10 -36 -33 -54.5t-51 -18.5q-46 0 -70 27.5zM114 508.5q14 -17.5 37 -17.5q33 0 38 32q3 11 2 18l-10 45q-26 6 -39 6q-24 0 -33 -9t-9 -33t14 -41.5zM321 419q3 0 4.5 -1.5t1.5 -3.5q0 -6 -6 -6h-281q-3 0 -5 2
t-2 4t2 3.5t5 1.5h281z" />
    <glyph glyph-name="guillemotleft" unicode="&#xab;" horiz-adv-x="511" 
d="M304 520.5q1 -1.5 -4 -5.5l-204 -185l9 6q-6 -6 -6 -13t4 -12l173 -226q11 -14 11 -21t-8.5 -13t-31.5 -17q-48 -22 -64 -22q-9 0 -14 6l-136 190q-8 13 -8 21v41q0 8 12 17l253 232q3 3 6 3q7 0 8 -1.5zM506 520.5q1 -1.5 -4 -5.5l-204 -185l9 6q-6 -6 -6 -13t4 -12
l173 -226q11 -14 11 -21t-8.5 -13t-31.5 -17q-48 -22 -64 -22q-9 0 -14 6l-136 190q-8 13 -8 21v41q0 8 12 17l253 232q3 3 6 3q7 0 8 -1.5z" />
    <glyph glyph-name="logicalnot" unicode="&#xac;" horiz-adv-x="488" 
d="M46 232q-6 0 -10 3t-4 6q0 4 3.5 6.5t10.5 2.5h400q10 0 10 -11v-146q0 -6 -3 -10t-6 -4q-4 0 -6.5 3.5t-2.5 10.5v139h-392z" />
    <glyph glyph-name="uni00AD" unicode="&#xad;" horiz-adv-x="250" 
d="M26 258q-10 0 -10 5q0 4 10 4h211q11 0 11 -4q0 -5 -11 -5h-211z" />
    <glyph glyph-name="registered" unicode="&#xae;" horiz-adv-x="522" 
d="M135 263.5q-48 29.5 -75.5 82t-27.5 118.5q0 62 31 119t86.5 92t124.5 35q62 0 111 -29.5t77 -81.5t28 -116t-31 -121.5t-87.5 -92.5t-127.5 -35q-61 0 -109 29.5zM412.5 317q56.5 61 56.5 168q0 57 -26.5 103.5t-73.5 73t-106 26.5q-97 0 -152.5 -60.5t-55.5 -163.5
q0 -58 25.5 -105.5t71 -75t103.5 -27.5q101 0 157.5 61zM120.5 609.5q0.5 1.5 2.5 1.5q11 -1 23 -1l45 1q44 2 68 2q123 0 123 -76q0 -33 -20 -50t-61 -22q31 -3 45.5 -11.5t19.5 -30.5l7 -29q8 -47 31 -49q2 0 2 -1.5t-2 -1.5l-22 1h-70q-4 0 -6 1.5t-4 6.5l-15 64
q-6 26 -14.5 36.5t-20.5 12.5h-17q-2 0 -2 2t2 2q36 3 50.5 19t14.5 55q0 31 -14.5 48t-39.5 18q-17 0 -21.5 -2.5t-4.5 -12.5v-199q0 -47 27 -49q3 0 2.5 -1.5t-2.5 -1.5l-24 1h-81l-25 -1q-2 0 -2 1.5t2 1.5q28 2 28 49v165q0 27 -4.5 37t-17.5 11q-3 1 -2.5 2.5z" />
    <glyph glyph-name="macron" unicode="&#xaf;" horiz-adv-x="600" 
d="M179 596q-11 0 -11 7q0 2 3 4t8 2h271q10 0 10 -6q0 -7 -10 -7h-271z" />
    <glyph glyph-name="degree" unicode="&#xb0;" horiz-adv-x="312" 
d="M70.5 568q-31.5 24 -31.5 63q0 23 16 44.5t43.5 35t60.5 13.5q48 0 81.5 -24t33.5 -62q0 -24 -16.5 -46t-45.5 -35t-64 -13q-46 0 -77.5 24zM207 565.5q6 5.5 6 20.5q0 19 -14.5 49t-35 52t-37.5 22q-12 0 -18 -5.5t-6 -20.5q0 -20 14.5 -49.5t35 -51.5t37.5 -22
q12 0 18 5.5z" />
    <glyph glyph-name="plusminus" unicode="&#xb1;" horiz-adv-x="385" 
d="M187 242q0 3 -1 5.5t-4 2.5h-133q-6 0 -10 3t-4 6q0 4 3.5 6.5t10.5 2.5h132q4 0 5 3t1 8v131q0 7 3 11.5t6 4.5q9 0 9 -16v-131q0 -5 1 -8t4 -3h132q5 0 8 -3t3 -6q0 -9 -11 -9h-132q-3 0 -4 -2.5t-1 -5.5v-131q0 -13 -9 -13q-3 0 -6 3.5t-3 9.5v131zM46 22q-14 0 -14 5
q0 4 14 4h293q11 0 11 -5q0 -4 -11 -4h-293z" />
    <glyph glyph-name="acute" unicode="&#xb4;" horiz-adv-x="480" 
d="M14 514q-3 0 -4 3t3 6q42 26 57.5 54.5t23.5 63.5q6 21 11 30t17 11q42 6 72 6q44 0 44 -9q0 -21 -44.5 -59t-100 -70.5t-78.5 -35.5h-1z" />
    <glyph glyph-name="paragraph" unicode="&#xb6;" horiz-adv-x="607" 
d="M237 -156q39 0 56.5 16.5t22.5 48.5t5 95v281h-47q-61 0 -109 27.5t-75 75.5t-27 106q0 57 27 104t75 74.5t109 27.5h261v-568q0 -138 -79 -219.5t-252 -76.5q-4 0 -4 3t3 5.5t8 1.5q20 -2 26 -2zM403 27q0 -60 -24.5 -108t-75.5 -68q88 17 119 74.5t31 141.5v624h-50
v-664z" />
    <glyph glyph-name="periodcentered" unicode="&#xb7;" horiz-adv-x="268" 
d="M56 187q-24 16 -24 40q0 32 33.5 54t85.5 22q39 0 62 -16t23 -41q0 -30 -33.5 -52t-83.5 -23q-39 0 -63 16z" />
    <glyph glyph-name="cedilla" unicode="&#xb8;" horiz-adv-x="495" 
d="M90.5 -198.5q-30.5 11.5 -30.5 35.5q0 10 11.5 22.5t22.5 12.5q7 0 13 -5.5t15 -17.5q13 -19 27.5 -30.5t39.5 -11.5q27 0 42.5 9t16.5 27q-1 19 -32.5 34t-108.5 30l68 93h14q-21 -23 -34 -49q66 -14 92.5 -32t26.5 -50q0 -17 -14 -35.5t-39 -31t-56 -12.5
q-44 0 -74.5 11.5z" />
    <glyph glyph-name="ordmasculine" unicode="&#xba;" horiz-adv-x="336" 
d="M55.5 483.5q-39.5 36.5 -39.5 94.5q0 62 44.5 101t111.5 39q64 0 104.5 -36.5t40.5 -94.5q0 -62 -45.5 -101t-114.5 -39q-62 0 -101.5 36.5zM230.5 475q11.5 11 11.5 34q0 33 -17.5 79.5t-43 80t-49.5 33.5q-19 0 -30.5 -12t-11.5 -36q0 -33 17 -78.5t42.5 -78.5
t49.5 -33q20 0 31.5 11zM305 419q3 0 4.5 -1.5t1.5 -3.5q0 -6 -6 -6h-280q-3 0 -5 2t-2 4t2 3.5t5 1.5h280z" />
    <glyph glyph-name="guillemotright" unicode="&#xbb;" horiz-adv-x="482" 
d="M417 330q7 -7 9 -11.5t2 -12.5v-37q0 -8 -2.5 -13t-9.5 -10l-239 -232q-2 -2 -6 -2q-6 0 -7 1.5t3 5.5l192 185l-5 -4q7 6 7 13t-5 12l-170 189q-8 10 -8 15q0 14 45 35q37 17 52 17q10 0 15 -7zM230 330q7 -7 9 -11.5t2 -12.5v-37q0 -8 -2.5 -13t-9.5 -10l-239 -232
q-2 -2 -6 -2q-6 0 -7 1.5t3 5.5l192 185l-5 -4q7 6 7 13t-5 12l-170 189q-8 10 -8 15q0 14 45 35q37 17 52 17q10 0 15 -7z" />
    <glyph glyph-name="questiondown" unicode="&#xbf;" horiz-adv-x="549" 
d="M408.5 497q23.5 -16 23.5 -41q0 -31 -32 -53t-83 -23q-40 0 -64.5 16.5t-24.5 41.5q0 30 33.5 52t83.5 23q40 0 63.5 -16zM322.5 210.5q-13.5 -36.5 -41.5 -86.5q-24 -44 -36 -74t-12 -69q0 -155 123 -155q60 0 100 26t61 83q1 4 3.5 6t4.5 2t3 -2t-1 -6
q-27 -70 -97 -111.5t-155 -41.5q-65 0 -120.5 21.5t-89 64t-33.5 100.5q0 43 20.5 74t50.5 51.5t80 46.5q47 24 75.5 43t47.5 47t19 66q0 8 5 8q4 0 4 -7q2 -50 -11.5 -86.5z" />
    <glyph glyph-name="Agrave" unicode="&#xc0;" horiz-adv-x="753" 
d="M748 1.5q0 -4.5 -5 -4.5q-36 3 -47 3h-204q-25 0 -82 -3q-9 0 -9 5q0 4 8 4q31 1 51.5 17t20.5 49q0 24 -13 56l-36 87q-7 5 -12 5t-11 -3q-61 -26 -134 -42.5t-143 -20.5q-18 0 -24 -17v1l-4 -10q-12 -31 -12 -54q0 -34 22 -50.5t55 -17.5q9 0 9 -4q0 -5 -9 -5
q-63 3 -87 3h-25q-14 0 -47 -3q-5 0 -5 4.5t5 4.5q21 1 39.5 28t45.5 94l175 430q4 11 4 26q0 23 -9 41l-21 52q-6 16 -22 17q-4 1 -3 3.5t5 2.5h183q9 0 14 -2.5t8 -11.5l228 -558q27 -67 46 -94t40 -28q5 0 5 -4.5zM417.5 237q3.5 7 0.5 12h1l-133 326l-161 -396
q-1 -3 -1 -8q0 -8 10 -8q70 4 142.5 20t129.5 43q8 4 11.5 11zM315 764q-61 20 -110 46.5t-49 46.5q-1 10 25.5 15.5t59.5 5.5q38 0 41 -6q17 -38 41 -63t83 -56q3 -1 3 -4q0 -5 -8 -5q-25 0 -86 20z" />
    <glyph glyph-name="Aacute" unicode="&#xc1;" horiz-adv-x="753" 
d="M748 1.5q0 -4.5 -5 -4.5q-36 3 -47 3h-204q-25 0 -82 -3q-9 0 -9 5q0 4 8 4q31 1 51.5 17t20.5 49q0 24 -13 56l-36 87q-7 5 -12 5t-11 -3q-61 -26 -134 -42.5t-143 -20.5q-18 0 -24 -17v1l-4 -10q-12 -31 -12 -54q0 -34 22 -50.5t55 -17.5q9 0 9 -4q0 -5 -9 -5
q-63 3 -87 3h-25q-14 0 -47 -3q-5 0 -5 4.5t5 4.5q21 1 39.5 28t45.5 94l175 430q4 11 4 26q0 23 -9 41l-21 52q-6 16 -22 17q-4 1 -3 3.5t5 2.5h183q9 0 14 -2.5t8 -11.5l228 -558q27 -67 46 -94t40 -28q5 0 5 -4.5zM417.5 237q3.5 7 0.5 12h1l-133 326l-161 -396
q-1 -3 -1 -8q0 -8 10 -8q70 4 142.5 20t129.5 43q8 4 11.5 11zM280.5 747.5q-1.5 3.5 3.5 5.5q59 31 83 56t41 63q3 6 41 6q33 0 59.5 -5.5t25.5 -15.5q0 -20 -49 -46.5t-110 -46.5t-86 -20q-7 0 -8.5 3.5z" />
    <glyph glyph-name="Acircumflex" unicode="&#xc2;" horiz-adv-x="753" 
d="M748 1.5q0 -4.5 -5 -4.5q-36 3 -47 3h-204q-25 0 -82 -3q-9 0 -9 5q0 4 8 4q31 1 51.5 17t20.5 49q0 24 -13 56l-36 87q-7 5 -12 5t-11 -3q-61 -26 -134 -42.5t-143 -20.5q-18 0 -24 -17v1l-4 -10q-12 -31 -12 -54q0 -34 22 -50.5t55 -17.5q9 0 9 -4q0 -5 -9 -5
q-63 3 -87 3h-25q-14 0 -47 -3q-5 0 -5 4.5t5 4.5q21 1 39.5 28t45.5 94l175 430q4 11 4 26q0 23 -9 41l-21 52q-6 16 -22 17q-4 1 -3 3.5t5 2.5h183q9 0 14 -2.5t8 -11.5l228 -558q27 -67 46 -94t40 -28q5 0 5 -4.5zM417.5 237q3.5 7 0.5 12h1l-133 326l-161 -396
q-1 -3 -1 -8q0 -8 10 -8q70 4 142.5 20t129.5 43q8 4 11.5 11zM561 743q0 -5 -7 -5q-35 2 -88 23t-88 48q-34 -28 -88.5 -49t-90.5 -22q-5 0 -6 3.5t3 4.5q42 15 64 36t42 51q17 26 31.5 37.5t43.5 11.5q31 0 46.5 -12t33.5 -38q18 -28 39.5 -48.5t61.5 -37.5q3 -1 3 -3z
" />
    <glyph glyph-name="Atilde" unicode="&#xc3;" horiz-adv-x="753" 
d="M748 1.5q0 -4.5 -5 -4.5q-36 3 -47 3h-204q-25 0 -82 -3q-9 0 -9 5q0 4 8 4q31 1 51.5 17t20.5 49q0 24 -13 56l-36 87q-7 5 -12 5t-11 -3q-61 -26 -134 -42.5t-143 -20.5q-18 0 -24 -17v1l-4 -10q-12 -31 -12 -54q0 -34 22 -50.5t55 -17.5q9 0 9 -4q0 -5 -9 -5
q-63 3 -87 3h-25q-14 0 -47 -3q-5 0 -5 4.5t5 4.5q21 1 39.5 28t45.5 94l175 430q4 11 4 26q0 23 -9 41l-21 52q-6 16 -22 17q-4 1 -3 3.5t5 2.5h183q9 0 14 -2.5t8 -11.5l228 -558q27 -67 46 -94t40 -28q5 0 5 -4.5zM417.5 237q3.5 7 0.5 12h1l-133 326l-161 -396
q-1 -3 -1 -8q0 -8 10 -8q70 4 142.5 20t129.5 43q8 4 11.5 11zM193 733q-6 0 -3 9q18 59 49 88t76 29q28 0 64 -12l49 -16q38 -12 59 -12q42 0 67 39q3 4 7 4q6 0 3 -9q-19 -59 -50 -88t-77 -29q-26 0 -62 11l-54 18q-51 17 -78 17q-20 0 -28.5 -9.5t-15.5 -32.5
q-1 -7 -6 -7z" />
    <glyph glyph-name="Adieresis" unicode="&#xc4;" horiz-adv-x="753" 
d="M748 1.5q0 -4.5 -5 -4.5q-36 3 -47 3h-204q-25 0 -82 -3q-9 0 -9 5q0 4 8 4q31 1 51.5 17t20.5 49q0 24 -13 56l-36 87q-7 5 -12 5t-11 -3q-61 -26 -134 -42.5t-143 -20.5q-18 0 -24 -17v1l-4 -10q-12 -31 -12 -54q0 -34 22 -50.5t55 -17.5q9 0 9 -4q0 -5 -9 -5
q-63 3 -87 3h-25q-14 0 -47 -3q-5 0 -5 4.5t5 4.5q21 1 39.5 28t45.5 94l175 430q4 11 4 26q0 23 -9 41l-21 52q-6 16 -22 17q-4 1 -3 3.5t5 2.5h183q9 0 14 -2.5t8 -11.5l228 -558q27 -67 46 -94t40 -28q5 0 5 -4.5zM417.5 237q3.5 7 0.5 12h1l-133 326l-161 -396
q-1 -3 -1 -8q0 -8 10 -8q70 4 142.5 20t129.5 43q8 4 11.5 11zM230.5 769q-21.5 18 -21.5 43q1 30 24.5 50.5t61.5 20.5q29 0 50 -18t21 -43q0 -30 -23.5 -50.5t-60.5 -20.5q-30 0 -51.5 18zM410.5 768q-21.5 17 -21.5 42q0 31 23 52t62 21q30 0 50.5 -18t20.5 -43
q0 -30 -23.5 -50.5t-60.5 -20.5q-29 0 -50.5 17z" />
    <glyph glyph-name="Aring" unicode="&#xc5;" horiz-adv-x="753" 
d="M748 1.5q0 -4.5 -5 -4.5q-36 3 -47 3h-204q-25 0 -82 -3q-9 0 -9 5q0 4 8 4q31 1 51.5 17t20.5 49q0 24 -13 56l-36 87q-7 5 -12 5t-11 -3q-61 -26 -134 -42.5t-143 -20.5q-18 0 -24 -17v1l-4 -10q-12 -31 -12 -54q0 -34 22 -50.5t55 -17.5q9 0 9 -4q0 -5 -9 -5
q-63 3 -87 3h-25q-14 0 -47 -3q-5 0 -5 4.5t5 4.5q21 1 39.5 28t45.5 94l175 430q4 11 4 26q0 23 -9 41l-21 52q-6 16 -22 17q-4 1 -3 3.5t5 2.5h183q9 0 14 -2.5t8 -11.5l228 -558q27 -67 46 -94t40 -28q5 0 5 -4.5zM417.5 237q3.5 7 0.5 12h1l-133 326l-161 -396
q-1 -3 -1 -8q0 -8 10 -8q70 4 142.5 20t129.5 43q8 4 11.5 11zM295.5 753.5q-29.5 21.5 -29.5 56.5q0 20 15 39t41 31t57 12q44 0 75.5 -21t31.5 -55t-34 -59t-84 -25q-43 0 -72.5 21.5zM429 769q0 17 -14 43.5t-33 46.5t-35 20q-22 0 -22 -23q0 -18 13.5 -44.5t32.5 -46
t35 -19.5q23 0 23 23z" />
    <glyph glyph-name="AE" unicode="&#xc6;" horiz-adv-x="1044" 
d="M1026.5 287q3.5 -2 1.5 -7q-19 -130 -21 -267q0 -15 -6 -21.5t-18 -6.5q-13 0 -32 4q-80 11 -164 11h-310q-19 0 -64 -3q-6 0 -6.5 4.5t6.5 4.5q32 1 52 31.5t20 97.5v110q-3 5 -10 5q-4 0 -14 -4q-89 -40 -187 -40q-26 0 -53 3q-18 2 -32 -15l-49 -74q-24 -37 -24 -63
q0 -25 18 -37.5t44 -13.5q8 0 8 -4q0 -5 -8 -5q-57 3 -78 3h-28q-16 0 -61 -3q-5 0 -5.5 4.5t5.5 4.5q27 1 52 26t66 88l320 483q17 27 17 48q0 8 -1 11q-10 18 -25 25q-1 1 -3 1q-11 6 -24 6q-7 0 -7 4q0 2 2 3.5t5 1.5q45 -3 64 -3h298q47 0 78 3t72 8q30 4 34 4
q11 0 16.5 -6.5t6.5 -21.5q4 -105 23 -272q1 -4 -2 -5t-5 3q-29 84 -52 128t-50 75q-39 44 -87.5 59.5t-113.5 15.5q-32 0 -32 -43v-243q0 -12 5 -21t16 -9q32 0 56 2q31 4 54.5 31t42.5 89q2 6 5.5 6t2.5 -6q-6 -42 -6 -106q0 -97 11 -158v-1q0 -4 -3 -4t-5 5
q-21 64 -46.5 95.5t-55.5 35.5q-24 2 -56 2q-11 0 -16 -9t-5 -21v-268q0 -31 8 -45t27 -14q67 0 125.5 20.5t100.5 62.5q64 63 97 189q2 8 5.5 6zM485 282v175q-3 102 -12 155q-1 3 -3.5 3t-4.5 -3l-252 -382q-1 -1 -1 -4q0 -6 12 -8q27 -3 53 -3q96 0 183 40q20 9 25 27z
" />
    <glyph glyph-name="Ccedilla" unicode="&#xc7;" horiz-adv-x="713" 
d="M702.5 147.5q2.5 -2.5 -1.5 -7.5q-64 -77 -143.5 -117.5t-169.5 -40.5q-15 0 -41 2q-12 -15 -21 -33q66 -14 92.5 -32t26.5 -50q0 -17 -14 -35.5t-39 -31t-56 -12.5q-44 0 -74.5 11.5t-30.5 35.5q0 10 11.5 22.5t22.5 12.5q7 0 13 -5.5t15 -17.5q13 -19 27.5 -30.5
t39.5 -11.5q27 0 42.5 9t16.5 27q-1 19 -32.5 34t-108.5 30l57 79q-84 11 -153 57.5t-109.5 122t-40.5 171.5q0 104 53.5 191.5t143.5 138t195 50.5q67 0 128.5 -17t99.5 -44t38 -53q0 -4 -2 -10l-133 -319q-2 -5 -6 -4t-2 6q19 50 19 105q0 45 -12.5 89.5t-34.5 82.5
q-33 61 -83 96.5t-101 35.5q-142 0 -142 -145q0 -117 47 -222.5t123.5 -169.5t161.5 -64q41 0 87.5 13.5t82.5 47.5q5 5 7.5 2.5z" />
    <glyph glyph-name="Egrave" unicode="&#xc8;" horiz-adv-x="667" 
d="M36 -3q-6 0 -6.5 4.5t6.5 4.5q32 1 52 31.5t20 97.5v430q0 67 -20 97.5t-52 31.5q-7 0 -7 4q0 2 2 3.5t5 1.5q45 -3 64 -3h298q47 0 78 3t72 8q30 4 34 4q11 0 16.5 -6.5t6.5 -21.5q4 -105 23 -272q1 -4 -2 -5t-5 3q-29 84 -52 128t-50 75q-39 44 -87.5 59.5t-113.5 15.5
q-32 0 -32 -43v-243q0 -12 5 -21t16 -9q32 0 56 2q31 4 54.5 31t42.5 89q2 6 5.5 6t2.5 -6q-6 -42 -6 -106q0 -97 11 -158v-1q0 -4 -3 -4t-5 5q-21 64 -46.5 95.5t-55.5 35.5q-24 2 -56 2q-11 0 -16 -9t-5 -21v-268q0 -31 8 -45t27 -14q67 0 125.5 20.5t100.5 62.5
q64 63 97 189q2 8 5.5 6t1.5 -7q-19 -130 -21 -267q0 -15 -6 -21.5t-18 -6.5q-13 0 -32 4q-80 11 -164 11h-310q-19 0 -64 -3zM272 764q-61 20 -110 46.5t-49 46.5q-1 10 25.5 15.5t59.5 5.5q38 0 41 -6q17 -38 41 -63t83 -56q3 -1 3 -4q0 -5 -8 -5q-25 0 -86 20z" />
    <glyph glyph-name="Eacute" unicode="&#xc9;" horiz-adv-x="667" 
d="M36 -3q-6 0 -6.5 4.5t6.5 4.5q32 1 52 31.5t20 97.5v430q0 67 -20 97.5t-52 31.5q-7 0 -7 4q0 2 2 3.5t5 1.5q45 -3 64 -3h298q47 0 78 3t72 8q30 4 34 4q11 0 16.5 -6.5t6.5 -21.5q4 -105 23 -272q1 -4 -2 -5t-5 3q-29 84 -52 128t-50 75q-39 44 -87.5 59.5t-113.5 15.5
q-32 0 -32 -43v-243q0 -12 5 -21t16 -9q32 0 56 2q31 4 54.5 31t42.5 89q2 6 5.5 6t2.5 -6q-6 -42 -6 -106q0 -97 11 -158v-1q0 -4 -3 -4t-5 5q-21 64 -46.5 95.5t-55.5 35.5q-24 2 -56 2q-11 0 -16 -9t-5 -21v-268q0 -31 8 -45t27 -14q67 0 125.5 20.5t100.5 62.5
q64 63 97 189q2 8 5.5 6t1.5 -7q-19 -130 -21 -267q0 -15 -6 -21.5t-18 -6.5q-13 0 -32 4q-80 11 -164 11h-310q-19 0 -64 -3zM237.5 747.5q-1.5 3.5 3.5 5.5q59 31 83 56t41 63q3 6 41 6q33 0 59.5 -5.5t25.5 -15.5q0 -20 -49 -46.5t-110 -46.5t-86 -20q-7 0 -8.5 3.5z" />
    <glyph glyph-name="Ecircumflex" unicode="&#xca;" horiz-adv-x="667" 
d="M36 -3q-6 0 -6.5 4.5t6.5 4.5q32 1 52 31.5t20 97.5v430q0 67 -20 97.5t-52 31.5q-7 0 -7 4q0 2 2 3.5t5 1.5q45 -3 64 -3h298q47 0 78 3t72 8q30 4 34 4q11 0 16.5 -6.5t6.5 -21.5q4 -105 23 -272q1 -4 -2 -5t-5 3q-29 84 -52 128t-50 75q-39 44 -87.5 59.5t-113.5 15.5
q-32 0 -32 -43v-243q0 -12 5 -21t16 -9q32 0 56 2q31 4 54.5 31t42.5 89q2 6 5.5 6t2.5 -6q-6 -42 -6 -106q0 -97 11 -158v-1q0 -4 -3 -4t-5 5q-21 64 -46.5 95.5t-55.5 35.5q-24 2 -56 2q-11 0 -16 -9t-5 -21v-268q0 -31 8 -45t27 -14q67 0 125.5 20.5t100.5 62.5
q64 63 97 189q2 8 5.5 6t1.5 -7q-19 -130 -21 -267q0 -15 -6 -21.5t-18 -6.5q-13 0 -32 4q-80 11 -164 11h-310q-19 0 -64 -3zM519 743q0 -5 -7 -5q-35 2 -88 23t-88 48q-34 -28 -88.5 -49t-90.5 -22q-5 0 -6 3.5t3 4.5q42 15 64 36t42 51q17 26 31.5 37.5t43.5 11.5
q31 0 46.5 -12t33.5 -38q18 -28 39.5 -48.5t61.5 -37.5q3 -1 3 -3z" />
    <glyph glyph-name="Edieresis" unicode="&#xcb;" horiz-adv-x="667" 
d="M36 -3q-6 0 -6.5 4.5t6.5 4.5q32 1 52 31.5t20 97.5v430q0 67 -20 97.5t-52 31.5q-7 0 -7 4q0 2 2 3.5t5 1.5q45 -3 64 -3h298q47 0 78 3t72 8q30 4 34 4q11 0 16.5 -6.5t6.5 -21.5q4 -105 23 -272q1 -4 -2 -5t-5 3q-29 84 -52 128t-50 75q-39 44 -87.5 59.5t-113.5 15.5
q-32 0 -32 -43v-243q0 -12 5 -21t16 -9q32 0 56 2q31 4 54.5 31t42.5 89q2 6 5.5 6t2.5 -6q-6 -42 -6 -106q0 -97 11 -158v-1q0 -4 -3 -4t-5 5q-21 64 -46.5 95.5t-55.5 35.5q-24 2 -56 2q-11 0 -16 -9t-5 -21v-268q0 -31 8 -45t27 -14q67 0 125.5 20.5t100.5 62.5
q64 63 97 189q2 8 5.5 6t1.5 -7q-19 -130 -21 -267q0 -15 -6 -21.5t-18 -6.5q-13 0 -32 4q-80 11 -164 11h-310q-19 0 -64 -3zM187.5 769q-21.5 18 -21.5 43q1 30 24.5 50.5t61.5 20.5q29 0 50 -18t21 -43q0 -30 -23.5 -50.5t-60.5 -20.5q-30 0 -51.5 18zM367.5 768
q-21.5 17 -21.5 42q0 31 23 52t62 21q30 0 50.5 -18t20.5 -43q0 -30 -23.5 -50.5t-60.5 -20.5q-29 0 -50.5 17z" />
    <glyph glyph-name="Igrave" unicode="&#xcc;" horiz-adv-x="395" 
d="M88 662.5q-20 30.5 -52 31.5q-7 0 -7 4q0 2 2 3.5t5 1.5q45 -3 64 -3h194q17 0 65 3q6 0 6.5 -4.5t-6.5 -4.5q-32 -1 -52.5 -31.5t-20.5 -97.5v-430q0 -67 20.5 -97.5t52.5 -31.5q7 0 6.5 -4.5t-6.5 -4.5q-48 3 -65 3h-194q-19 0 -64 -3q-6 0 -6.5 4.5t6.5 4.5
q32 1 52 31.5t20 97.5v430q0 67 -20 97.5zM139 764q-61 20 -110 46.5t-49 46.5q-1 10 25.5 15.5t59.5 5.5q38 0 41 -6q17 -38 41 -63t83 -56q3 -1 3 -4q0 -5 -8 -5q-25 0 -86 20z" />
    <glyph glyph-name="Iacute" unicode="&#xcd;" horiz-adv-x="395" 
d="M88 662.5q-20 30.5 -52 31.5q-7 0 -7 4q0 2 2 3.5t5 1.5q45 -3 64 -3h194q17 0 65 3q6 0 6.5 -4.5t-6.5 -4.5q-32 -1 -52.5 -31.5t-20.5 -97.5v-430q0 -67 20.5 -97.5t52.5 -31.5q7 0 6.5 -4.5t-6.5 -4.5q-48 3 -65 3h-194q-19 0 -64 -3q-6 0 -6.5 4.5t6.5 4.5
q32 1 52 31.5t20 97.5v430q0 67 -20 97.5zM105.5 747.5q-1.5 3.5 3.5 5.5q59 31 83 56t41 63q3 6 41 6q33 0 59.5 -5.5t25.5 -15.5q0 -20 -49 -46.5t-110 -46.5t-86 -20q-7 0 -8.5 3.5z" />
    <glyph glyph-name="Icircumflex" unicode="&#xce;" horiz-adv-x="395" 
d="M88 662.5q-20 30.5 -52 31.5q-7 0 -7 4q0 2 2 3.5t5 1.5q45 -3 64 -3h194q17 0 65 3q6 0 6.5 -4.5t-6.5 -4.5q-32 -1 -52.5 -31.5t-20.5 -97.5v-430q0 -67 20.5 -97.5t52.5 -31.5q7 0 6.5 -4.5t-6.5 -4.5q-48 3 -65 3h-194q-19 0 -64 -3q-6 0 -6.5 4.5t6.5 4.5
q32 1 52 31.5t20 97.5v430q0 67 -20 97.5zM386 743q0 -5 -7 -5q-35 2 -88 23t-88 48q-34 -28 -88.5 -49t-90.5 -22q-5 0 -6 3.5t3 4.5q42 15 64 36t42 51q17 26 31.5 37.5t43.5 11.5q31 0 46.5 -12t33.5 -38q18 -28 39.5 -48.5t61.5 -37.5q3 -1 3 -3z" />
    <glyph glyph-name="Idieresis" unicode="&#xcf;" horiz-adv-x="395" 
d="M88 662.5q-20 30.5 -52 31.5q-7 0 -7 4q0 2 2 3.5t5 1.5q45 -3 64 -3h194q17 0 65 3q6 0 6.5 -4.5t-6.5 -4.5q-32 -1 -52.5 -31.5t-20.5 -97.5v-430q0 -67 20.5 -97.5t52.5 -31.5q7 0 6.5 -4.5t-6.5 -4.5q-48 3 -65 3h-194q-19 0 -64 -3q-6 0 -6.5 4.5t6.5 4.5
q32 1 52 31.5t20 97.5v430q0 67 -20 97.5zM55.5 769q-21.5 18 -21.5 43q1 30 24.5 50.5t61.5 20.5q29 0 50 -18t21 -43q0 -30 -23.5 -50.5t-60.5 -20.5q-30 0 -51.5 18zM235.5 768q-21.5 17 -21.5 42q0 31 23 52t62 21q30 0 50.5 -18t20.5 -43q0 -30 -23.5 -50.5
t-60.5 -20.5q-29 0 -50.5 17z" />
    <glyph glyph-name="Eth" unicode="&#xd0;" horiz-adv-x="782" 
d="M579 659q91 -49 131 -128.5t40 -176.5q0 -102 -47.5 -184.5t-134.5 -130t-202 -47.5q-52 0 -148 4q-84 4 -118 4l-64 -3q-7 0 -7 5q0 4 7 4q32 1 52 31.5t20 96.5v212h-60q-5 0 -5 5.5t5 5.5h60v208q0 67 -20 97.5t-52 31.5q-7 0 -7 4t5 4l66 -2q28 0 126 4q94 4 119 4
q143 0 234 -49zM534 510q-27 84 -82.5 136t-137.5 52q-28 0 -28 -38v-303h176q7 0 7 -5q0 -6 -7 -6h-176v-303q0 -24 11 -33t39 -9q76 0 126.5 44.5t74.5 119t24 165.5q0 96 -27 180z" />
    <glyph glyph-name="Ntilde" unicode="&#xd1;" horiz-adv-x="776" 
d="M760.5 698.5q0.5 -4.5 -6.5 -4.5q-32 -1 -52 -31.5t-20 -97.5v-571q0 -7 -6 -7t-11 6l-516 617q-4 4 -7 4q-5 0 -5 -7v-473q0 -67 20.5 -97.5t52.5 -31.5q7 0 6.5 -4.5t-6.5 -4.5q-24 3 -65 3h-27q-41 0 -65 -3q-6 0 -6.5 4.5t6.5 4.5q32 1 52.5 31.5t20.5 97.5v505
q-27 29 -46.5 42t-39.5 14q-7 0 -6.5 4.5t6.5 4.5q23 -3 64 -3l167 -1q28 0 42 -16l345 -427q5 -5 9 -5t4 7l-1 306q0 67 -20 97.5t-52 31.5q-7 0 -7 4q0 2 2 3.5t5 1.5q45 -3 64 -3h28q19 0 64 3q6 0 6.5 -4.5zM171 588l-34 39zM242 733q-6 0 -3 9q18 59 49 88t76 29
q28 0 64 -12l49 -16q38 -12 59 -12q42 0 67 39q3 4 7 4q6 0 3 -9q-19 -59 -50 -88t-77 -29q-26 0 -62 11l-54 18q-51 17 -78 17q-20 0 -28.5 -9.5t-15.5 -32.5q-1 -7 -6 -7z" />
    <glyph glyph-name="Ograve" unicode="&#xd2;" horiz-adv-x="850" 
d="M208.5 27.5q-83.5 45.5 -130 126.5t-46.5 183q0 105 53.5 192t147 137.5t209.5 50.5q109 0 194.5 -45.5t133.5 -126t48 -181.5q0 -105 -54.5 -192.5t-150.5 -138.5t-214 -51q-107 0 -190.5 45.5zM621 56q36 39 36 111q0 111 -48 232.5t-125 202.5t-158 81
q-63 0 -98.5 -37.5t-35.5 -108.5q0 -110 47.5 -232.5t123.5 -205t156 -82.5q66 0 102 39zM364 764q-61 20 -110 46.5t-49 46.5q-1 10 25.5 15.5t59.5 5.5q38 0 41 -6q17 -38 41 -63t83 -56q3 -1 3 -4q0 -5 -8 -5q-25 0 -86 20z" />
    <glyph glyph-name="Oacute" unicode="&#xd3;" horiz-adv-x="850" 
d="M208.5 27.5q-83.5 45.5 -130 126.5t-46.5 183q0 105 53.5 192t147 137.5t209.5 50.5q109 0 194.5 -45.5t133.5 -126t48 -181.5q0 -105 -54.5 -192.5t-150.5 -138.5t-214 -51q-107 0 -190.5 45.5zM621 56q36 39 36 111q0 111 -48 232.5t-125 202.5t-158 81
q-63 0 -98.5 -37.5t-35.5 -108.5q0 -110 47.5 -232.5t123.5 -205t156 -82.5q66 0 102 39zM329.5 747.5q-1.5 3.5 3.5 5.5q59 31 83 56t41 63q3 6 41 6q33 0 59.5 -5.5t25.5 -15.5q0 -20 -49 -46.5t-110 -46.5t-86 -20q-7 0 -8.5 3.5z" />
    <glyph glyph-name="Ocircumflex" unicode="&#xd4;" horiz-adv-x="850" 
d="M208.5 27.5q-83.5 45.5 -130 126.5t-46.5 183q0 105 53.5 192t147 137.5t209.5 50.5q109 0 194.5 -45.5t133.5 -126t48 -181.5q0 -105 -54.5 -192.5t-150.5 -138.5t-214 -51q-107 0 -190.5 45.5zM621 56q36 39 36 111q0 111 -48 232.5t-125 202.5t-158 81
q-63 0 -98.5 -37.5t-35.5 -108.5q0 -110 47.5 -232.5t123.5 -205t156 -82.5q66 0 102 39zM610 743q0 -5 -7 -5q-35 2 -88 23t-88 48q-34 -28 -88.5 -49t-90.5 -22q-5 0 -6 3.5t3 4.5q42 15 64 36t42 51q17 26 31.5 37.5t43.5 11.5q31 0 46.5 -12t33.5 -38q18 -28 39.5 -48.5
t61.5 -37.5q3 -1 3 -3z" />
    <glyph glyph-name="Otilde" unicode="&#xd5;" horiz-adv-x="850" 
d="M208.5 27.5q-83.5 45.5 -130 126.5t-46.5 183q0 105 53.5 192t147 137.5t209.5 50.5q109 0 194.5 -45.5t133.5 -126t48 -181.5q0 -105 -54.5 -192.5t-150.5 -138.5t-214 -51q-107 0 -190.5 45.5zM621 56q36 39 36 111q0 111 -48 232.5t-125 202.5t-158 81
q-63 0 -98.5 -37.5t-35.5 -108.5q0 -110 47.5 -232.5t123.5 -205t156 -82.5q66 0 102 39zM242 733q-6 0 -3 9q18 59 49 88t76 29q28 0 64 -12l49 -16q38 -12 59 -12q42 0 67 39q3 4 7 4q6 0 3 -9q-19 -59 -50 -88t-77 -29q-26 0 -62 11l-54 18q-51 17 -78 17
q-20 0 -28.5 -9.5t-15.5 -32.5q-1 -7 -6 -7z" />
    <glyph glyph-name="Odieresis" unicode="&#xd6;" horiz-adv-x="850" 
d="M208.5 27.5q-83.5 45.5 -130 126.5t-46.5 183q0 105 53.5 192t147 137.5t209.5 50.5q109 0 194.5 -45.5t133.5 -126t48 -181.5q0 -105 -54.5 -192.5t-150.5 -138.5t-214 -51q-107 0 -190.5 45.5zM621 56q36 39 36 111q0 111 -48 232.5t-125 202.5t-158 81
q-63 0 -98.5 -37.5t-35.5 -108.5q0 -110 47.5 -232.5t123.5 -205t156 -82.5q66 0 102 39zM279.5 769q-21.5 18 -21.5 43q1 30 24.5 50.5t61.5 20.5q29 0 50 -18t21 -43q0 -30 -23.5 -50.5t-60.5 -20.5q-30 0 -51.5 18zM459.5 768q-21.5 17 -21.5 42q0 31 23 52t62 21
q30 0 50.5 -18t20.5 -43q0 -30 -23.5 -50.5t-60.5 -20.5q-29 0 -50.5 17z" />
    <glyph glyph-name="multiply" unicode="&#xd7;" horiz-adv-x="304" 
d="M134 235q3 3 3.5 5t-2.5 5l-95 95q-8 8 -8 14q0 7 7 7q6 0 13 -7l96 -96l4 -2q3 0 8 5l92 93q6 6 13 6t7 -7q0 -5 -7 -12l-94 -94q-6 -6 -3 -10l95 -94q5 -5 5 -9q0 -3 -2.5 -5.5t-6.5 -2.5q-5 0 -9 4l-95 94q-2 2 -4.5 1.5t-4.5 -3.5l-92 -92q-5 -5 -10 -5q-8 0 -8 8
q0 5 5 10z" />
    <glyph glyph-name="Oslash" unicode="&#xd8;" horiz-adv-x="850" 
d="M641 669q83 -45 130 -125t47 -180q0 -105 -54.5 -192.5t-150.5 -138.5t-214 -51q-102 0 -183 42l-60 -91q-1 -3 -5 -3q-3 0 -4 3t2 7l58 88q-82 46 -128.5 126.5t-46.5 182.5q0 105 53.5 192t147 137.5t209.5 50.5q107 0 190 -43l59 89q4 5 8 5q2 0 2.5 -3t-2.5 -7z
M222.5 353q30.5 -97 81.5 -177l235 357q-46 69 -101.5 109.5t-111.5 40.5q-63 0 -98.5 -37.5t-35.5 -108.5q0 -87 30.5 -184zM621 56q36 39 36 111q0 87 -30.5 183t-81.5 174l-235 -357q46 -69 100 -109.5t109 -40.5q66 0 102 39z" />
    <glyph glyph-name="Ugrave" unicode="&#xd9;" horiz-adv-x="773" 
d="M250 17.5q-70 35.5 -107.5 102t-37.5 156.5v289q0 67 -19 97.5t-50 31.5q-6 0 -5.5 4.5t5.5 4.5q45 -3 61 -3h196q23 0 77 3q8 0 8 -5q0 -4 -8 -4q-39 -1 -63 -31.5t-24 -97.5v-298q0 -101 53.5 -160t147.5 -59q57 0 101 29t68 82t24 121l-1 285q0 67 -24.5 97.5
t-63.5 31.5q-8 0 -8 4q0 5 8 5q57 -3 78 -3h25q15 0 51 3q5 0 5.5 -4.5t-4.5 -4.5q-26 -1 -42 -31.5t-16 -97.5v-282q0 -141 -71.5 -221t-198.5 -80q-95 0 -165 35.5zM381 764q-61 20 -110 46.5t-49 46.5q-1 10 25.5 15.5t59.5 5.5q38 0 41 -6q17 -38 41 -63t83 -56
q3 -1 3 -4q0 -5 -8 -5q-25 0 -86 20z" />
    <glyph glyph-name="Uacute" unicode="&#xda;" horiz-adv-x="773" 
d="M250 17.5q-70 35.5 -107.5 102t-37.5 156.5v289q0 67 -19 97.5t-50 31.5q-6 0 -5.5 4.5t5.5 4.5q45 -3 61 -3h196q23 0 77 3q8 0 8 -5q0 -4 -8 -4q-39 -1 -63 -31.5t-24 -97.5v-298q0 -101 53.5 -160t147.5 -59q57 0 101 29t68 82t24 121l-1 285q0 67 -24.5 97.5
t-63.5 31.5q-8 0 -8 4q0 5 8 5q57 -3 78 -3h25q15 0 51 3q5 0 5.5 -4.5t-4.5 -4.5q-26 -1 -42 -31.5t-16 -97.5v-282q0 -141 -71.5 -221t-198.5 -80q-95 0 -165 35.5zM347.5 747.5q-1.5 3.5 3.5 5.5q59 31 83 56t41 63q3 6 41 6q33 0 59.5 -5.5t25.5 -15.5q0 -20 -49 -46.5
t-110 -46.5t-86 -20q-7 0 -8.5 3.5z" />
    <glyph glyph-name="Ucircumflex" unicode="&#xdb;" horiz-adv-x="773" 
d="M250 17.5q-70 35.5 -107.5 102t-37.5 156.5v289q0 67 -19 97.5t-50 31.5q-6 0 -5.5 4.5t5.5 4.5q45 -3 61 -3h196q23 0 77 3q8 0 8 -5q0 -4 -8 -4q-39 -1 -63 -31.5t-24 -97.5v-298q0 -101 53.5 -160t147.5 -59q57 0 101 29t68 82t24 121l-1 285q0 67 -24.5 97.5
t-63.5 31.5q-8 0 -8 4q0 5 8 5q57 -3 78 -3h25q15 0 51 3q5 0 5.5 -4.5t-4.5 -4.5q-26 -1 -42 -31.5t-16 -97.5v-282q0 -141 -71.5 -221t-198.5 -80q-95 0 -165 35.5zM628 743q0 -5 -7 -5q-35 2 -88 23t-88 48q-34 -28 -88.5 -49t-90.5 -22q-5 0 -6 3.5t3 4.5q42 15 64 36
t42 51q17 26 31.5 37.5t43.5 11.5q31 0 46.5 -12t33.5 -38q18 -28 39.5 -48.5t61.5 -37.5q3 -1 3 -3z" />
    <glyph glyph-name="Udieresis" unicode="&#xdc;" horiz-adv-x="773" 
d="M250 17.5q-70 35.5 -107.5 102t-37.5 156.5v289q0 67 -19 97.5t-50 31.5q-6 0 -5.5 4.5t5.5 4.5q45 -3 61 -3h196q23 0 77 3q8 0 8 -5q0 -4 -8 -4q-39 -1 -63 -31.5t-24 -97.5v-298q0 -101 53.5 -160t147.5 -59q57 0 101 29t68 82t24 121l-1 285q0 67 -24.5 97.5
t-63.5 31.5q-8 0 -8 4q0 5 8 5q57 -3 78 -3h25q15 0 51 3q5 0 5.5 -4.5t-4.5 -4.5q-26 -1 -42 -31.5t-16 -97.5v-282q0 -141 -71.5 -221t-198.5 -80q-95 0 -165 35.5zM297.5 769q-21.5 18 -21.5 43q1 30 24.5 50.5t61.5 20.5q29 0 50 -18t21 -43q0 -30 -23.5 -50.5
t-60.5 -20.5q-30 0 -51.5 18zM477.5 768q-21.5 17 -21.5 42q0 31 23 52t62 21q30 0 50.5 -18t20.5 -43q0 -30 -23.5 -50.5t-60.5 -20.5q-29 0 -50.5 17z" />
    <glyph glyph-name="Yacute" unicode="&#xdd;" horiz-adv-x="703" 
d="M194 -3q-6 0 -6.5 4.5t6.5 4.5q32 1 52.5 31.5t19.5 97.5v114q0 26 -10 46l-146 281q-35 66 -56 92t-43 27q-6 0 -5.5 4.5t5.5 4.5q18 -3 52 -3h207q50 0 78 3q8 0 8 -5q0 -4 -8 -4q-27 -1 -46 -15.5t-19 -42.5q0 -25 18 -61l132 -264q5 -9 9 -9q5 0 10 10l132 262
q17 34 17 61q0 28 -18.5 42.5t-45.5 15.5q-8 0 -8 4q0 5 8 5q54 -3 77 -3h26q13 0 52 3q5 0 5 -4.5t-5 -4.5q-22 -1 -43 -27t-55 -92l-141 -280q-9 -17 -9 -45l1 -115q0 -67 20 -97.5t52 -31.5q7 0 6.5 -4.5t-6.5 -4.5q-45 3 -65 3h-193q-17 0 -65 -3zM250.5 747.5
q-1.5 3.5 3.5 5.5q59 31 83 56t41 63q3 6 41 6q33 0 59.5 -5.5t25.5 -15.5q0 -20 -49 -46.5t-110 -46.5t-86 -20q-7 0 -8.5 3.5z" />
    <glyph glyph-name="Thorn" unicode="&#xde;" horiz-adv-x="695" 
d="M605 504q74 -53 74 -156q0 -96 -68.5 -150.5t-198.5 -54.5q-22 0 -33 1l-59 3q-4 0 -4 3.5t5 4.5h29q60 5 98 51.5t38 119.5q0 53 -14.5 104t-44.5 84.5t-74 33.5h-33q-19 1 -26.5 -8.5t-7.5 -30.5v-374q0 -67 20.5 -97.5t52.5 -31.5q7 0 6.5 -4.5t-6.5 -4.5q-48 3 -65 3
h-194q-19 0 -64 -3q-6 0 -6.5 4.5t6.5 4.5q32 1 52 31.5t20 97.5v430q0 67 -20 97.5t-52 31.5q-7 0 -7 4q0 2 2 3.5t5 1.5q45 -3 64 -3h194q17 0 65 3q6 0 6.5 -4.5t-6.5 -4.5q-30 -1 -50 -28t-23 -86l2 1q0 -14 6.5 -19t22.5 -5h58q156 0 230 -53z" />
    <glyph glyph-name="germandbls" unicode="&#xdf;" horiz-adv-x="669" 
d="M74 1l-38 -1q-10 -1 -27 -1q-5 0 -5 4.5t5 4.5q36 0 51.5 28t15.5 97v360q0 104 63.5 164.5t193.5 60.5q62 0 111 -21t76.5 -58t27.5 -84q0 -45 -39 -83.5t-108 -52.5q-7 -1 -6 -3.5t7 -2.5q9 1 25 1q71 0 121 -30.5t74.5 -76t24.5 -90.5q0 -78 -33.5 -131t-85.5 -78
t-109 -25q-45 0 -74 15.5t-43 37t-15 38.5q-2 7 2 7q2 0 5 -6q10 -30 36.5 -49t60.5 -19q39 0 60.5 27.5t21.5 85.5q0 94 -21.5 157.5t-58 94t-80.5 30.5q-11 0 -11 3t10 4q52 7 73.5 47t21.5 99q0 82 -29 115.5t-73 33.5q-35 0 -50.5 -27t-15.5 -86v-556v-35z" />
    <glyph glyph-name="agrave" unicode="&#xe0;" horiz-adv-x="600" 
d="M611.5 207.5q4.5 0.5 4.5 -6.5q0 -67 -22 -116.5t-58 -75.5t-76 -26q-36 0 -64 30.5t-41 88.5l-3 14q-19 -65 -62 -99t-95 -34q-58 0 -98 25t-59 65t-17 84q1 51 49.5 80t128.5 29q67 0 120 -11l-24 99q-11 47 -36 70t-69 23q-59 0 -98 -31t-47 -102q-2 -8 -6 -8t-4 8
q10 89 77.5 129.5t152.5 40.5q94 0 141 -34t67 -117l47 -208q10 -45 38 -45q22 0 35.5 36.5t13.5 84.5q0 6 4.5 6.5zM343 142q0 9 -1 15l-20 83q-38 11 -71 11q-43 0 -60.5 -16.5t-17.5 -60.5q0 -46 25.5 -80t69.5 -34q59 0 71 60q4 9 4 22zM265.5 548q-55.5 30 -99.5 66.5
t-44 64.5q0 9 44 9q42 0 73 -6q12 -2 17.5 -11.5t9.5 -29.5q8 -35 23.5 -63.5t57.5 -54.5q4 -2 3 -5.5t-5 -3.5q-24 4 -79.5 34z" />
    <glyph glyph-name="aacute" unicode="&#xe1;" horiz-adv-x="600" 
d="M611.5 207.5q4.5 0.5 4.5 -6.5q0 -67 -22 -116.5t-58 -75.5t-76 -26q-36 0 -64 30.5t-41 88.5l-3 14q-19 -65 -62 -99t-95 -34q-58 0 -98 25t-59 65t-17 84q1 51 49.5 80t128.5 29q67 0 120 -11l-24 99q-11 47 -36 70t-69 23q-59 0 -98 -31t-47 -102q-2 -8 -6 -8t-4 8
q10 89 77.5 129.5t152.5 40.5q94 0 141 -34t67 -117l47 -208q10 -45 38 -45q22 0 35.5 36.5t13.5 84.5q0 6 4.5 6.5zM343 142q0 9 -1 15l-20 83q-38 11 -71 11q-43 0 -60.5 -16.5t-17.5 -60.5q0 -46 25.5 -80t69.5 -34q59 0 71 60q4 9 4 22zM229 514q-3 0 -4 3t3 6
q42 26 57.5 54.5t23.5 63.5q6 21 11 30t17 11q42 6 72 6q44 0 44 -9q0 -21 -44.5 -59t-100 -70.5t-78.5 -35.5h-1z" />
    <glyph glyph-name="acircumflex" unicode="&#xe2;" horiz-adv-x="600" 
d="M611.5 207.5q4.5 0.5 4.5 -6.5q0 -67 -22 -116.5t-58 -75.5t-76 -26q-36 0 -64 30.5t-41 88.5l-3 14q-19 -65 -62 -99t-95 -34q-58 0 -98 25t-59 65t-17 84q1 51 49.5 80t128.5 29q67 0 120 -11l-24 99q-11 47 -36 70t-69 23q-59 0 -98 -31t-47 -102q-2 -8 -6 -8t-4 8
q10 89 77.5 129.5t152.5 40.5q94 0 141 -34t67 -117l47 -208q10 -45 38 -45q22 0 35.5 36.5t13.5 84.5q0 6 4.5 6.5zM343 142q0 9 -1 15l-20 83q-38 11 -71 11q-43 0 -60.5 -16.5t-17.5 -60.5q0 -46 25.5 -80t69.5 -34q59 0 71 60q4 9 4 22zM442 527q0 -2 -2 -4t-5 -2
q-33 2 -83.5 26t-82.5 56q-31 -32 -82.5 -56.5t-85.5 -25.5q-4 0 -5.5 3.5t2.5 5.5q40 18 61 42t38 58q16 30 29.5 43t41.5 13q29 0 44 -13.5t32 -43.5q17 -32 37.5 -55.5t57.5 -42.5q3 -1 3 -4z" />
    <glyph glyph-name="atilde" unicode="&#xe3;" horiz-adv-x="600" 
d="M611.5 207.5q4.5 0.5 4.5 -6.5q0 -67 -22 -116.5t-58 -75.5t-76 -26q-36 0 -64 30.5t-41 88.5l-3 14q-19 -65 -62 -99t-95 -34q-58 0 -98 25t-59 65t-17 84q1 51 49.5 80t128.5 29q67 0 120 -11l-24 99q-11 47 -36 70t-69 23q-59 0 -98 -31t-47 -102q-2 -8 -6 -8t-4 8
q10 89 77.5 129.5t152.5 40.5q94 0 141 -34t67 -117l47 -208q10 -45 38 -45q22 0 35.5 36.5t13.5 84.5q0 6 4.5 6.5zM343 142q0 9 -1 15l-20 83q-38 11 -71 11q-43 0 -60.5 -16.5t-17.5 -60.5q0 -46 25.5 -80t69.5 -34q59 0 71 60q4 9 4 22zM84 543q-6 0 -3 9q18 59 49 88
t76 29q28 0 64 -12l49 -16q38 -12 59 -12q42 0 67 39q3 4 7 4q6 0 3 -9q-19 -59 -50 -88t-77 -29q-26 0 -62 11l-54 18q-51 17 -78 17q-20 0 -28.5 -9.5t-15.5 -32.5q-1 -7 -6 -7z" />
    <glyph glyph-name="adieresis" unicode="&#xe4;" horiz-adv-x="600" 
d="M611.5 207.5q4.5 0.5 4.5 -6.5q0 -67 -22 -116.5t-58 -75.5t-76 -26q-36 0 -64 30.5t-41 88.5l-3 14q-19 -65 -62 -99t-95 -34q-58 0 -98 25t-59 65t-17 84q1 51 49.5 80t128.5 29q67 0 120 -11l-24 99q-11 47 -36 70t-69 23q-59 0 -98 -31t-47 -102q-2 -8 -6 -8t-4 8
q10 89 77.5 129.5t152.5 40.5q94 0 141 -34t67 -117l47 -208q10 -45 38 -45q22 0 35.5 36.5t13.5 84.5q0 6 4.5 6.5zM343 142q0 9 -1 15l-20 83q-38 11 -71 11q-43 0 -60.5 -16.5t-17.5 -60.5q0 -46 25.5 -80t69.5 -34q59 0 71 60q4 9 4 22zM123.5 559q-21.5 18 -21.5 43
q1 30 24.5 50.5t61.5 20.5q29 0 50 -18t21 -43q0 -30 -23.5 -50.5t-60.5 -20.5q-30 0 -51.5 18zM303.5 558q-21.5 17 -21.5 42q0 31 23 52t62 21q30 0 50.5 -18t20.5 -43q0 -30 -23.5 -50.5t-60.5 -20.5q-29 0 -50.5 17z" />
    <glyph glyph-name="aring" unicode="&#xe5;" horiz-adv-x="600" 
d="M611.5 207.5q4.5 0.5 4.5 -6.5q0 -67 -22 -116.5t-58 -75.5t-76 -26q-36 0 -64 30.5t-41 88.5l-3 14q-19 -65 -62 -99t-95 -34q-58 0 -98 25t-59 65t-17 84q1 51 49.5 80t128.5 29q67 0 120 -11l-24 99q-11 47 -36 70t-69 23q-59 0 -98 -31t-47 -102q-2 -8 -6 -8t-4 8
q10 89 77.5 129.5t152.5 40.5q94 0 141 -34t67 -117l47 -208q10 -45 38 -45q22 0 35.5 36.5t13.5 84.5q0 6 4.5 6.5zM343 142q0 9 -1 15l-20 83q-38 11 -71 11q-43 0 -60.5 -16.5t-17.5 -60.5q0 -46 25.5 -80t69.5 -34q59 0 71 60q4 9 4 22zM182.5 535q-31.5 24 -31.5 63
q0 23 16 44.5t43.5 35t60.5 13.5q48 0 81.5 -24t33.5 -62q0 -24 -16.5 -46t-45.5 -35t-64 -13q-46 0 -77.5 24zM319 532.5q6 5.5 6 20.5q0 19 -14.5 49t-35 52t-37.5 22q-12 0 -18 -5.5t-6 -20.5q0 -20 14.5 -49.5t35 -51.5t37.5 -22q12 0 18 5.5z" />
    <glyph glyph-name="ae" unicode="&#xe6;" horiz-adv-x="836" 
d="M808 93q1 -1 2 -2.5t-1 -4.5q-38 -49 -100.5 -76.5t-121.5 -27.5q-77 0 -139.5 39t-90.5 106q-18 -71 -61.5 -107.5t-97.5 -36.5q-58 0 -98.5 25t-59.5 65t-17 84q1 51 49.5 80t128.5 29q68 0 121 -11l-24 99q-11 47 -36.5 70t-69.5 23q-58 0 -97.5 -31t-47.5 -102
q-2 -8 -6 -8t-4 8q11 89 78.5 129.5t151.5 40.5q100 0 151 -77q38 36 88 56t106 20q85 0 142 -43t57 -121q0 -36 -13 -76l-297 -10q35 -74 96 -123.5t125 -49.5q51 0 84 33q1 1 2 0zM487.5 436q-18.5 -25 -18.5 -72q0 -60 29 -124q70 1 123 5l26 1q11 7 11 30q0 30 -18.5 75
t-46 77.5t-51.5 32.5q-36 0 -54.5 -25zM346 144q0 10 -3 25l-17 71q-38 11 -73 11q-42 0 -59.5 -16t-18.5 -58q0 -47 25.5 -82t69.5 -35q60 0 72 60q4 14 4 24z" />
    <glyph glyph-name="ccedilla" unicode="&#xe7;" horiz-adv-x="494" 
d="M493 93.5q2 -2.5 -1 -5.5q-41 -53 -99 -79.5t-123 -26.5h-5q-7 -10 -19 -31q66 -14 92.5 -32t26.5 -50q0 -17 -14 -35.5t-39 -31t-56 -12.5q-44 0 -74.5 11.5t-30.5 35.5q0 10 11.5 22.5t22.5 12.5q7 0 13 -5.5t15 -17.5q13 -19 27.5 -30.5t39.5 -11.5q27 0 42.5 9
t16.5 27q-1 19 -32.5 34t-108.5 30l55 75q-65 4 -118.5 35t-85.5 84.5t-32 122.5q0 67 36 126.5t97.5 96t134.5 36.5q50 0 96 -12t72 -30.5t21 -36.5l-75 -225q-1 -4 -6 -4t-2 8q4 12 4 31q0 46 -25.5 106t-64 102t-74.5 42q-78 0 -78 -96q0 -73 35.5 -145t93 -118
t120.5 -46q50 0 84 33q5 4 7 1.5z" />
    <glyph glyph-name="egrave" unicode="&#xe8;" horiz-adv-x="515" 
d="M487 93q1 -1 2 -2.5t-1 -4.5q-38 -49 -100.5 -76.5t-121.5 -27.5q-67 0 -124 30t-91 85t-34 127q0 68 36 127.5t99 95.5t139 36q85 0 142 -43t57 -121q0 -36 -13 -76l-297 -10q35 -74 96 -123.5t125 -49.5q51 0 84 33q1 1 2 0zM166.5 436q-18.5 -25 -18.5 -72
q0 -60 29 -124q70 1 123 5l26 1q11 7 11 30q0 30 -18.5 75t-46 77.5t-51.5 32.5q-36 0 -54.5 -25zM279.5 548q-55.5 30 -99.5 66.5t-44 64.5q0 9 44 9q42 0 73 -6q12 -2 17.5 -11.5t9.5 -29.5q8 -35 23.5 -63.5t57.5 -54.5q4 -2 3 -5.5t-5 -3.5q-24 4 -79.5 34z" />
    <glyph glyph-name="eacute" unicode="&#xe9;" horiz-adv-x="515" 
d="M487 93q1 -1 2 -2.5t-1 -4.5q-38 -49 -100.5 -76.5t-121.5 -27.5q-67 0 -124 30t-91 85t-34 127q0 68 36 127.5t99 95.5t139 36q85 0 142 -43t57 -121q0 -36 -13 -76l-297 -10q35 -74 96 -123.5t125 -49.5q51 0 84 33q1 1 2 0zM166.5 436q-18.5 -25 -18.5 -72
q0 -60 29 -124q70 1 123 5l26 1q11 7 11 30q0 30 -18.5 75t-46 77.5t-51.5 32.5q-36 0 -54.5 -25zM243 514q-3 0 -4 3t3 6q42 26 57.5 54.5t23.5 63.5q6 21 11 30t17 11q42 6 72 6q44 0 44 -9q0 -21 -44.5 -59t-100 -70.5t-78.5 -35.5h-1z" />
    <glyph glyph-name="ecircumflex" unicode="&#xea;" horiz-adv-x="515" 
d="M487 93q1 -1 2 -2.5t-1 -4.5q-38 -49 -100.5 -76.5t-121.5 -27.5q-67 0 -124 30t-91 85t-34 127q0 68 36 127.5t99 95.5t139 36q85 0 142 -43t57 -121q0 -36 -13 -76l-297 -10q35 -74 96 -123.5t125 -49.5q51 0 84 33q1 1 2 0zM166.5 436q-18.5 -25 -18.5 -72
q0 -60 29 -124q70 1 123 5l26 1q11 7 11 30q0 30 -18.5 75t-46 77.5t-51.5 32.5q-36 0 -54.5 -25zM456 527q0 -2 -2 -4t-5 -2q-33 2 -83.5 26t-82.5 56q-31 -32 -82.5 -56.5t-85.5 -25.5q-4 0 -5.5 3.5t2.5 5.5q40 18 61 42t38 58q16 30 29.5 43t41.5 13q29 0 44 -13.5
t32 -43.5q17 -32 37.5 -55.5t57.5 -42.5q3 -1 3 -4z" />
    <glyph glyph-name="edieresis" unicode="&#xeb;" horiz-adv-x="515" 
d="M487 93q1 -1 2 -2.5t-1 -4.5q-38 -49 -100.5 -76.5t-121.5 -27.5q-67 0 -124 30t-91 85t-34 127q0 68 36 127.5t99 95.5t139 36q85 0 142 -43t57 -121q0 -36 -13 -76l-297 -10q35 -74 96 -123.5t125 -49.5q51 0 84 33q1 1 2 0zM166.5 436q-18.5 -25 -18.5 -72
q0 -60 29 -124q70 1 123 5l26 1q11 7 11 30q0 30 -18.5 75t-46 77.5t-51.5 32.5q-36 0 -54.5 -25zM138.5 559q-21.5 18 -21.5 43q1 30 24.5 50.5t61.5 20.5q29 0 50 -18t21 -43q0 -30 -23.5 -50.5t-60.5 -20.5q-30 0 -51.5 18zM318.5 558q-21.5 17 -21.5 42q0 31 23 52
t62 21q30 0 50.5 -18t20.5 -43q0 -30 -23.5 -50.5t-60.5 -20.5q-29 0 -50.5 17z" />
    <glyph glyph-name="igrave" unicode="&#xec;" horiz-adv-x="328" 
d="M260.5 42.5q12.5 -34.5 47.5 -35.5q5 0 5 -5t-5 -4q-19 1 -142 1q-124 0 -143 -1q-5 0 -4.5 4.5t6.5 4.5q30 0 44 31t14 95v167q0 56 -12.5 77.5t-51.5 17.5h-1q-3 0 -3.5 3.5t3.5 4.5q58 12 121.5 36t106.5 52q6 4 9 4q4 0 4 -8q-7 -72 -9 -111t-2 -93v-150
q0 -56 12.5 -90.5zM154.5 548q-55.5 30 -99.5 66.5t-44 64.5q0 9 44 9q42 0 73 -6q12 -2 17.5 -11.5t9.5 -29.5q8 -35 23.5 -63.5t57.5 -54.5q4 -2 3 -5.5t-5 -3.5q-24 4 -79.5 34z" />
    <glyph glyph-name="iacute" unicode="&#xed;" horiz-adv-x="328" 
d="M260.5 42.5q12.5 -34.5 47.5 -35.5q5 0 5 -5t-5 -4q-19 1 -142 1q-124 0 -143 -1q-5 0 -4.5 4.5t6.5 4.5q30 0 44 31t14 95v167q0 56 -12.5 77.5t-51.5 17.5h-1q-3 0 -3.5 3.5t3.5 4.5q58 12 121.5 36t106.5 52q6 4 9 4q4 0 4 -8q-7 -72 -9 -111t-2 -93v-150
q0 -56 12.5 -90.5zM119 514q-3 0 -4 3t3 6q42 26 57.5 54.5t23.5 63.5q6 21 11 30t17 11q42 6 72 6q44 0 44 -9q0 -21 -44.5 -59t-100 -70.5t-78.5 -35.5h-1z" />
    <glyph glyph-name="icircumflex" unicode="&#xee;" horiz-adv-x="328" 
d="M260.5 42.5q12.5 -34.5 47.5 -35.5q5 0 5 -5t-5 -4q-19 1 -142 1q-124 0 -143 -1q-5 0 -4.5 4.5t6.5 4.5q30 0 44 31t14 95v167q0 56 -12.5 77.5t-51.5 17.5h-1q-3 0 -3.5 3.5t3.5 4.5q58 12 121.5 36t106.5 52q6 4 9 4q4 0 4 -8q-7 -72 -9 -111t-2 -93v-150
q0 -56 12.5 -90.5zM331 527q0 -2 -2 -4t-5 -2q-33 2 -83.5 26t-82.5 56q-31 -32 -82.5 -56.5t-85.5 -25.5q-4 0 -5.5 3.5t2.5 5.5q40 18 61 42t38 58q16 30 29.5 43t41.5 13q29 0 44 -13.5t32 -43.5q17 -32 37.5 -55.5t57.5 -42.5q3 -1 3 -4z" />
    <glyph glyph-name="idieresis" unicode="&#xef;" horiz-adv-x="328" 
d="M260.5 42.5q12.5 -34.5 47.5 -35.5q5 0 5 -5t-5 -4q-19 1 -142 1q-124 0 -143 -1q-5 0 -4.5 4.5t6.5 4.5q30 0 44 31t14 95v167q0 56 -12.5 77.5t-51.5 17.5h-1q-3 0 -3.5 3.5t3.5 4.5q58 12 121.5 36t106.5 52q6 4 9 4q4 0 4 -8q-7 -72 -9 -111t-2 -93v-150
q0 -56 12.5 -90.5zM13.5 559q-21.5 18 -21.5 43q1 30 24.5 50.5t61.5 20.5q29 0 50 -18t21 -43q0 -30 -23.5 -50.5t-60.5 -20.5q-30 0 -51.5 18zM193.5 558q-21.5 17 -21.5 42q0 31 23 52t62 21q30 0 50.5 -18t20.5 -43q0 -30 -23.5 -50.5t-60.5 -20.5q-29 0 -50.5 17z" />
    <glyph glyph-name="eth" unicode="&#xf0;" horiz-adv-x="586" 
d="M413 632q75 -58 115.5 -145.5t40.5 -193.5q0 -101 -38.5 -171t-101.5 -105t-137 -35q-89 0 -151 34t-93 90.5t-31 123.5q0 65 28.5 123.5t79.5 94.5t114 36q45 0 83 -14t65 -42q-8 102 -47 166l-101 -53q-2 -1 -5 -1t-2.5 3.5t4.5 4.5l100 53q-60 95 -179 110q-8 2 -8 5
q0 4 10 3q143 -7 246 -82l60 32q1 1 4 1q4 0 4 -3q0 -4 -6 -7zM431 110q0 66 -32.5 151.5t-79 146.5t-85.5 62q-43 1 -63.5 -23t-20.5 -75q0 -59 35 -147.5t82.5 -154.5t82.5 -66q81 0 81 106z" />
    <glyph glyph-name="ntilde" unicode="&#xf1;" horiz-adv-x="701" 
d="M711.5 207.5q4.5 0.5 4.5 -6.5q0 -67 -22 -116.5t-58 -75.5t-75 -26q-37 0 -65 30t-42 89l-65 264q-8 32 -19.5 45.5t-37.5 13.5q-35 0 -56.5 -36t-27.5 -95v-11v-173q0 -59 11.5 -80.5t48.5 -22.5q5 0 5 -4.5t-5 -4.5q-46 2 -125 2q-102 0 -160 -2q-5 0 -5 4.5t6 4.5
q25 0 36.5 5.5t17 27.5t5.5 71v189q0 56 -12.5 77.5t-51.5 17.5h-1q-3 0 -3.5 3.5t3.5 4.5q58 12 121.5 36t106.5 52q6 4 9 4q4 0 4 -8q-7 -81 -10 -123q17 51 60.5 85.5t103.5 34.5q63 0 97 -28.5t48 -84.5l61 -246q6 -22 15 -33.5t24 -11.5q22 0 36 37t13 84q0 6 4.5 6.5z
M160 543q-6 0 -3 9q18 59 49 88t76 29q28 0 64 -12l49 -16q38 -12 59 -12q42 0 67 39q3 4 7 4q6 0 3 -9q-19 -59 -50 -88t-77 -29q-26 0 -62 11l-54 18q-51 17 -78 17q-20 0 -28.5 -9.5t-15.5 -32.5q-1 -7 -6 -7z" />
    <glyph glyph-name="ograve" unicode="&#xf2;" horiz-adv-x="592" 
d="M142.5 12.5q-59.5 30.5 -92.5 85.5t-33 126q0 74 38 133t104.5 92.5t146.5 33.5q79 0 140 -30.5t95 -85t34 -125.5q0 -74 -39.5 -133.5t-107.5 -93t-150 -33.5q-76 0 -135.5 30.5zM413.5 29q22.5 22 22.5 63q0 60 -34 147.5t-81.5 152.5t-83.5 67q-38 1 -60.5 -21
t-22.5 -65q0 -60 34 -146.5t81.5 -151.5t82.5 -67q39 -1 61.5 21zM293.5 548q-55.5 30 -99.5 66.5t-44 64.5q0 9 44 9q42 0 73 -6q12 -2 17.5 -11.5t9.5 -29.5q8 -35 23.5 -63.5t57.5 -54.5q4 -2 3 -5.5t-5 -3.5q-24 4 -79.5 34z" />
    <glyph glyph-name="oacute" unicode="&#xf3;" horiz-adv-x="592" 
d="M142.5 12.5q-59.5 30.5 -92.5 85.5t-33 126q0 74 38 133t104.5 92.5t146.5 33.5q79 0 140 -30.5t95 -85t34 -125.5q0 -74 -39.5 -133.5t-107.5 -93t-150 -33.5q-76 0 -135.5 30.5zM413.5 29q22.5 22 22.5 63q0 60 -34 147.5t-81.5 152.5t-83.5 67q-38 1 -60.5 -21
t-22.5 -65q0 -60 34 -146.5t81.5 -151.5t82.5 -67q39 -1 61.5 21zM257 514q-3 0 -4 3t3 6q42 26 57.5 54.5t23.5 63.5q6 21 11 30t17 11q42 6 72 6q44 0 44 -9q0 -21 -44.5 -59t-100 -70.5t-78.5 -35.5h-1z" />
    <glyph glyph-name="ocircumflex" unicode="&#xf4;" horiz-adv-x="592" 
d="M142.5 12.5q-59.5 30.5 -92.5 85.5t-33 126q0 74 38 133t104.5 92.5t146.5 33.5q79 0 140 -30.5t95 -85t34 -125.5q0 -74 -39.5 -133.5t-107.5 -93t-150 -33.5q-76 0 -135.5 30.5zM413.5 29q22.5 22 22.5 63q0 60 -34 147.5t-81.5 152.5t-83.5 67q-38 1 -60.5 -21
t-22.5 -65q0 -60 34 -146.5t81.5 -151.5t82.5 -67q39 -1 61.5 21zM470 527q0 -2 -2 -4t-5 -2q-33 2 -83.5 26t-82.5 56q-31 -32 -82.5 -56.5t-85.5 -25.5q-4 0 -5.5 3.5t2.5 5.5q40 18 61 42t38 58q16 30 29.5 43t41.5 13q29 0 44 -13.5t32 -43.5q17 -32 37.5 -55.5
t57.5 -42.5q3 -1 3 -4z" />
    <glyph glyph-name="otilde" unicode="&#xf5;" horiz-adv-x="592" 
d="M142.5 12.5q-59.5 30.5 -92.5 85.5t-33 126q0 74 38 133t104.5 92.5t146.5 33.5q79 0 140 -30.5t95 -85t34 -125.5q0 -74 -39.5 -133.5t-107.5 -93t-150 -33.5q-76 0 -135.5 30.5zM413.5 29q22.5 22 22.5 63q0 60 -34 147.5t-81.5 152.5t-83.5 67q-38 1 -60.5 -21
t-22.5 -65q0 -60 34 -146.5t81.5 -151.5t82.5 -67q39 -1 61.5 21zM112 543q-6 0 -3 9q18 59 49 88t76 29q28 0 64 -12l49 -16q38 -12 59 -12q42 0 67 39q3 4 7 4q6 0 3 -9q-19 -59 -50 -88t-77 -29q-26 0 -62 11l-54 18q-51 17 -78 17q-20 0 -28.5 -9.5t-15.5 -32.5
q-1 -7 -6 -7z" />
    <glyph glyph-name="odieresis" unicode="&#xf6;" horiz-adv-x="592" 
d="M142.5 12.5q-59.5 30.5 -92.5 85.5t-33 126q0 74 38 133t104.5 92.5t146.5 33.5q79 0 140 -30.5t95 -85t34 -125.5q0 -74 -39.5 -133.5t-107.5 -93t-150 -33.5q-76 0 -135.5 30.5zM413.5 29q22.5 22 22.5 63q0 60 -34 147.5t-81.5 152.5t-83.5 67q-38 1 -60.5 -21
t-22.5 -65q0 -60 34 -146.5t81.5 -151.5t82.5 -67q39 -1 61.5 21zM152.5 559q-21.5 18 -21.5 43q1 30 24.5 50.5t61.5 20.5q29 0 50 -18t21 -43q0 -30 -23.5 -50.5t-60.5 -20.5q-30 0 -51.5 18zM332.5 558q-21.5 17 -21.5 42q0 31 23 52t62 21q30 0 50.5 -18t20.5 -43
q0 -30 -23.5 -50.5t-60.5 -20.5q-29 0 -50.5 17z" />
    <glyph glyph-name="divide" unicode="&#xf7;" horiz-adv-x="376" 
d="M124 354q-21 14 -21 36q0 28 29 48t74 21q37 0 58.5 -14.5t21.5 -37.5q0 -27 -30.5 -46.5t-74.5 -20.5q-36 0 -57 14zM43 232q-14 0 -14 5q0 4 14 4h293q11 0 11 -5q0 -4 -11 -4h-293zM124 40.5q-21 13.5 -21 35.5q0 29 30 49t76 20q35 0 56 -14.5t21 -36.5
q0 -27 -30.5 -47t-74.5 -20q-36 0 -57 13.5z" />
    <glyph glyph-name="oslash" unicode="&#xf8;" horiz-adv-x="592" 
d="M470 439q50 -32 77.5 -82.5t27.5 -114.5q0 -74 -39.5 -133.5t-107.5 -93t-150 -33.5q-85 0 -148 37l-27 -34q-1 -3 -5 -3q-3 0 -4 3t1 7l26 33q-49 31 -76.5 82.5t-27.5 116.5q0 74 38 133t104.5 92.5t146.5 33.5q89 0 156 -39l27 34q5 6 8 6q2 0 2.5 -3.5t-2.5 -7.5z
M173 269.5q19 -60.5 50 -119.5l140 173q-32 60 -66.5 98t-61.5 38q-38 0 -59.5 -22t-21.5 -64q0 -43 19 -103.5zM414.5 30q21.5 22 21.5 62q0 44 -19 104t-49 118l-140 -174q32 -59 66 -95.5t61 -36.5q38 0 59.5 22z" />
    <glyph glyph-name="ugrave" unicode="&#xf9;" horiz-adv-x="655" 
d="M666.5 208.5q3.5 0.5 3.5 -4.5q0 -58 -20.5 -109t-55.5 -81t-76 -30q-46 0 -79.5 29.5t-37.5 89.5q-13 -53 -53.5 -87t-111.5 -34q-75 0 -121 50.5t-46 147.5v120q0 56 -12 77.5t-51 17.5h-1q-3 0 -3.5 3.5t3.5 4.5q58 12 121.5 36t106.5 52q6 4 8 4q5 0 4 -8
q-7 -77 -9 -116t-2 -88v-115q0 -136 74 -136q44 0 68.5 39.5t24.5 93.5v135q0 56 -12.5 77.5t-50.5 17.5h-1q-4 0 -4 3.5t4 4.5q58 12 121.5 36t106.5 52q6 4 8 4q5 0 4 -8q-7 -77 -9 -116t-2 -88v-131q0 -71 35 -71q36 0 47.5 33t14.5 89q0 5 3.5 5.5zM333.5 548
q-55.5 30 -99.5 66.5t-44 64.5q0 9 44 9q42 0 73 -6q12 -2 17.5 -11.5t9.5 -29.5q8 -35 23.5 -63.5t57.5 -54.5q4 -2 3 -5.5t-5 -3.5q-24 4 -79.5 34z" />
    <glyph glyph-name="uacute" unicode="&#xfa;" horiz-adv-x="655" 
d="M666.5 208.5q3.5 0.5 3.5 -4.5q0 -58 -20.5 -109t-55.5 -81t-76 -30q-46 0 -79.5 29.5t-37.5 89.5q-13 -53 -53.5 -87t-111.5 -34q-75 0 -121 50.5t-46 147.5v120q0 56 -12 77.5t-51 17.5h-1q-3 0 -3.5 3.5t3.5 4.5q58 12 121.5 36t106.5 52q6 4 8 4q5 0 4 -8
q-7 -77 -9 -116t-2 -88v-115q0 -136 74 -136q44 0 68.5 39.5t24.5 93.5v135q0 56 -12.5 77.5t-50.5 17.5h-1q-4 0 -4 3.5t4 4.5q58 12 121.5 36t106.5 52q6 4 8 4q5 0 4 -8q-7 -77 -9 -116t-2 -88v-131q0 -71 35 -71q36 0 47.5 33t14.5 89q0 5 3.5 5.5zM297 514q-3 0 -4 3
t3 6q42 26 57.5 54.5t23.5 63.5q6 21 11 30t17 11q42 6 72 6q44 0 44 -9q0 -21 -44.5 -59t-100 -70.5t-78.5 -35.5h-1z" />
    <glyph glyph-name="ucircumflex" unicode="&#xfb;" horiz-adv-x="655" 
d="M666.5 208.5q3.5 0.5 3.5 -4.5q0 -58 -20.5 -109t-55.5 -81t-76 -30q-46 0 -79.5 29.5t-37.5 89.5q-13 -53 -53.5 -87t-111.5 -34q-75 0 -121 50.5t-46 147.5v120q0 56 -12 77.5t-51 17.5h-1q-3 0 -3.5 3.5t3.5 4.5q58 12 121.5 36t106.5 52q6 4 8 4q5 0 4 -8
q-7 -77 -9 -116t-2 -88v-115q0 -136 74 -136q44 0 68.5 39.5t24.5 93.5v135q0 56 -12.5 77.5t-50.5 17.5h-1q-4 0 -4 3.5t4 4.5q58 12 121.5 36t106.5 52q6 4 8 4q5 0 4 -8q-7 -77 -9 -116t-2 -88v-131q0 -71 35 -71q36 0 47.5 33t14.5 89q0 5 3.5 5.5zM510 527q0 -2 -2 -4
t-5 -2q-33 2 -83.5 26t-82.5 56q-31 -32 -82.5 -56.5t-85.5 -25.5q-4 0 -5.5 3.5t2.5 5.5q40 18 61 42t38 58q16 30 29.5 43t41.5 13q29 0 44 -13.5t32 -43.5q17 -32 37.5 -55.5t57.5 -42.5q3 -1 3 -4z" />
    <glyph glyph-name="udieresis" unicode="&#xfc;" horiz-adv-x="655" 
d="M666.5 208.5q3.5 0.5 3.5 -4.5q0 -58 -20.5 -109t-55.5 -81t-76 -30q-46 0 -79.5 29.5t-37.5 89.5q-13 -53 -53.5 -87t-111.5 -34q-75 0 -121 50.5t-46 147.5v120q0 56 -12 77.5t-51 17.5h-1q-3 0 -3.5 3.5t3.5 4.5q58 12 121.5 36t106.5 52q6 4 8 4q5 0 4 -8
q-7 -77 -9 -116t-2 -88v-115q0 -136 74 -136q44 0 68.5 39.5t24.5 93.5v135q0 56 -12.5 77.5t-50.5 17.5h-1q-4 0 -4 3.5t4 4.5q58 12 121.5 36t106.5 52q6 4 8 4q5 0 4 -8q-7 -77 -9 -116t-2 -88v-131q0 -71 35 -71q36 0 47.5 33t14.5 89q0 5 3.5 5.5zM192.5 559
q-21.5 18 -21.5 43q1 30 24.5 50.5t61.5 20.5q29 0 50 -18t21 -43q0 -30 -23.5 -50.5t-60.5 -20.5q-30 0 -51.5 18zM372.5 558q-21.5 17 -21.5 42q0 31 23 52t62 21q30 0 50.5 -18t20.5 -43q0 -30 -23.5 -50.5t-60.5 -20.5q-29 0 -50.5 17z" />
    <glyph glyph-name="yacute" unicode="&#xfd;" horiz-adv-x="577" 
d="M574 462.5q0 -4.5 -4 -4.5q-24 0 -40.5 -24.5t-44.5 -93.5l-146 -352q-32 -74 -57.5 -116t-58.5 -64t-80 -22q-33 0 -65.5 11t-54.5 29.5t-23 37.5q0 17 15 51.5t33.5 64.5t24.5 30q3 0 2 -8q-3 -23 16 -68t50 -79.5t64 -34.5q22 0 38 16.5t28 49.5q1 17 -11.5 51
t-31.5 79l-135 324q-29 70 -45.5 94t-39.5 24q-4 0 -4 4.5t4 4.5q20 -2 45 -2h180q42 0 78 2q7 0 7 -4q0 -5 -7 -5q-60 0 -60 -49q0 -25 18 -69l96 -231q3 -7 7 -7t7 6l96 232q17 40 17 67q0 51 -64 51q-7 0 -7 5q0 4 7 4q38 -2 83 -2h13q24 0 46 2q4 0 4 -4.5zM250 514
q-3 0 -4 3t3 6q42 26 57.5 54.5t23.5 63.5q6 21 11 30t17 11q42 6 72 6q44 0 44 -9q0 -21 -44.5 -59t-100 -70.5t-78.5 -35.5h-1z" />
    <glyph glyph-name="thorn" unicode="&#xfe;" horiz-adv-x="605" 
d="M487.5 454q45.5 -29 73.5 -83.5t28 -127.5q0 -67 -32.5 -127t-87 -96.5t-117.5 -36.5q-31 0 -52.5 6.5t-44.5 16.5q-14 8 -21 8q-10 0 -10 -16v-66q0 -69 15.5 -96.5t48.5 -28.5q5 0 5 -5t-5 -4q-48 2 -147 2t-147 -2q-5 0 -5 4.5t6 4.5q33 -1 48.5 27t15.5 99v602
q0 56 -12.5 77.5t-51.5 16.5h-1q-3 0 -3.5 3.5t3.5 4.5q60 13 122.5 36.5t105.5 52.5q5 3 8 3q5 0 4 -8q-6 -73 -8 -111.5t-2 -91.5v-132q1 -9 3 -14t6 -2q59 113 157 113q52 0 97.5 -29zM448 99q0 71 -25 140.5t-63 113.5t-74 44q-29 -1 -45.5 -28t-16.5 -76v-83
q0 -62 18.5 -110.5t50.5 -75.5t73 -27q82 0 82 102z" />
    <glyph glyph-name="ydieresis" unicode="&#xff;" horiz-adv-x="577" 
d="M574 462.5q0 -4.5 -4 -4.5q-24 0 -40.5 -24.5t-44.5 -93.5l-146 -352q-32 -74 -57.5 -116t-58.5 -64t-80 -22q-33 0 -65.5 11t-54.5 29.5t-23 37.5q0 17 15 51.5t33.5 64.5t24.5 30q3 0 2 -8q-3 -23 16 -68t50 -79.5t64 -34.5q22 0 38 16.5t28 49.5q1 17 -11.5 51
t-31.5 79l-135 324q-29 70 -45.5 94t-39.5 24q-4 0 -4 4.5t4 4.5q20 -2 45 -2h180q42 0 78 2q7 0 7 -4q0 -5 -7 -5q-60 0 -60 -49q0 -25 18 -69l96 -231q3 -7 7 -7t7 6l96 232q17 40 17 67q0 51 -64 51q-7 0 -7 5q0 4 7 4q38 -2 83 -2h13q24 0 46 2q4 0 4 -4.5zM144.5 559
q-21.5 18 -21.5 43q1 30 24.5 50.5t61.5 20.5q29 0 50 -18t21 -43q0 -30 -23.5 -50.5t-60.5 -20.5q-30 0 -51.5 18zM324.5 558q-21.5 17 -21.5 42q0 31 23 52t62 21q30 0 50.5 -18t20.5 -43q0 -30 -23.5 -50.5t-60.5 -20.5q-29 0 -50.5 17z" />
    <glyph glyph-name="Amacron" unicode="&#x100;" horiz-adv-x="753" 
d="M748 1.5q0 -4.5 -5 -4.5q-36 3 -47 3h-204q-25 0 -82 -3q-9 0 -9 5q0 4 8 4q31 1 51.5 17t20.5 49q0 24 -13 56l-36 87q-7 5 -12 5t-11 -3q-61 -26 -134 -42.5t-143 -20.5q-18 0 -24 -17v1l-4 -10q-12 -31 -12 -54q0 -34 22 -50.5t55 -17.5q9 0 9 -4q0 -5 -9 -5
q-63 3 -87 3h-25q-14 0 -47 -3q-5 0 -5 4.5t5 4.5q21 1 39.5 28t45.5 94l175 430q4 11 4 26q0 23 -9 41l-21 52q-6 16 -22 17q-4 1 -3 3.5t5 2.5h183q9 0 14 -2.5t8 -11.5l228 -558q27 -67 46 -94t40 -28q5 0 5 -4.5zM417.5 237q3.5 7 0.5 12h1l-133 326l-161 -396
q-1 -3 -1 -8q0 -8 10 -8q70 4 142.5 20t129.5 43q8 4 11.5 11zM241 771q-11 0 -11 7q0 2 3 4t8 2h271q10 0 10 -6q0 -7 -10 -7h-271z" />
    <glyph glyph-name="amacron" unicode="&#x101;" horiz-adv-x="600" 
d="M611.5 207.5q4.5 0.5 4.5 -6.5q0 -67 -22 -116.5t-58 -75.5t-76 -26q-36 0 -64 30.5t-41 88.5l-3 14q-19 -65 -62 -99t-95 -34q-58 0 -98 25t-59 65t-17 84q1 51 49.5 80t128.5 29q67 0 120 -11l-24 99q-11 47 -36 70t-69 23q-59 0 -98 -31t-47 -102q-2 -8 -6 -8t-4 8
q10 89 77.5 129.5t152.5 40.5q94 0 141 -34t67 -117l47 -208q10 -45 38 -45q22 0 35.5 36.5t13.5 84.5q0 6 4.5 6.5zM343 142q0 9 -1 15l-20 83q-38 11 -71 11q-43 0 -60.5 -16.5t-17.5 -60.5q0 -46 25.5 -80t69.5 -34q59 0 71 60q4 9 4 22zM132 596q-11 0 -11 7q0 2 3 4
t8 2h271q10 0 10 -6q0 -7 -10 -7h-271z" />
    <glyph glyph-name="Abreve" unicode="&#x102;" horiz-adv-x="753" 
d="M748 1.5q0 -4.5 -5 -4.5q-36 3 -47 3h-204q-25 0 -82 -3q-9 0 -9 5q0 4 8 4q31 1 51.5 17t20.5 49q0 24 -13 56l-36 87q-7 5 -12 5t-11 -3q-61 -26 -134 -42.5t-143 -20.5q-18 0 -24 -17v1l-4 -10q-12 -31 -12 -54q0 -34 22 -50.5t55 -17.5q9 0 9 -4q0 -5 -9 -5
q-63 3 -87 3h-25q-14 0 -47 -3q-5 0 -5 4.5t5 4.5q21 1 39.5 28t45.5 94l175 430q4 11 4 26q0 23 -9 41l-21 52q-6 16 -22 17q-4 1 -3 3.5t5 2.5h183q9 0 14 -2.5t8 -11.5l228 -558q27 -67 46 -94t40 -28q5 0 5 -4.5zM417.5 237q3.5 7 0.5 12h1l-133 326l-161 -396
q-1 -3 -1 -8q0 -8 10 -8q70 4 142.5 20t129.5 43q8 4 11.5 11zM337 888.5q13 -4.5 13 -14.5q0 -39 18.5 -68.5t52.5 -29.5q36 0 53.5 27.5t17.5 68.5q0 8 5 8t5 -7q0 -57 -32.5 -96.5t-94.5 -39.5q-66 0 -102.5 41t-36.5 99q0 8 9 12t38 4q41 0 54 -4.5z" />
    <glyph glyph-name="abreve" unicode="&#x103;" horiz-adv-x="600" 
d="M611.5 207.5q4.5 0.5 4.5 -6.5q0 -67 -22 -116.5t-58 -75.5t-76 -26q-36 0 -64 30.5t-41 88.5l-3 14q-19 -65 -62 -99t-95 -34q-58 0 -98 25t-59 65t-17 84q1 51 49.5 80t128.5 29q67 0 120 -11l-24 99q-11 47 -36 70t-69 23q-59 0 -98 -31t-47 -102q-2 -8 -6 -8t-4 8
q10 89 77.5 129.5t152.5 40.5q94 0 141 -34t67 -117l47 -208q10 -45 38 -45q22 0 35.5 36.5t13.5 84.5q0 6 4.5 6.5zM343 142q0 9 -1 15l-20 83q-38 11 -71 11q-43 0 -60.5 -16.5t-17.5 -60.5q0 -46 25.5 -80t69.5 -34q59 0 71 60q4 9 4 22zM229 669.5q13 -4.5 13 -14.5
q0 -39 18.5 -68.5t52.5 -29.5q36 0 53.5 27.5t17.5 68.5q0 8 5 8t5 -7q0 -57 -32.5 -96.5t-94.5 -39.5q-66 0 -102.5 41t-36.5 99q0 8 9 12t38 4q41 0 54 -4.5z" />
    <glyph glyph-name="Aogonek" unicode="&#x104;" horiz-adv-x="753" 
d="M749 -74q4 0 4 -6q0 -47 -35 -79t-96 -32q-40 0 -62.5 15.5t-22.5 44.5q0 39 36 70.5t97 60.5h-178q-25 0 -82 -3q-9 0 -9 5q0 4 8 4q31 1 51.5 17t20.5 49q0 24 -13 56l-36 87q-7 5 -12 5t-11 -3q-61 -26 -134 -42.5t-143 -20.5q-18 0 -24 -17v1l-4 -10q-12 -31 -12 -54
q0 -34 22 -50.5t55 -17.5q9 0 9 -4q0 -5 -9 -5q-63 3 -87 3h-25q-14 0 -47 -3q-5 0 -5 4.5t5 4.5q21 1 39.5 28t45.5 94l175 430q4 11 4 26q0 23 -9 41l-21 52q-6 16 -22 17q-4 1 -3 3.5t5 2.5h183q9 0 14 -2.5t8 -11.5l228 -558q27 -67 46 -94t40 -28q5 0 5 -4.5t-5 -4.5
q-36 3 -47 3h-5q-31 -26 -42.5 -48t-11.5 -44q0 -26 13.5 -38t35.5 -12q59 0 59 62q0 6 4 6zM417.5 237q3.5 7 0.5 12h1l-133 326l-161 -396q-1 -3 -1 -8q0 -8 10 -8q70 4 142.5 20t129.5 43q8 4 11.5 11z" />
    <glyph glyph-name="aogonek" unicode="&#x105;" horiz-adv-x="600" 
d="M582 -73q4 0 4 -6q0 -47 -35 -79t-96 -32q-40 0 -62.5 15.5t-22.5 44.5q0 61 97 113h-7q-36 0 -64 30.5t-41 88.5l-3 14q-19 -65 -62 -99t-95 -34q-58 0 -98 25t-59 65t-17 84q1 51 49.5 80t128.5 29q67 0 120 -11l-24 99q-11 47 -36 70t-69 23q-59 0 -98 -31t-47 -102
q-2 -8 -6 -8t-4 8q10 89 77.5 129.5t152.5 40.5q94 0 141 -34t67 -117l47 -208q10 -45 38 -45q22 0 35.5 36.5t13.5 84.5q0 6 4.5 6.5t4.5 -6.5q0 -72 -25.5 -123.5t-66.5 -76.5q-31 -26 -42.5 -48t-11.5 -44q0 -26 13.5 -38t35.5 -12q59 0 59 62q0 6 4 6zM343 142
q0 9 -1 15l-20 83q-38 11 -71 11q-43 0 -60.5 -16.5t-17.5 -60.5q0 -46 25.5 -80t69.5 -34q59 0 71 60q4 9 4 22z" />
    <glyph glyph-name="Cacute" unicode="&#x106;" horiz-adv-x="713" 
d="M555 274q-2 -5 -6 -4t-2 6q19 50 19 105q0 45 -12.5 89.5t-34.5 82.5q-33 61 -83 96.5t-101 35.5q-142 0 -142 -145q0 -117 47 -222.5t123.5 -169.5t161.5 -64q41 0 87.5 13.5t82.5 47.5q5 5 7.5 2.5t-1.5 -7.5q-64 -77 -143.5 -117.5t-169.5 -40.5q-96 0 -177.5 44
t-130 125t-48.5 186q0 104 53.5 191.5t143.5 138t195 50.5q67 0 128.5 -17t99.5 -44t38 -53q0 -4 -2 -10zM258.5 747.5q-1.5 3.5 3.5 5.5q59 31 83 56t41 63q3 6 41 6q33 0 59.5 -5.5t25.5 -15.5q0 -20 -49 -46.5t-110 -46.5t-86 -20q-7 0 -8.5 3.5z" />
    <glyph glyph-name="cacute" unicode="&#x107;" horiz-adv-x="494" 
d="M399 179q-1 -4 -6 -4t-2 8q4 12 4 31q0 46 -25.5 106t-64 102t-74.5 42q-78 0 -78 -96q0 -73 35.5 -145t93 -118t120.5 -46q50 0 84 33q5 4 7 1.5t-1 -5.5q-41 -53 -99 -79.5t-123 -26.5q-68 0 -126 30t-92.5 85t-34.5 127q0 67 36 126.5t97.5 96t134.5 36.5q50 0 96 -12
t72 -30.5t21 -36.5zM238 513q-3 0 -4 3t3 6q42 26 57.5 54.5t23.5 63.5q6 21 11 30t17 11q42 6 72 6q44 0 44 -9q0 -21 -44.5 -59t-100 -70.5t-78.5 -35.5h-1z" />
    <glyph glyph-name="Ccircumflex" unicode="&#x108;" horiz-adv-x="713" 
d="M555 274q-2 -5 -6 -4t-2 6q19 50 19 105q0 45 -12.5 89.5t-34.5 82.5q-33 61 -83 96.5t-101 35.5q-142 0 -142 -145q0 -117 47 -222.5t123.5 -169.5t161.5 -64q41 0 87.5 13.5t82.5 47.5q5 5 7.5 2.5t-1.5 -7.5q-64 -77 -143.5 -117.5t-169.5 -40.5q-96 0 -177.5 44
t-130 125t-48.5 186q0 104 53.5 191.5t143.5 138t195 50.5q67 0 128.5 -17t99.5 -44t38 -53q0 -4 -2 -10zM539 743q0 -5 -7 -5q-35 2 -88 23t-88 48q-34 -28 -88.5 -49t-90.5 -22q-5 0 -6 3.5t3 4.5q42 15 64 36t42 51q17 26 31.5 37.5t43.5 11.5q31 0 46.5 -12t33.5 -38
q18 -28 39.5 -48.5t61.5 -37.5q3 -1 3 -3z" />
    <glyph glyph-name="ccircumflex" unicode="&#x109;" horiz-adv-x="494" 
d="M399 179q-1 -4 -6 -4t-2 8q4 12 4 31q0 46 -25.5 106t-64 102t-74.5 42q-78 0 -78 -96q0 -73 35.5 -145t93 -118t120.5 -46q50 0 84 33q5 4 7 1.5t-1 -5.5q-41 -53 -99 -79.5t-123 -26.5q-68 0 -126 30t-92.5 85t-34.5 127q0 67 36 126.5t97.5 96t134.5 36.5q50 0 96 -12
t72 -30.5t21 -36.5zM451 526q0 -2 -2 -4t-5 -2q-33 2 -83.5 26t-82.5 56q-31 -32 -82.5 -56.5t-85.5 -25.5q-4 0 -5.5 3.5t2.5 5.5q40 18 61 42t38 58q16 30 29.5 43t41.5 13q29 0 44 -13.5t32 -43.5q17 -32 37.5 -55.5t57.5 -42.5q3 -1 3 -4z" />
    <glyph glyph-name="Cdotaccent" unicode="&#x10a;" horiz-adv-x="713" 
d="M555 274q-2 -5 -6 -4t-2 6q19 50 19 105q0 45 -12.5 89.5t-34.5 82.5q-33 61 -83 96.5t-101 35.5q-142 0 -142 -145q0 -117 47 -222.5t123.5 -169.5t161.5 -64q41 0 87.5 13.5t82.5 47.5q5 5 7.5 2.5t-1.5 -7.5q-64 -77 -143.5 -117.5t-169.5 -40.5q-96 0 -177.5 44
t-130 125t-48.5 186q0 104 53.5 191.5t143.5 138t195 50.5q67 0 128.5 -17t99.5 -44t38 -53q0 -4 -2 -10zM289.5 757.5q-20.5 15.5 -20.5 39.5q0 31 28.5 52.5t71.5 21.5q35 0 56 -16t21 -41q0 -30 -29 -51t-73 -21q-34 0 -54.5 15.5z" />
    <glyph glyph-name="cdotaccent" unicode="&#x10b;" horiz-adv-x="494" 
d="M399 179q-1 -4 -6 -4t-2 8q4 12 4 31q0 46 -25.5 106t-64 102t-74.5 42q-78 0 -78 -96q0 -73 35.5 -145t93 -118t120.5 -46q50 0 84 33q5 4 7 1.5t-1 -5.5q-41 -53 -99 -79.5t-123 -26.5q-68 0 -126 30t-92.5 85t-34.5 127q0 67 36 126.5t97.5 96t134.5 36.5q50 0 96 -12
t72 -30.5t21 -36.5zM221.5 553.5q-21.5 18.5 -21.5 43.5q1 30 24.5 51t61.5 21q30 0 51 -18t21 -44q0 -30 -23.5 -51t-61.5 -21q-30 0 -51.5 18.5z" />
    <glyph glyph-name="Ccaron" unicode="&#x10c;" horiz-adv-x="713" 
d="M555 274q-2 -5 -6 -4t-2 6q19 50 19 105q0 45 -12.5 89.5t-34.5 82.5q-33 61 -83 96.5t-101 35.5q-142 0 -142 -145q0 -117 47 -222.5t123.5 -169.5t161.5 -64q41 0 87.5 13.5t82.5 47.5q5 5 7.5 2.5t-1.5 -7.5q-64 -77 -143.5 -117.5t-169.5 -40.5q-96 0 -177.5 44
t-130 125t-48.5 186q0 104 53.5 191.5t143.5 138t195 50.5q67 0 128.5 -17t99.5 -44t38 -53q0 -4 -2 -10zM527.5 870q1.5 -3 -2.5 -4q-40 -14 -60 -32.5t-40 -46.5q-17 -23 -30.5 -33.5t-40.5 -10.5q-29 0 -43.5 10.5t-31.5 34.5q-18 26 -37.5 44t-57.5 33q-4 2 -3 5t6 3
q34 -1 83.5 -20t82.5 -44q32 25 83 44t85 20q5 0 6.5 -3z" />
    <glyph glyph-name="ccaron" unicode="&#x10d;" horiz-adv-x="494" 
d="M399 179q-1 -4 -6 -4t-2 8q4 12 4 31q0 46 -25.5 106t-64 102t-74.5 42q-78 0 -78 -96q0 -73 35.5 -145t93 -118t120.5 -46q50 0 84 33q5 4 7 1.5t-1 -5.5q-41 -53 -99 -79.5t-123 -26.5q-68 0 -126 30t-92.5 85t-34.5 127q0 67 36 126.5t97.5 96t134.5 36.5q50 0 96 -12
t72 -30.5t21 -36.5zM450 672.5q2 -3.5 -2 -5.5q-40 -18 -60.5 -41.5t-39.5 -58.5q-16 -30 -29.5 -43t-41.5 -13q-29 0 -43.5 13.5t-31.5 43.5q-17 32 -37.5 55.5t-57.5 42.5q-4 2 -2.5 6t5.5 4q34 -2 84 -26.5t82 -55.5q32 32 83.5 56.5t84.5 25.5q4 0 6 -3.5z" />
    <glyph glyph-name="Dcaron" unicode="&#x10e;" horiz-adv-x="782" 
d="M218 -4q-84 4 -118 4l-64 -3q-7 0 -7 5q0 4 7 4q32 1 52 31.5t20 96.5v431q0 67 -20 97.5t-52 31.5q-7 0 -7 4t5 4l66 -2q28 0 126 4q94 4 119 4q143 0 234 -49t131 -128.5t40 -176.5q0 -102 -47.5 -184.5t-134.5 -130t-202 -47.5q-52 0 -148 4zM462.5 45.5
q50.5 44.5 74.5 119t24 165.5q0 96 -27 180t-82.5 136t-137.5 52q-28 0 -28 -38v-617q0 -24 11 -33t39 -9q76 0 126.5 44.5zM542.5 870q1.5 -3 -2.5 -4q-40 -14 -60 -32.5t-40 -46.5q-17 -23 -30.5 -33.5t-40.5 -10.5q-29 0 -43.5 10.5t-31.5 34.5q-18 26 -37.5 44t-57.5 33
q-4 2 -3 5t6 3q34 -1 83.5 -20t82.5 -44q32 25 83 44t85 20q5 0 6.5 -3z" />
    <glyph glyph-name="dcaron" unicode="&#x10f;" horiz-adv-x="633" 
d="M644.5 208.5q3.5 0.5 3.5 -4.5q0 -58 -20.5 -109t-55 -81t-75.5 -30q-43 0 -75 25.5t-40 77.5l-2 4q-3 3 -5 3q-4 0 -7 -7q-55 -105 -153 -105q-51 0 -96.5 28.5t-73.5 82t-28 125.5q0 75 35 135.5t91 95t114 34.5q70 0 120 -38v52q0 51 -5 75t-13.5 29.5t-25.5 3.5h-1
q-4 0 -6 2t-2 3.5t1 2.5q145 41 224 109h3q8 0 7 -9q-8 -56 -11 -106.5t-3 -117.5v-337q0 -35 8 -53t27 -18q36 0 47.5 33t13.5 89q0 5 3.5 5.5zM362.5 92q14.5 23 17.5 78l-1 65q-6 104 -40.5 168.5t-99.5 64.5q-81 0 -81 -103q0 -68 25.5 -137t63.5 -114t73 -45
q28 0 42.5 23zM655 507q-5 0 -5 6q-3 45 -12.5 72t-23.5 51q-9 17 -13 27t-4 23q0 21 10.5 28.5t47.5 7.5t48 -8t11 -29q0 -13 -3.5 -22.5t-13.5 -27.5q-14 -25 -23.5 -51.5t-12.5 -70.5q-1 -6 -6 -6z" />
    <glyph glyph-name="Dcroat" unicode="&#x110;" horiz-adv-x="782" 
d="M579 659q91 -49 131 -128.5t40 -176.5q0 -102 -47.5 -184.5t-134.5 -130t-202 -47.5q-52 0 -148 4q-84 4 -118 4l-64 -3q-7 0 -7 5q0 4 7 4q32 1 52 31.5t20 96.5v212h-60q-5 0 -5 5.5t5 5.5h60v208q0 67 -20 97.5t-52 31.5q-7 0 -7 4t5 4l66 -2q28 0 126 4q94 4 119 4
q143 0 234 -49zM534 510q-27 84 -82.5 136t-137.5 52q-28 0 -28 -38v-303h176q7 0 7 -5q0 -6 -7 -6h-176v-303q0 -24 11 -33t39 -9q76 0 126.5 44.5t74.5 119t24 165.5q0 96 -27 180z" />
    <glyph glyph-name="dcroat" unicode="&#x111;" horiz-adv-x="633" 
d="M644.5 208.5q3.5 0.5 3.5 -4.5q0 -58 -20.5 -109t-55 -81t-75.5 -30q-43 0 -75 25.5t-40 77.5l-2 4q-3 3 -5 3q-4 0 -7 -7q-55 -105 -153 -105q-51 0 -96.5 28.5t-73.5 82t-28 125.5q0 75 35 135.5t91 95t114 34.5q70 0 120 -38v52q0 26 -1 36h-81q-11 0 -11 7q0 2 3 4
t8 2h80q-2 28 -7 41.5t-13 16.5t-22 1h-1q-4 0 -6 2t-2 3.5t1 2.5q145 41 224 109h3q8 0 7 -9q-12 -86 -13 -167h60q11 0 11 -6q0 -7 -11 -7h-61v-44v-337q0 -35 8 -53t27 -18q36 0 47.5 33t13.5 89q0 5 3.5 5.5zM362.5 92q14.5 23 17.5 78l-1 65q-6 104 -40.5 168.5
t-99.5 64.5q-81 0 -81 -103q0 -68 25.5 -137t63.5 -114t73 -45q28 0 42.5 23z" />
    <glyph glyph-name="Emacron" unicode="&#x112;" horiz-adv-x="667" 
d="M36 -3q-6 0 -6.5 4.5t6.5 4.5q32 1 52 31.5t20 97.5v430q0 67 -20 97.5t-52 31.5q-7 0 -7 4q0 2 2 3.5t5 1.5q45 -3 64 -3h298q47 0 78 3t72 8q30 4 34 4q11 0 16.5 -6.5t6.5 -21.5q4 -105 23 -272q1 -4 -2 -5t-5 3q-29 84 -52 128t-50 75q-39 44 -87.5 59.5t-113.5 15.5
q-32 0 -32 -43v-243q0 -12 5 -21t16 -9q32 0 56 2q31 4 54.5 31t42.5 89q2 6 5.5 6t2.5 -6q-6 -42 -6 -106q0 -97 11 -158v-1q0 -4 -3 -4t-5 5q-21 64 -46.5 95.5t-55.5 35.5q-24 2 -56 2q-11 0 -16 -9t-5 -21v-268q0 -31 8 -45t27 -14q67 0 125.5 20.5t100.5 62.5
q64 63 97 189q2 8 5.5 6t1.5 -7q-19 -130 -21 -267q0 -15 -6 -21.5t-18 -6.5q-13 0 -32 4q-80 11 -164 11h-310q-19 0 -64 -3zM198 771q-11 0 -11 7q0 2 3 4t8 2h271q10 0 10 -6q0 -7 -10 -7h-271z" />
    <glyph glyph-name="emacron" unicode="&#x113;" horiz-adv-x="515" 
d="M487 93q1 -1 2 -2.5t-1 -4.5q-38 -49 -100.5 -76.5t-121.5 -27.5q-67 0 -124 30t-91 85t-34 127q0 68 36 127.5t99 95.5t139 36q85 0 142 -43t57 -121q0 -36 -13 -76l-297 -10q35 -74 96 -123.5t125 -49.5q51 0 84 33q1 1 2 0zM166.5 436q-18.5 -25 -18.5 -72
q0 -60 29 -124q70 1 123 5l26 1q11 7 11 30q0 30 -18.5 75t-46 77.5t-51.5 32.5q-36 0 -54.5 -25zM147 596q-11 0 -11 7q0 2 3 4t8 2h271q10 0 10 -6q0 -7 -10 -7h-271z" />
    <glyph glyph-name="Ebreve" unicode="&#x114;" horiz-adv-x="667" 
d="M36 -3q-6 0 -6.5 4.5t6.5 4.5q32 1 52 31.5t20 97.5v430q0 67 -20 97.5t-52 31.5q-7 0 -7 4q0 2 2 3.5t5 1.5q45 -3 64 -3h298q47 0 78 3t72 8q30 4 34 4q11 0 16.5 -6.5t6.5 -21.5q4 -105 23 -272q1 -4 -2 -5t-5 3q-29 84 -52 128t-50 75q-39 44 -87.5 59.5t-113.5 15.5
q-32 0 -32 -43v-243q0 -12 5 -21t16 -9q32 0 56 2q31 4 54.5 31t42.5 89q2 6 5.5 6t2.5 -6q-6 -42 -6 -106q0 -97 11 -158v-1q0 -4 -3 -4t-5 5q-21 64 -46.5 95.5t-55.5 35.5q-24 2 -56 2q-11 0 -16 -9t-5 -21v-268q0 -31 8 -45t27 -14q67 0 125.5 20.5t100.5 62.5
q64 63 97 189q2 8 5.5 6t1.5 -7q-19 -130 -21 -267q0 -15 -6 -21.5t-18 -6.5q-13 0 -32 4q-80 11 -164 11h-310q-19 0 -64 -3zM295 888.5q13 -4.5 13 -14.5q0 -39 18.5 -68.5t52.5 -29.5q36 0 53.5 27.5t17.5 68.5q0 8 5 8t5 -7q0 -57 -32.5 -96.5t-94.5 -39.5
q-66 0 -102.5 41t-36.5 99q0 8 9 12t38 4q41 0 54 -4.5z" />
    <glyph glyph-name="ebreve" unicode="&#x115;" horiz-adv-x="515" 
d="M487 93q1 -1 2 -2.5t-1 -4.5q-38 -49 -100.5 -76.5t-121.5 -27.5q-67 0 -124 30t-91 85t-34 127q0 68 36 127.5t99 95.5t139 36q85 0 142 -43t57 -121q0 -36 -13 -76l-297 -10q35 -74 96 -123.5t125 -49.5q51 0 84 33q1 1 2 0zM166.5 436q-18.5 -25 -18.5 -72
q0 -60 29 -124q70 1 123 5l26 1q11 7 11 30q0 30 -18.5 75t-46 77.5t-51.5 32.5q-36 0 -54.5 -25zM243 669.5q13 -4.5 13 -14.5q0 -39 18.5 -68.5t52.5 -29.5q36 0 53.5 27.5t17.5 68.5q0 8 5 8t5 -7q0 -57 -32.5 -96.5t-94.5 -39.5q-66 0 -102.5 41t-36.5 99q0 8 9 12t38 4
q41 0 54 -4.5z" />
    <glyph glyph-name="Edotaccent" unicode="&#x116;" horiz-adv-x="667" 
d="M36 -3q-6 0 -6.5 4.5t6.5 4.5q32 1 52 31.5t20 97.5v430q0 67 -20 97.5t-52 31.5q-7 0 -7 4q0 2 2 3.5t5 1.5q45 -3 64 -3h298q47 0 78 3t72 8q30 4 34 4q11 0 16.5 -6.5t6.5 -21.5q4 -105 23 -272q1 -4 -2 -5t-5 3q-29 84 -52 128t-50 75q-39 44 -87.5 59.5t-113.5 15.5
q-32 0 -32 -43v-243q0 -12 5 -21t16 -9q32 0 56 2q31 4 54.5 31t42.5 89q2 6 5.5 6t2.5 -6q-6 -42 -6 -106q0 -97 11 -158v-1q0 -4 -3 -4t-5 5q-21 64 -46.5 95.5t-55.5 35.5q-24 2 -56 2q-11 0 -16 -9t-5 -21v-268q0 -31 8 -45t27 -14q67 0 125.5 20.5t100.5 62.5
q64 63 97 189q2 8 5.5 6t1.5 -7q-19 -130 -21 -267q0 -15 -6 -21.5t-18 -6.5q-13 0 -32 4q-80 11 -164 11h-310q-19 0 -64 -3zM268.5 757.5q-20.5 15.5 -20.5 39.5q0 31 28.5 52.5t71.5 21.5q35 0 56 -16t21 -41q0 -30 -29 -51t-73 -21q-34 0 -54.5 15.5z" />
    <glyph glyph-name="edotaccent" unicode="&#x117;" horiz-adv-x="515" 
d="M487 93q1 -1 2 -2.5t-1 -4.5q-38 -49 -100.5 -76.5t-121.5 -27.5q-67 0 -124 30t-91 85t-34 127q0 68 36 127.5t99 95.5t139 36q85 0 142 -43t57 -121q0 -36 -13 -76l-297 -10q35 -74 96 -123.5t125 -49.5q51 0 84 33q1 1 2 0zM166.5 436q-18.5 -25 -18.5 -72
q0 -60 29 -124q70 1 123 5l26 1q11 7 11 30q0 30 -18.5 75t-46 77.5t-51.5 32.5q-36 0 -54.5 -25zM226.5 554.5q-21.5 18.5 -21.5 43.5q1 30 24.5 51t61.5 21q30 0 51 -18t21 -44q0 -30 -23.5 -51t-61.5 -21q-30 0 -51.5 18.5z" />
    <glyph glyph-name="Eogonek" unicode="&#x118;" horiz-adv-x="667" 
d="M528.5 -51q-8.5 -19 -8.5 -38q0 -26 13.5 -38t35.5 -12q59 0 59 62q0 6 4 6t4 -6q0 -47 -35 -79t-96 -32q-40 0 -62.5 15.5t-22.5 44.5q0 36 30.5 66t83.5 56q-58 6 -124 6h-310q-19 0 -64 -3q-6 0 -6.5 4.5t6.5 4.5q32 1 52 31.5t20 97.5v430q0 67 -20 97.5t-52 31.5
q-7 0 -7 4q0 2 2 3.5t5 1.5q45 -3 64 -3h298q47 0 78 3t72 8q30 4 34 4q11 0 16.5 -6.5t6.5 -21.5q4 -105 23 -272q1 -4 -2 -5t-5 3q-29 84 -52 128t-50 75q-39 44 -87.5 59.5t-113.5 15.5q-32 0 -32 -43v-243q0 -12 5 -21t16 -9q32 0 56 2q31 4 54.5 31t42.5 89q2 6 5.5 6
t2.5 -6q-6 -42 -6 -106q0 -97 11 -158v-1q0 -4 -3 -4t-5 5q-21 64 -46.5 95.5t-55.5 35.5q-24 2 -56 2q-11 0 -16 -9t-5 -21v-268q0 -31 8 -45t27 -14q67 0 125.5 20.5t100.5 62.5q64 63 97 189q2 8 5.5 6t1.5 -7q-19 -130 -21 -267q0 -15 -5 -21t-17 -7q-13 0 -48 6
q-23 -23 -31.5 -42z" />
    <glyph glyph-name="eogonek" unicode="&#x119;" horiz-adv-x="515" 
d="M487 93q1 -1 2 -2.5t-1 -4.5q-38 -49 -105 -79q-59 -48 -59 -96q0 -26 13.5 -38t35.5 -12q59 0 59 62q0 6 4 6t4 -6q0 -47 -35 -79t-96 -32q-40 0 -62.5 15.5t-22.5 44.5q0 35 28.5 63.5t77.5 54.5q-35 -8 -64 -8q-67 0 -124 30t-91 85t-34 127q0 68 36 127.5t99 95.5
t139 36q85 0 142 -43t57 -121q0 -36 -13 -76l-297 -10q35 -74 96 -123.5t125 -49.5q51 0 84 33q1 1 2 0zM166.5 436q-18.5 -25 -18.5 -72q0 -60 29 -124q70 1 123 5l26 1q11 7 11 30q0 30 -18.5 75t-46 77.5t-51.5 32.5q-36 0 -54.5 -25z" />
    <glyph glyph-name="Ecaron" unicode="&#x11a;" horiz-adv-x="667" 
d="M36 -3q-6 0 -6.5 4.5t6.5 4.5q32 1 52 31.5t20 97.5v430q0 67 -20 97.5t-52 31.5q-7 0 -7 4q0 2 2 3.5t5 1.5q45 -3 64 -3h298q47 0 78 3t72 8q30 4 34 4q11 0 16.5 -6.5t6.5 -21.5q4 -105 23 -272q1 -4 -2 -5t-5 3q-29 84 -52 128t-50 75q-39 44 -87.5 59.5t-113.5 15.5
q-32 0 -32 -43v-243q0 -12 5 -21t16 -9q32 0 56 2q31 4 54.5 31t42.5 89q2 6 5.5 6t2.5 -6q-6 -42 -6 -106q0 -97 11 -158v-1q0 -4 -3 -4t-5 5q-21 64 -46.5 95.5t-55.5 35.5q-24 2 -56 2q-11 0 -16 -9t-5 -21v-268q0 -31 8 -45t27 -14q67 0 125.5 20.5t100.5 62.5
q64 63 97 189q2 8 5.5 6t1.5 -7q-19 -130 -21 -267q0 -15 -6 -21.5t-18 -6.5q-13 0 -32 4q-80 11 -164 11h-310q-19 0 -64 -3zM506.5 870q1.5 -3 -2.5 -4q-40 -14 -60 -32.5t-40 -46.5q-17 -23 -30.5 -33.5t-40.5 -10.5q-29 0 -43.5 10.5t-31.5 34.5q-18 26 -37.5 44
t-57.5 33q-4 2 -3 5t6 3q34 -1 83.5 -20t82.5 -44q32 25 83 44t85 20q5 0 6.5 -3z" />
    <glyph glyph-name="ecaron" unicode="&#x11b;" horiz-adv-x="515" 
d="M487 93q1 -1 2 -2.5t-1 -4.5q-38 -49 -100.5 -76.5t-121.5 -27.5q-67 0 -124 30t-91 85t-34 127q0 68 36 127.5t99 95.5t139 36q85 0 142 -43t57 -121q0 -36 -13 -76l-297 -10q35 -74 96 -123.5t125 -49.5q51 0 84 33q1 1 2 0zM166.5 436q-18.5 -25 -18.5 -72
q0 -60 29 -124q70 1 123 5l26 1q11 7 11 30q0 30 -18.5 75t-46 77.5t-51.5 32.5q-36 0 -54.5 -25zM455 673.5q2 -3.5 -2 -5.5q-40 -18 -60.5 -41.5t-39.5 -58.5q-16 -30 -29.5 -43t-41.5 -13q-29 0 -43.5 13.5t-31.5 43.5q-17 32 -37.5 55.5t-57.5 42.5q-4 2 -2.5 6t5.5 4
q34 -2 84 -26.5t82 -55.5q32 32 83.5 56.5t84.5 25.5q4 0 6 -3.5z" />
    <glyph glyph-name="Gcircumflex" unicode="&#x11c;" horiz-adv-x="730" 
d="M704 338q10 0 14 -3t4 -11q0 -7 -3.5 -20.5t-4.5 -25.5q-5 -39 -5 -129q0 -10 -2.5 -16t-8.5 -14q-58 -69 -138.5 -103t-170.5 -34q-96 0 -178 44t-130.5 124.5t-48.5 185.5q0 103 52.5 190.5t141 139t191.5 51.5q73 0 135.5 -16.5t99 -41.5t36.5 -49q0 -6 -1 -9
l-108 -269q63 0 115 5zM597.5 144q-10.5 36 -31.5 91q-45 72 -166 97q-6 1 -5.5 5.5t6.5 3.5q73 -9 170 -9q14 35 14 76q0 77 -52 152q-38 57 -93 91t-105 34q-147 0 -147 -146q0 -123 49.5 -244t123.5 -198t142 -77q95 0 104 63q1 25 -9.5 61zM582 743q0 -5 -7 -5
q-35 2 -88 23t-88 48q-34 -28 -88.5 -49t-90.5 -22q-5 0 -6 3.5t3 4.5q42 15 64 36t42 51q17 26 31.5 37.5t43.5 11.5q31 0 46.5 -12t33.5 -38q18 -28 39.5 -48.5t61.5 -37.5q3 -1 3 -3z" />
    <glyph glyph-name="gcircumflex" unicode="&#x11d;" horiz-adv-x="524" 
d="M489 11q33 -37 33 -87q0 -61 -39 -100.5t-108 -39.5q-78 0 -125 53q-58 -24 -114 -24q-60 0 -91 32t-31 83q0 50 30 90t77 67q-52 22 -81.5 65.5t-29.5 102.5q0 68 33.5 119.5t91 80t127.5 28.5q47 0 111 -6q68 -8 123 -7q3 0 3 -4q0 -3 -3 -5.5t-8 -2.5q-40 2 -50 2
q-46 0 -46 -9q0 -3 7 -8q41 -29 66 -71t25 -93q0 -60 -33.5 -109.5t-91.5 -77.5t-128 -28q-58 0 -105 18q-29 -14 -43 -28t-14 -38q0 -18 12.5 -29t32.5 -11q30 0 58 8.5t75 27.5q45 18 78.5 28t68.5 10q56 0 89 -37zM151 440q-19 -21 -19 -62q0 -62 23.5 -131.5t60.5 -117
t77 -47.5q37 0 56 20.5t19 58.5q0 55 -25 126.5t-63 122.5t-73 51q-37 0 -56 -21zM439 -191.5q23 12.5 23 38.5q0 19 -12 30t-34 11q-31 0 -60 -9t-68 -27l-28 -12q46 -44 118 -44q38 0 61 12.5zM438 527q0 -2 -2 -4t-5 -2q-33 2 -83.5 26t-82.5 56q-31 -32 -82.5 -56.5
t-85.5 -25.5q-4 0 -5.5 3.5t2.5 5.5q40 18 61 42t38 58q16 30 29.5 43t41.5 13q29 0 44 -13.5t32 -43.5q17 -32 37.5 -55.5t57.5 -42.5q3 -1 3 -4z" />
    <glyph glyph-name="Gbreve" unicode="&#x11e;" horiz-adv-x="730" 
d="M704 338q10 0 14 -3t4 -11q0 -7 -3.5 -20.5t-4.5 -25.5q-5 -39 -5 -129q0 -10 -2.5 -16t-8.5 -14q-58 -69 -138.5 -103t-170.5 -34q-96 0 -178 44t-130.5 124.5t-48.5 185.5q0 103 52.5 190.5t141 139t191.5 51.5q73 0 135.5 -16.5t99 -41.5t36.5 -49q0 -6 -1 -9
l-108 -269q63 0 115 5zM597.5 144q-10.5 36 -31.5 91q-45 72 -166 97q-6 1 -5.5 5.5t6.5 3.5q73 -9 170 -9q14 35 14 76q0 77 -52 152q-38 57 -93 91t-105 34q-147 0 -147 -146q0 -123 49.5 -244t123.5 -198t142 -77q95 0 104 63q1 25 -9.5 61zM358 888.5q13 -4.5 13 -14.5
q0 -39 18.5 -68.5t52.5 -29.5q36 0 53.5 27.5t17.5 68.5q0 8 5 8t5 -7q0 -57 -32.5 -96.5t-94.5 -39.5q-66 0 -102.5 41t-36.5 99q0 8 9 12t38 4q41 0 54 -4.5z" />
    <glyph glyph-name="gbreve" unicode="&#x11f;" horiz-adv-x="524" 
d="M489 11q33 -37 33 -87q0 -61 -39 -100.5t-108 -39.5q-78 0 -125 53q-58 -24 -114 -24q-60 0 -91 32t-31 83q0 50 30 90t77 67q-52 22 -81.5 65.5t-29.5 102.5q0 68 33.5 119.5t91 80t127.5 28.5q47 0 111 -6q68 -8 123 -7q3 0 3 -4q0 -3 -3 -5.5t-8 -2.5q-40 2 -50 2
q-46 0 -46 -9q0 -3 7 -8q41 -29 66 -71t25 -93q0 -60 -33.5 -109.5t-91.5 -77.5t-128 -28q-58 0 -105 18q-29 -14 -43 -28t-14 -38q0 -18 12.5 -29t32.5 -11q30 0 58 8.5t75 27.5q45 18 78.5 28t68.5 10q56 0 89 -37zM151 440q-19 -21 -19 -62q0 -62 23.5 -131.5t60.5 -117
t77 -47.5q37 0 56 20.5t19 58.5q0 55 -25 126.5t-63 122.5t-73 51q-37 0 -56 -21zM439 -191.5q23 12.5 23 38.5q0 19 -12 30t-34 11q-31 0 -60 -9t-68 -27l-28 -12q46 -44 118 -44q38 0 61 12.5zM225 669.5q13 -4.5 13 -14.5q0 -39 18.5 -68.5t52.5 -29.5q36 0 53.5 27.5
t17.5 68.5q0 8 5 8t5 -7q0 -57 -32.5 -96.5t-94.5 -39.5q-66 0 -102.5 41t-36.5 99q0 8 9 12t38 4q41 0 54 -4.5z" />
    <glyph glyph-name="Gdotaccent" unicode="&#x120;" horiz-adv-x="730" 
d="M704 338q10 0 14 -3t4 -11q0 -7 -3.5 -20.5t-4.5 -25.5q-5 -39 -5 -129q0 -10 -2.5 -16t-8.5 -14q-58 -69 -138.5 -103t-170.5 -34q-96 0 -178 44t-130.5 124.5t-48.5 185.5q0 103 52.5 190.5t141 139t191.5 51.5q73 0 135.5 -16.5t99 -41.5t36.5 -49q0 -6 -1 -9
l-108 -269q63 0 115 5zM597.5 144q-10.5 36 -31.5 91q-45 72 -166 97q-6 1 -5.5 5.5t6.5 3.5q73 -9 170 -9q14 35 14 76q0 77 -52 152q-38 57 -93 91t-105 34q-147 0 -147 -146q0 -123 49.5 -244t123.5 -198t142 -77q95 0 104 63q1 25 -9.5 61zM332.5 757.5
q-20.5 15.5 -20.5 39.5q0 31 28.5 52.5t71.5 21.5q35 0 56 -16t21 -41q0 -30 -29 -51t-73 -21q-34 0 -54.5 15.5z" />
    <glyph glyph-name="gdotaccent" unicode="&#x121;" horiz-adv-x="524" 
d="M489 11q33 -37 33 -87q0 -61 -39 -100.5t-108 -39.5q-78 0 -125 53q-58 -24 -114 -24q-60 0 -91 32t-31 83q0 50 30 90t77 67q-52 22 -81.5 65.5t-29.5 102.5q0 68 33.5 119.5t91 80t127.5 28.5q47 0 111 -6q68 -8 123 -7q3 0 3 -4q0 -3 -3 -5.5t-8 -2.5q-40 2 -50 2
q-46 0 -46 -9q0 -3 7 -8q41 -29 66 -71t25 -93q0 -60 -33.5 -109.5t-91.5 -77.5t-128 -28q-58 0 -105 18q-29 -14 -43 -28t-14 -38q0 -18 12.5 -29t32.5 -11q30 0 58 8.5t75 27.5q45 18 78.5 28t68.5 10q56 0 89 -37zM151 440q-19 -21 -19 -62q0 -62 23.5 -131.5t60.5 -117
t77 -47.5q37 0 56 20.5t19 58.5q0 55 -25 126.5t-63 122.5t-73 51q-37 0 -56 -21zM439 -191.5q23 12.5 23 38.5q0 19 -12 30t-34 11q-31 0 -60 -9t-68 -27l-28 -12q46 -44 118 -44q38 0 61 12.5zM208.5 554.5q-21.5 18.5 -21.5 43.5q1 30 24.5 51t61.5 21q30 0 51 -18
t21 -44q0 -30 -23.5 -51t-61.5 -21q-30 0 -51.5 18.5z" />
    <glyph glyph-name="uni0122" unicode="&#x122;" horiz-adv-x="730" 
d="M704 338q10 0 14 -3t4 -11q0 -7 -3.5 -20.5t-4.5 -25.5q-5 -39 -5 -129q0 -10 -2.5 -16t-8.5 -14q-58 -69 -138.5 -103t-170.5 -34q-96 0 -178 44t-130.5 124.5t-48.5 185.5q0 103 52.5 190.5t141 139t191.5 51.5q73 0 135.5 -16.5t99 -41.5t36.5 -49q0 -6 -1 -9
l-108 -269q63 0 115 5zM597.5 144q-10.5 36 -31.5 91q-45 72 -166 97q-6 1 -5.5 5.5t6.5 3.5q73 -9 170 -9q14 35 14 76q0 77 -52 152q-38 57 -93 91t-105 34q-147 0 -147 -146q0 -123 49.5 -244t123.5 -198t142 -77q95 0 104 63q1 25 -9.5 61zM433.5 -44q11.5 -11 11.5 -29
q0 -24 -16 -46t-39 -37t-40 -18q-3 -1 -3.5 1t3.5 3q52 18 52 57q0 8 -6 11t-19 5q-17 3 -25.5 8t-8.5 19q0 13 16 25t39 12q24 0 35.5 -11z" />
    <glyph glyph-name="uni0123" unicode="&#x123;" horiz-adv-x="524" 
d="M489 11q33 -37 33 -87q0 -61 -39 -100.5t-108 -39.5q-78 0 -125 53q-58 -24 -114 -24q-60 0 -91 32t-31 83q0 50 30 90t77 67q-52 22 -81.5 65.5t-29.5 102.5q0 68 33.5 119.5t91 80t127.5 28.5q47 0 111 -6q68 -8 123 -7q3 0 3 -4q0 -3 -3 -5.5t-8 -2.5q-40 2 -50 2
q-46 0 -46 -9q0 -3 7 -8q41 -29 66 -71t25 -93q0 -60 -33.5 -109.5t-91.5 -77.5t-128 -28q-58 0 -105 18q-29 -14 -43 -28t-14 -38q0 -18 12.5 -29t32.5 -11q30 0 58 8.5t75 27.5q45 18 78.5 28t68.5 10q56 0 89 -37zM151 440q-19 -21 -19 -62q0 -62 23.5 -131.5t60.5 -117
t77 -47.5q37 0 56 20.5t19 58.5q0 55 -25 126.5t-63 122.5t-73 51q-37 0 -56 -21zM439 -191.5q23 12.5 23 38.5q0 19 -12 30t-34 11q-31 0 -60 -9t-68 -27l-28 -12q46 -44 118 -44q38 0 61 12.5zM339.5 770q0.5 -3 -4.5 -5q-85 -29 -85 -93q0 -13 10 -17.5t31 -8.5
q28 -5 42 -13.5t14 -31.5q0 -13 -12 -27t-32 -23.5t-45 -9.5q-40 0 -59 18t-19 47q0 40 26.5 76.5t63 60.5t64.5 29q5 1 5.5 -2z" />
    <glyph glyph-name="Hcircumflex" unicode="&#x124;" horiz-adv-x="851" 
d="M822.5 1.5q-0.5 -4.5 -6.5 -4.5q-48 3 -65 3h-194q-19 0 -64 -3q-7 0 -7.5 4.5t6.5 4.5q33 1 53 31.5t20 97.5v236q0 21 -15 13q-120 -59 -250 -70q-14 -1 -14 -23v-156q0 -67 20.5 -97.5t52.5 -31.5q7 0 6.5 -4.5t-6.5 -4.5q-48 3 -65 3h-194q-19 0 -64 -3
q-6 0 -6.5 4.5t6.5 4.5q32 1 52 31.5t20 97.5v430q0 67 -20 97.5t-52 31.5q-7 0 -7 4q0 2 2 3.5t5 1.5q45 -3 64 -3h194q17 0 65 3q6 0 6.5 -4.5t-6.5 -4.5q-32 -1 -52.5 -31.5t-20.5 -97.5v-226q0 -9 3 -13t11 -3q60 4 124 22t123 47q18 9 18 26v147q0 67 -20 97.5
t-53 31.5q-6 0 -6 4q0 5 7 5q45 -3 64 -3h194q17 0 65 3q6 0 6.5 -4.5t-6.5 -4.5q-32 -1 -52.5 -31.5t-20.5 -97.5v-430q0 -67 20.5 -97.5t52.5 -31.5q7 0 6.5 -4.5zM611 743q0 -5 -7 -5q-35 2 -88 23t-88 48q-34 -28 -88.5 -49t-90.5 -22q-5 0 -6 3.5t3 4.5q42 15 64 36
t42 51q17 26 31.5 37.5t43.5 11.5q31 0 46.5 -12t33.5 -38q18 -28 39.5 -48.5t61.5 -37.5q3 -1 3 -3z" />
    <glyph glyph-name="hcircumflex" unicode="&#x125;" horiz-adv-x="700" 
d="M710.5 207.5q4.5 0.5 4.5 -6.5q0 -67 -22 -116.5t-57.5 -75.5t-75.5 -26q-37 0 -65 30t-42 89l-65 264q-8 32 -19.5 45.5t-37.5 13.5q-41 0 -63.5 -49.5t-22.5 -124.5v-141q0 -59 11.5 -80.5t48.5 -22.5q5 0 5 -4.5t-5 -4.5q-46 2 -125 2q-102 0 -160 -2q-5 0 -5 4.5
t6 4.5q25 0 36.5 5.5t17 27.5t5.5 71l-3 386q0 51 -4.5 75t-13.5 29.5t-25 3.5h-2q-4 0 -6 2t-2 3.5t1 2.5q146 41 225 109h3q7 0 6 -9q-8 -56 -11 -106.5t-3 -117.5v-137q14 55 58.5 93.5t108.5 38.5q63 0 97.5 -28.5t47.5 -84.5l61 -246q11 -45 39 -45q22 0 36 37t13 84
q0 6 4.5 6.5zM408 743q0 -5 -7 -5q-35 2 -88 23t-88 48q-34 -28 -88.5 -49t-90.5 -22q-5 0 -6 3.5t3 4.5q42 15 64 36t42 51q17 26 31.5 37.5t43.5 11.5q31 0 46.5 -12t33.5 -38q18 -28 39.5 -48.5t61.5 -37.5q3 -1 3 -3z" />
    <glyph glyph-name="Hbar" unicode="&#x126;" horiz-adv-x="851" 
d="M822.5 1.5q-0.5 -4.5 -6.5 -4.5q-48 3 -65 3h-194q-19 0 -64 -3q-7 0 -7.5 4.5t6.5 4.5q33 1 53 31.5t20 97.5v236q0 21 -15 13q-120 -59 -250 -70q-14 -1 -14 -23v-156q0 -67 20.5 -97.5t52.5 -31.5q7 0 6.5 -4.5t-6.5 -4.5q-48 3 -65 3h-194q-19 0 -64 -3
q-6 0 -6.5 4.5t6.5 4.5q32 1 52 31.5t20 97.5v371h-62q-6 0 -6 4t6 4h62v51q0 67 -20 97.5t-52 31.5q-7 0 -7 4q0 2 2 3.5t5 1.5q45 -3 64 -3h194q17 0 65 3q6 0 6.5 -4.5t-6.5 -4.5q-32 -1 -52.5 -31.5t-20.5 -97.5v-51h279v51q0 67 -20 97.5t-53 31.5q-6 0 -6 4q0 5 7 5
q45 -3 64 -3h194q17 0 65 3q6 0 6.5 -4.5t-6.5 -4.5q-32 -1 -52.5 -31.5t-20.5 -97.5v-51h57q7 0 7 -4t-7 -4h-57v-371q0 -67 20.5 -97.5t52.5 -31.5q7 0 6.5 -4.5zM565 418v88h-279v-167q0 -9 3 -13t11 -3q60 4 124 22t123 47q18 9 18 26z" />
    <glyph glyph-name="hbar" unicode="&#x127;" horiz-adv-x="700" 
d="M710.5 207.5q4.5 0.5 4.5 -6.5q0 -67 -22 -116.5t-57.5 -75.5t-75.5 -26q-37 0 -65 30t-42 89l-65 264q-8 32 -19.5 45.5t-37.5 13.5q-41 0 -63.5 -49.5t-22.5 -124.5v-141q0 -59 11.5 -80.5t48.5 -22.5q5 0 5 -4.5t-5 -4.5q-46 2 -125 2q-102 0 -160 -2q-5 0 -5 4.5
t6 4.5q25 0 36.5 5.5t17 27.5t5.5 71l-3 386v25h-67q-12 0 -12 7q0 6 12 6h66q-1 33 -6.5 48.5t-13.5 19.5t-22 2h-2q-4 0 -6 2t-2 3.5t1 2.5q146 41 225 109h3q7 0 6 -9q-13 -88 -14 -178h75q12 0 12 -6q0 -7 -12 -7h-75v-33v-137q14 55 58.5 93.5t108.5 38.5
q63 0 97.5 -28.5t47.5 -84.5l61 -246q11 -45 39 -45q22 0 36 37t13 84q0 6 4.5 6.5z" />
    <glyph glyph-name="Itilde" unicode="&#x128;" horiz-adv-x="395" 
d="M88 662.5q-20 30.5 -52 31.5q-7 0 -7 4q0 2 2 3.5t5 1.5q45 -3 64 -3h194q17 0 65 3q6 0 6.5 -4.5t-6.5 -4.5q-32 -1 -52.5 -31.5t-20.5 -97.5v-430q0 -67 20.5 -97.5t52.5 -31.5q7 0 6.5 -4.5t-6.5 -4.5q-48 3 -65 3h-194q-19 0 -64 -3q-6 0 -6.5 4.5t6.5 4.5
q32 1 52 31.5t20 97.5v430q0 67 -20 97.5zM17 733q-6 0 -3 9q18 59 49 88t76 29q28 0 64 -12l49 -16q38 -12 59 -12q42 0 67 39q3 4 7 4q6 0 3 -9q-19 -59 -50 -88t-77 -29q-26 0 -62 11l-54 18q-51 17 -78 17q-20 0 -28.5 -9.5t-15.5 -32.5q-1 -7 -6 -7z" />
    <glyph glyph-name="itilde" unicode="&#x129;" horiz-adv-x="328" 
d="M260.5 42.5q12.5 -34.5 47.5 -35.5q5 0 5 -5t-5 -4q-19 1 -142 1q-124 0 -143 -1q-5 0 -4.5 4.5t6.5 4.5q30 0 44 31t14 95v167q0 56 -12.5 77.5t-51.5 17.5h-1q-3 0 -3.5 3.5t3.5 4.5q58 12 121.5 36t106.5 52q6 4 9 4q4 0 4 -8q-7 -72 -9 -111t-2 -93v-150
q0 -56 12.5 -90.5zM-26 543q-6 0 -3 9q18 59 49 88t76 29q28 0 64 -12l49 -16q38 -12 59 -12q42 0 67 39q3 4 7 4q6 0 3 -9q-19 -59 -50 -88t-77 -29q-26 0 -62 11l-54 18q-51 17 -78 17q-20 0 -28.5 -9.5t-15.5 -32.5q-1 -7 -6 -7z" />
    <glyph glyph-name="Imacron" unicode="&#x12a;" horiz-adv-x="395" 
d="M88 662.5q-20 30.5 -52 31.5q-7 0 -7 4q0 2 2 3.5t5 1.5q45 -3 64 -3h194q17 0 65 3q6 0 6.5 -4.5t-6.5 -4.5q-32 -1 -52.5 -31.5t-20.5 -97.5v-430q0 -67 20.5 -97.5t52.5 -31.5q7 0 6.5 -4.5t-6.5 -4.5q-48 3 -65 3h-194q-19 0 -64 -3q-6 0 -6.5 4.5t6.5 4.5
q32 1 52 31.5t20 97.5v430q0 67 -20 97.5zM65 771q-11 0 -11 7q0 2 3 4t8 2h271q10 0 10 -6q0 -7 -10 -7h-271z" />
    <glyph glyph-name="imacron" unicode="&#x12b;" horiz-adv-x="328" 
d="M260.5 42.5q12.5 -34.5 47.5 -35.5q5 0 5 -5t-5 -4q-19 1 -142 1q-124 0 -143 -1q-5 0 -4.5 4.5t6.5 4.5q30 0 44 31t14 95v167q0 56 -12.5 77.5t-51.5 17.5h-1q-3 0 -3.5 3.5t3.5 4.5q58 12 121.5 36t106.5 52q6 4 9 4q4 0 4 -8q-7 -72 -9 -111t-2 -93v-150
q0 -56 12.5 -90.5zM22 596q-11 0 -11 7q0 2 3 4t8 2h271q10 0 10 -6q0 -7 -10 -7h-271z" />
    <glyph glyph-name="Ibreve" unicode="&#x12c;" horiz-adv-x="395" 
d="M88 662.5q-20 30.5 -52 31.5q-7 0 -7 4q0 2 2 3.5t5 1.5q45 -3 64 -3h194q17 0 65 3q6 0 6.5 -4.5t-6.5 -4.5q-32 -1 -52.5 -31.5t-20.5 -97.5v-430q0 -67 20.5 -97.5t52.5 -31.5q7 0 6.5 -4.5t-6.5 -4.5q-48 3 -65 3h-194q-19 0 -64 -3q-6 0 -6.5 4.5t6.5 4.5
q32 1 52 31.5t20 97.5v430q0 67 -20 97.5zM162 888.5q13 -4.5 13 -14.5q0 -39 18.5 -68.5t52.5 -29.5q36 0 53.5 27.5t17.5 68.5q0 8 5 8t5 -7q0 -57 -32.5 -96.5t-94.5 -39.5q-66 0 -102.5 41t-36.5 99q0 8 9 12t38 4q41 0 54 -4.5z" />
    <glyph glyph-name="ibreve" unicode="&#x12d;" horiz-adv-x="328" 
d="M260.5 42.5q12.5 -34.5 47.5 -35.5q5 0 5 -5t-5 -4q-19 1 -142 1q-124 0 -143 -1q-5 0 -4.5 4.5t6.5 4.5q30 0 44 31t14 95v167q0 56 -12.5 77.5t-51.5 17.5h-1q-3 0 -3.5 3.5t3.5 4.5q58 12 121.5 36t106.5 52q6 4 9 4q4 0 4 -8q-7 -72 -9 -111t-2 -93v-150
q0 -56 12.5 -90.5zM118 669.5q13 -4.5 13 -14.5q0 -39 18.5 -68.5t52.5 -29.5q36 0 53.5 27.5t17.5 68.5q0 8 5 8t5 -7q0 -57 -32.5 -96.5t-94.5 -39.5q-66 0 -102.5 41t-36.5 99q0 8 9 12t38 4q41 0 54 -4.5z" />
    <glyph glyph-name="Iogonek" unicode="&#x12e;" horiz-adv-x="395" 
d="M365.5 1.5q-0.5 -4.5 -6.5 -4.5q-48 3 -65 3h-70q-36 -29 -49 -52.5t-13 -46.5q0 -26 13.5 -38t35.5 -12q59 0 59 62q0 6 4 6t4 -6q0 -47 -35 -79t-96 -32q-40 0 -62.5 15.5t-22.5 44.5q0 42 40 74.5t108 63.5h-110q-19 0 -64 -3q-6 0 -6.5 4.5t6.5 4.5q32 1 52 31.5
t20 97.5v430q0 67 -20 97.5t-52 31.5q-7 0 -7 4q0 2 2 3.5t5 1.5q45 -3 64 -3h194q17 0 65 3q6 0 6.5 -4.5t-6.5 -4.5q-32 -1 -52.5 -31.5t-20.5 -97.5v-430q0 -67 20.5 -97.5t52.5 -31.5q7 0 6.5 -4.5z" />
    <glyph glyph-name="iogonek" unicode="&#x12f;" horiz-adv-x="328" 
d="M76.5 564.5q-23.5 17.5 -23.5 45.5q0 36 32.5 61t83.5 25q40 0 64 -18.5t24 -46.5q0 -35 -33.5 -59.5t-83.5 -24.5q-40 0 -63.5 17.5zM352 -81q4 0 4 -6q0 -47 -35 -79t-96 -32q-40 0 -62.5 15.5t-22.5 44.5q0 41 39.5 74t105.5 63l-116 1q-108 0 -146 -2q-5 0 -4.5 4.5
t6.5 4.5q30 0 44 31t14 95v167q0 56 -12.5 77.5t-51.5 17.5h-1q-3 0 -3.5 3.5t3.5 4.5q58 12 121.5 36t106.5 52q6 4 9 4q4 0 4 -8q-7 -72 -9 -111t-2 -93v-150q0 -56 12.5 -90.5t47.5 -35.5q5 0 5 -5t-5 -4h-8q-35 -28 -47.5 -51.5t-12.5 -45.5q0 -26 13.5 -38t35.5 -12
q59 0 59 62q0 6 4 6z" />
    <glyph glyph-name="Idotaccent" unicode="&#x130;" horiz-adv-x="395" 
d="M88 662.5q-20 30.5 -52 31.5q-7 0 -7 4q0 2 2 3.5t5 1.5q45 -3 64 -3h194q17 0 65 3q6 0 6.5 -4.5t-6.5 -4.5q-32 -1 -52.5 -31.5t-20.5 -97.5v-430q0 -67 20.5 -97.5t52.5 -31.5q7 0 6.5 -4.5t-6.5 -4.5q-48 3 -65 3h-194q-19 0 -64 -3q-6 0 -6.5 4.5t6.5 4.5
q32 1 52 31.5t20 97.5v430q0 67 -20 97.5zM135.5 757.5q-20.5 15.5 -20.5 39.5q0 31 28.5 52.5t71.5 21.5q35 0 56 -16t21 -41q0 -30 -29 -51t-73 -21q-34 0 -54.5 15.5z" />
    <glyph glyph-name="dotlessi" unicode="&#x131;" horiz-adv-x="328" 
d="M260.5 42.5q12.5 -34.5 47.5 -35.5q5 0 5 -5t-5 -4q-19 1 -142 1q-124 0 -143 -1q-5 0 -4.5 4.5t6.5 4.5q30 0 44 31t14 95v167q0 56 -12.5 77.5t-51.5 17.5h-1q-3 0 -3.5 3.5t3.5 4.5q58 12 121.5 36t106.5 52q6 4 9 4q4 0 4 -8q-7 -72 -9 -111t-2 -93v-150
q0 -56 12.5 -90.5z" />
    <glyph glyph-name="IJ" unicode="&#x132;" horiz-adv-x="1010" 
d="M88 662.5q-20 30.5 -52 31.5q-7 0 -7 4q0 2 2 3.5t5 1.5q45 -3 64 -3h194q17 0 65 3q6 0 6.5 -4.5t-6.5 -4.5q-32 -1 -52.5 -31.5t-20.5 -97.5v-430q0 -67 20.5 -97.5t52.5 -31.5q7 0 6.5 -4.5t-6.5 -4.5q-48 3 -65 3h-194q-19 0 -64 -3q-6 0 -6.5 4.5t6.5 4.5
q32 1 52 31.5t20 97.5v430q0 67 -20 97.5zM518.5 7q-54.5 25 -80.5 63.5t-26 79.5q0 77 63 109t144 30q7 0 7 -4t-6 -5q-34 -5 -49 -22.5t-15 -58.5q0 -40 14 -86.5t44.5 -80.5t76.5 -34q43 0 61 27t18 80q0 28 -6 56t-17 68q-12 42 -18 72.5t-6 62.5v201q0 67 -20 97.5
t-53 31.5q-6 0 -6 4q0 2 2 3.5t5 1.5q45 -3 64 -3h194q17 0 65 3q6 0 6.5 -4.5t-6.5 -4.5q-32 -1 -52.5 -31.5t-20.5 -97.5v-322q0 -126 -67 -193.5t-181 -67.5q-80 0 -134.5 25z" />
    <glyph glyph-name="ij" unicode="&#x133;" horiz-adv-x="640" 
d="M260.5 42.5q12.5 -34.5 47.5 -35.5q5 0 5 -5t-5 -4q-19 1 -142 1q-124 0 -143 -1q-5 0 -4.5 4.5t6.5 4.5q30 0 44 31t14 95v167q0 56 -12.5 77.5t-51.5 17.5h-1q-3 0 -3.5 3.5t3.5 4.5q58 12 121.5 36t106.5 52q6 4 9 4q4 0 4 -8q-7 -72 -9 -111t-2 -93v-150
q0 -56 12.5 -90.5zM76.5 564.5q-23.5 17.5 -23.5 45.5q0 36 32.5 61t83.5 25q40 0 64 -18.5t24 -46.5q0 -35 -33.5 -59.5t-83.5 -24.5q-40 0 -63.5 17.5zM416 300q0 56 -12.5 77.5t-51.5 17.5h-1q-3 0 -3.5 3.5t3.5 4.5q58 12 121.5 36t106.5 52q6 4 9 4q4 0 3 -8
q-6 -73 -8 -112t-2 -92v-116q0 -104 -52.5 -176.5t-124.5 -108t-126 -36.5q-9 0 -9 6t9 6q45 1 73.5 15t46.5 64t18 152v211zM391.5 564.5q-23.5 17.5 -23.5 45.5q0 36 32.5 61t83.5 25q40 0 64 -18.5t24 -46.5q0 -35 -33.5 -59.5t-83.5 -24.5q-40 0 -63.5 17.5z" />
    <glyph glyph-name="Jcircumflex" unicode="&#x134;" horiz-adv-x="615" 
d="M123.5 7q-54.5 25 -80.5 63.5t-26 79.5q0 77 63 109t144 30q7 0 7 -4t-6 -5q-34 -5 -49 -22.5t-15 -58.5q0 -40 14 -86.5t44.5 -80.5t76.5 -34q43 0 61 27t18 80q0 28 -6 56t-17 68q-12 42 -18 72.5t-6 62.5v201q0 67 -20 97.5t-53 31.5q-6 0 -6 4q0 2 2 3.5t5 1.5
q45 -3 64 -3h194q17 0 65 3q6 0 6.5 -4.5t-6.5 -4.5q-32 -1 -52.5 -31.5t-20.5 -97.5v-322q0 -126 -67 -193.5t-181 -67.5q-80 0 -134.5 25zM485 743q0 -5 -7 -5q-35 2 -88 23t-88 48q-34 -28 -88.5 -49t-90.5 -22q-5 0 -6 3.5t3 4.5q42 15 64 36t42 51q17 26 31.5 37.5
t43.5 11.5q31 0 46.5 -12t33.5 -38q18 -28 39.5 -48.5t61.5 -37.5q3 -1 3 -3z" />
    <glyph glyph-name="jcircumflex" unicode="&#x135;" horiz-adv-x="312" 
d="M88 300q0 56 -12.5 77.5t-51.5 17.5h-1q-3 0 -3.5 3.5t3.5 4.5q58 12 121.5 36t106.5 52q6 4 9 4q4 0 3 -8q-6 -73 -8 -112t-2 -92v-116q0 -104 -52.5 -176.5t-124.5 -108t-126 -36.5q-9 0 -9 6t9 6q45 1 73.5 15t46.5 64t18 152v211zM318 527q0 -2 -2 -4t-5 -2
q-33 2 -83.5 26t-82.5 56q-31 -32 -82.5 -56.5t-85.5 -25.5q-4 0 -5.5 3.5t2.5 5.5q40 18 61 42t38 58q16 30 29.5 43t41.5 13q29 0 44 -13.5t32 -43.5q17 -32 37.5 -55.5t57.5 -42.5q3 -1 3 -4z" />
    <glyph glyph-name="uni0136" unicode="&#x136;" horiz-adv-x="734" 
d="M789 -56q0 -6 -9 -3q-154 45 -259 142.5t-179 257.5l-56 -67v-139q0 -67 20.5 -97.5t52.5 -31.5q7 0 6.5 -4.5t-6.5 -4.5q-48 3 -65 3h-194q-19 0 -64 -3q-6 0 -6.5 4.5t6.5 4.5q32 1 52 31.5t20 97.5v430q0 67 -20 97.5t-52 31.5q-7 0 -7 4q0 2 2 3.5t5 1.5q45 -3 64 -3
h194q17 0 65 3q6 0 6.5 -4.5t-6.5 -4.5q-32 -1 -52.5 -31.5t-20.5 -97.5v-279l52 64l-3 7l11 2l187 227q34 41 34 70q0 18 -12 27.5t-28 10.5q-6 0 -5.5 4.5t5.5 4.5q42 -3 57 -3h30q22 0 79 3q8 0 8 -5q0 -4 -8 -4q-34 -1 -66 -25.5t-81 -82.5l-188 -225q73 12 155 43l4 1
q6 0 8 -7q20 -95 61 -191.5t93.5 -167t103.5 -90.5q6 -2 6 -5zM323 -221.5q0 2.5 4 4.5q66 23 66 72q0 10 -8 14t-24 7q-22 4 -33 10.5t-11 24.5q0 16 20.5 31.5t49.5 15.5q31 0 46 -14.5t15 -36.5q0 -31 -21 -59.5t-49.5 -47.5t-50.5 -23q-4 -1 -4 1.5z" />
    <glyph glyph-name="uni0137" unicode="&#x137;" horiz-adv-x="615" 
d="M646 -30q0 -2 -2.5 -2.5t-6.5 0.5q-115 26 -201.5 93t-156.5 170l-34 -27v-94q0 -59 11.5 -80.5t48.5 -22.5q5 0 5 -4.5t-5 -4.5q-46 2 -125 2q-102 0 -160 -2q-5 0 -5 4.5t6 4.5q25 0 36.5 5.5t17 27.5t5.5 71l-3 386q0 51 -4.5 75t-13.5 29.5t-25 3.5h-2q-4 0 -6 2
t-2 3.5t1 2.5q146 41 225 109h3q7 0 6 -9q-8 -56 -11 -106.5t-3 -117.5v-278l30 26l-7 11q9 -4 38 15l130 113q23 19 23 36q0 19 -24.5 30.5t-47.5 15.5q-5 0 -4.5 4.5t5.5 4.5q48 -2 114 -2q69 0 107 2q6 0 6.5 -4.5t-5.5 -4.5q-39 0 -151 -82l-53 -43q4 1 5 -1
q63 -161 114.5 -242.5t116.5 -114.5q4 -1 4 -5zM266 -221.5q0 2.5 4 4.5q66 23 66 72q0 10 -8 14t-24 7q-22 4 -33 10.5t-11 24.5q0 16 20.5 31.5t49.5 15.5q31 0 46 -14.5t15 -36.5q0 -31 -21 -59.5t-49.5 -47.5t-50.5 -23q-4 -1 -4 1.5z" />
    <glyph glyph-name="kgreenlandic" unicode="&#x138;" horiz-adv-x="616" 
d="M647 -30q0 -2 -2.5 -2.5t-6.5 0.5q-115 26 -201.5 93t-156.5 170l-32 -26v-95q0 -59 11.5 -80.5t48.5 -22.5q5 0 5 -4.5t-5 -4.5q-46 2 -125 2q-102 0 -160 -2q-5 0 -5 4.5t6 4.5q25 0 36.5 5.5t17 27.5t5.5 71v189q0 56 -12.5 77.5t-51.5 17.5h-1q-3 0 -3.5 3.5t3.5 4.5
q58 12 121.5 36t106.5 52q6 4 9 4q4 0 4 -8q-7 -72 -9 -111t-2 -93v-70l28 24l-7 11q9 -4 38 15l130 113q23 19 23 36q0 19 -24.5 30.5t-47.5 15.5q-5 0 -4.5 4.5t5.5 4.5q48 -2 114 -2q69 0 107 2q6 0 7 -4.5t-6 -4.5q-39 0 -151 -82l-53 -43q4 1 5 -1
q63 -160 114.5 -241.5t116.5 -115.5q4 -1 4 -5z" />
    <glyph glyph-name="Lacute" unicode="&#x139;" horiz-adv-x="636" 
d="M36 -3q-6 0 -6.5 4.5t6.5 4.5q32 1 52 31.5t20 97.5v430q0 67 -20 97.5t-52 31.5q-7 0 -7 4q0 2 2 3.5t5 1.5q45 -3 64 -3h194q20 0 68 3q7 0 7 -5q0 -4 -7 -4q-34 -1 -55 -31.5t-21 -97.5v-509q0 -28 7.5 -37.5t28.5 -9.5q57 0 111 31.5t95 84.5q64 84 83 209q2 6 5 6
q2 0 3.5 -2t0.5 -5q-8 -68 -12.5 -146t-4.5 -140v-33v-8q0 -11 -3 -15.5t-12 -4.5q-8 0 -29 3q-107 11 -200 11h-259q-19 0 -64 -3zM211.5 747.5q-1.5 3.5 3.5 5.5q59 31 83 56t41 63q3 6 41 6q33 0 59.5 -5.5t25.5 -15.5q0 -20 -49 -46.5t-110 -46.5t-86 -20q-7 0 -8.5 3.5
z" />
    <glyph glyph-name="lacute" unicode="&#x13a;" horiz-adv-x="325" 
d="M72.5 571.5q-4.5 23.5 -13.5 29t-25 3.5h-2q-6 0 -7 4t0 5q145 39 225 109h2q9 0 7 -10q-8 -56 -11 -106.5t-3 -117.5v-355q0 -56 12.5 -90.5t47.5 -35.5q5 0 5 -5t-5 -4q-19 1 -142 1q-124 0 -143 -1q-5 0 -4.5 4.5t6.5 4.5q30 0 44 31t14 95l-3 363q0 52 -4.5 75.5z
M77.5 747.5q-1.5 3.5 3.5 5.5q59 31 83 56t41 63q3 6 41 6q33 0 59.5 -5.5t25.5 -15.5q0 -20 -49 -46.5t-110 -46.5t-86 -20q-7 0 -8.5 3.5z" />
    <glyph glyph-name="uni013B" unicode="&#x13b;" horiz-adv-x="636" 
d="M36 -3q-6 0 -6.5 4.5t6.5 4.5q32 1 52 31.5t20 97.5v430q0 67 -20 97.5t-52 31.5q-7 0 -7 4q0 2 2 3.5t5 1.5q45 -3 64 -3h194q20 0 68 3q7 0 7 -5q0 -4 -7 -4q-34 -1 -55 -31.5t-21 -97.5v-509q0 -28 7.5 -37.5t28.5 -9.5q57 0 111 31.5t95 84.5q64 84 83 209q2 6 5 6
q2 0 3.5 -2t0.5 -5q-8 -68 -12.5 -146t-4.5 -140v-33v-8q0 -11 -3 -15.5t-12 -4.5q-8 0 -29 3q-107 11 -200 11h-259q-19 0 -64 -3zM243 -221.5q0 2.5 4 4.5q66 23 66 72q0 10 -8 14t-24 7q-22 4 -33 10.5t-11 24.5q0 16 20.5 31.5t49.5 15.5q31 0 46 -14.5t15 -36.5
q0 -31 -21 -59.5t-49.5 -47.5t-50.5 -23q-4 -1 -4 1.5z" />
    <glyph glyph-name="uni013C" unicode="&#x13c;" horiz-adv-x="325" 
d="M72.5 571.5q-4.5 23.5 -13.5 29t-25 3.5h-2q-6 0 -7 4t0 5q145 39 225 109h2q9 0 7 -10q-8 -56 -11 -106.5t-3 -117.5v-355q0 -56 12.5 -90.5t47.5 -35.5q5 0 5 -5t-5 -4q-19 1 -142 1q-124 0 -143 -1q-5 0 -4.5 4.5t6.5 4.5q30 0 44 31t14 95l-3 363q0 52 -4.5 75.5z
M109 -221.5q0 2.5 4 4.5q66 23 66 72q0 10 -8 14t-24 7q-22 4 -33 10.5t-11 24.5q0 16 20.5 31.5t49.5 15.5q31 0 46 -14.5t15 -36.5q0 -31 -21 -59.5t-49.5 -47.5t-50.5 -23q-4 -1 -4 1.5z" />
    <glyph glyph-name="Lcaron" unicode="&#x13d;" horiz-adv-x="636" 
d="M36 -3q-6 0 -6.5 4.5t6.5 4.5q32 1 52 31.5t20 97.5v430q0 67 -20 97.5t-52 31.5q-7 0 -7 4q0 2 2 3.5t5 1.5q45 -3 64 -3h194q20 0 68 3q7 0 7 -5q0 -4 -7 -4q-34 -1 -55 -31.5t-21 -97.5v-509q0 -28 7.5 -37.5t28.5 -9.5q57 0 111 31.5t95 84.5q64 84 83 209q2 6 5 6
q2 0 3.5 -2t0.5 -5q-8 -68 -12.5 -146t-4.5 -140v-33v-8q0 -11 -3 -15.5t-12 -4.5q-8 0 -29 3q-107 11 -200 11h-259q-19 0 -64 -3zM584 485q-5 0 -5 6q-3 45 -12.5 72t-23.5 51q-9 17 -13 27t-4 23q0 21 10.5 28.5t47.5 7.5t48 -8t11 -29q0 -13 -3.5 -22.5t-13.5 -27.5
q-14 -25 -23.5 -51.5t-12.5 -70.5q-1 -6 -6 -6z" />
    <glyph glyph-name="lcaron" unicode="&#x13e;" horiz-adv-x="325" 
d="M72.5 571.5q-4.5 23.5 -13.5 29t-25 3.5h-2q-6 0 -7 4t0 5q145 39 225 109h2q9 0 7 -10q-8 -56 -11 -106.5t-3 -117.5v-355q0 -56 12.5 -90.5t47.5 -35.5q5 0 5 -5t-5 -4q-19 1 -142 1q-124 0 -143 -1q-5 0 -4.5 4.5t6.5 4.5q30 0 44 31t14 95l-3 363q0 52 -4.5 75.5z
M377 498q-5 0 -5 6q-3 45 -12.5 72t-23.5 51q-9 17 -13 27t-4 23q0 21 10.5 28.5t47.5 7.5t48 -8t11 -29q0 -13 -3.5 -22.5t-13.5 -27.5q-14 -25 -23.5 -51.5t-12.5 -70.5q-1 -6 -6 -6z" />
    <glyph glyph-name="Ldot" unicode="&#x13f;" horiz-adv-x="624" 
d="M36 -3q-6 0 -6.5 4.5t6.5 4.5q32 1 52 31.5t20 97.5v430q0 67 -20 97.5t-52 31.5q-7 0 -7 4q0 2 2 3.5t5 1.5q45 -3 64 -3h194q20 0 68 3q7 0 7 -5q0 -4 -7 -4q-34 -1 -55 -31.5t-21 -97.5v-509q0 -28 7.5 -37.5t28.5 -9.5q57 0 111 31.5t95 84.5q64 84 83 209q2 6 5 6
q2 0 3.5 -2t0.5 -5q-8 -68 -12.5 -146t-4.5 -140v-33v-8q0 -11 -3 -15.5t-12 -4.5q-8 0 -29 3q-107 11 -200 11h-259q-19 0 -64 -3zM445 401q-24 16 -24 40q0 32 33.5 54t85.5 22q39 0 62 -16t23 -41q0 -30 -33.5 -52t-83.5 -23q-39 0 -63 16z" />
    <glyph glyph-name="ldot" unicode="&#x140;" horiz-adv-x="347" 
d="M72.5 571.5q-4.5 23.5 -13.5 29t-25 3.5h-2q-6 0 -7 4t0 5q145 39 225 109h2q9 0 7 -10q-8 -56 -11 -106.5t-3 -117.5v-355q0 -56 12.5 -90.5t47.5 -35.5q5 0 5 -5t-5 -4q-19 1 -142 1q-124 0 -143 -1q-5 0 -4.5 4.5t6.5 4.5q30 0 44 31t14 95l-3 363q0 52 -4.5 75.5z
M285 276q-15 11 -15 27q0 22 21 37t53 15q26 0 40.5 -11t14.5 -28q0 -20 -21.5 -35.5t-52.5 -15.5q-25 0 -40 11z" />
    <glyph glyph-name="Lslash" unicode="&#x141;" horiz-adv-x="636" 
d="M616 340q2 0 3.5 -2t0.5 -5q-8 -68 -12.5 -146t-4.5 -140v-33v-8q0 -11 -3 -15.5t-12 -4.5q-8 0 -29 3q-107 11 -200 11h-259q-19 0 -64 -3q-6 0 -6.5 4.5t6.5 4.5q32 1 52 31.5t20 97.5v159l-69 -41q-2 -2 -7 -2q-4 0 -5 3.5t5 6.5l76 45v259q0 67 -20 97.5t-52 31.5
q-7 0 -7 4q0 2 2 3.5t5 1.5q45 -3 64 -3h194q20 0 68 3q7 0 7 -5q0 -4 -7 -4q-34 -1 -55 -31.5t-21 -97.5v-153l57 34q4 2 6 2q4 0 5 -3.5t-4 -6.5l-64 -38v-344q0 -28 7.5 -37.5t28.5 -9.5q57 0 111 31.5t95 84.5q64 84 83 209q2 6 5 6z" />
    <glyph glyph-name="lslash" unicode="&#x142;" horiz-adv-x="325" 
d="M307 424q1 1 4 1t4 -3t-3 -6l-67 -39v-244q0 -56 12.5 -90.5t47.5 -35.5q5 0 5 -5t-5 -4q-19 1 -142 1q-124 0 -143 -1q-5 0 -4.5 4.5t6.5 4.5q30 0 44 31t14 95l-1 148l-65 -37l-2 -1q-3 0 -4 4t2 6l69 40l-2 203q0 52 -4.5 75.5t-13.5 29t-25 3.5h-2q-6 0 -7 4t0 5
q145 39 225 109h2q9 0 7 -10q-8 -56 -11 -106.5t-3 -117.5v-100z" />
    <glyph glyph-name="Nacute" unicode="&#x143;" horiz-adv-x="776" 
d="M760.5 698.5q0.5 -4.5 -6.5 -4.5q-32 -1 -52 -31.5t-20 -97.5v-571q0 -7 -6 -7t-11 6l-516 617q-4 4 -7 4q-5 0 -5 -7v-473q0 -67 20.5 -97.5t52.5 -31.5q7 0 6.5 -4.5t-6.5 -4.5q-24 3 -65 3h-27q-41 0 -65 -3q-6 0 -6.5 4.5t6.5 4.5q32 1 52.5 31.5t20.5 97.5v505
q-27 29 -46.5 42t-39.5 14q-7 0 -6.5 4.5t6.5 4.5q23 -3 64 -3l167 -1q28 0 42 -16l345 -427q5 -5 9 -5t4 7l-1 306q0 67 -20 97.5t-52 31.5q-7 0 -7 4q0 2 2 3.5t5 1.5q45 -3 64 -3h28q19 0 64 3q6 0 6.5 -4.5zM171 588l-34 39zM329.5 747.5q-1.5 3.5 3.5 5.5q59 31 83 56
t41 63q3 6 41 6q33 0 59.5 -5.5t25.5 -15.5q0 -20 -49 -46.5t-110 -46.5t-86 -20q-7 0 -8.5 3.5z" />
    <glyph glyph-name="nacute" unicode="&#x144;" horiz-adv-x="701" 
d="M711.5 207.5q4.5 0.5 4.5 -6.5q0 -67 -22 -116.5t-58 -75.5t-75 -26q-37 0 -65 30t-42 89l-65 264q-8 32 -19.5 45.5t-37.5 13.5q-35 0 -56.5 -36t-27.5 -95v-11v-173q0 -59 11.5 -80.5t48.5 -22.5q5 0 5 -4.5t-5 -4.5q-46 2 -125 2q-102 0 -160 -2q-5 0 -5 4.5t6 4.5
q25 0 36.5 5.5t17 27.5t5.5 71v189q0 56 -12.5 77.5t-51.5 17.5h-1q-3 0 -3.5 3.5t3.5 4.5q58 12 121.5 36t106.5 52q6 4 9 4q4 0 4 -8q-7 -81 -10 -123q17 51 60.5 85.5t103.5 34.5q63 0 97 -28.5t48 -84.5l61 -246q6 -22 15 -33.5t24 -11.5q22 0 36 37t13 84q0 6 4.5 6.5z
M305 514q-3 0 -4 3t3 6q42 26 57.5 54.5t23.5 63.5q6 21 11 30t17 11q42 6 72 6q44 0 44 -9q0 -21 -44.5 -59t-100 -70.5t-78.5 -35.5h-1z" />
    <glyph glyph-name="uni0145" unicode="&#x145;" horiz-adv-x="776" 
d="M760.5 698.5q0.5 -4.5 -6.5 -4.5q-32 -1 -52 -31.5t-20 -97.5v-571q0 -7 -6 -7t-11 6l-516 617q-4 4 -7 4q-5 0 -5 -7v-473q0 -67 20.5 -97.5t52.5 -31.5q7 0 6.5 -4.5t-6.5 -4.5q-24 3 -65 3h-27q-41 0 -65 -3q-6 0 -6.5 4.5t6.5 4.5q32 1 52.5 31.5t20.5 97.5v505
q-27 29 -46.5 42t-39.5 14q-7 0 -6.5 4.5t6.5 4.5q23 -3 64 -3l167 -1q28 0 42 -16l345 -427q5 -5 9 -5t4 7l-1 306q0 67 -20 97.5t-52 31.5q-7 0 -7 4q0 2 2 3.5t5 1.5q45 -3 64 -3h28q19 0 64 3q6 0 6.5 -4.5zM171 588l-34 39zM332 -221.5q0 2.5 4 4.5q66 23 66 72
q0 10 -8 14t-24 7q-22 4 -33 10.5t-11 24.5q0 16 20.5 31.5t49.5 15.5q31 0 46 -14.5t15 -36.5q0 -31 -21 -59.5t-49.5 -47.5t-50.5 -23q-4 -1 -4 1.5z" />
    <glyph glyph-name="uni0146" unicode="&#x146;" horiz-adv-x="701" 
d="M711.5 207.5q4.5 0.5 4.5 -6.5q0 -67 -22 -116.5t-58 -75.5t-75 -26q-37 0 -65 30t-42 89l-65 264q-8 32 -19.5 45.5t-37.5 13.5q-35 0 -56.5 -36t-27.5 -95v-11v-173q0 -59 11.5 -80.5t48.5 -22.5q5 0 5 -4.5t-5 -4.5q-46 2 -125 2q-102 0 -160 -2q-5 0 -5 4.5t6 4.5
q25 0 36.5 5.5t17 27.5t5.5 71v189q0 56 -12.5 77.5t-51.5 17.5h-1q-3 0 -3.5 3.5t3.5 4.5q58 12 121.5 36t106.5 52q6 4 9 4q4 0 4 -8q-7 -81 -10 -123q17 51 60.5 85.5t103.5 34.5q63 0 97 -28.5t48 -84.5l61 -246q6 -22 15 -33.5t24 -11.5q22 0 36 37t13 84q0 6 4.5 6.5z
M290 -221.5q0 2.5 4 4.5q66 23 66 72q0 10 -8 14t-24 7q-22 4 -33 10.5t-11 24.5q0 16 20.5 31.5t49.5 15.5q31 0 46 -14.5t15 -36.5q0 -31 -21 -59.5t-49.5 -47.5t-50.5 -23q-4 -1 -4 1.5z" />
    <glyph glyph-name="Ncaron" unicode="&#x147;" horiz-adv-x="776" 
d="M760.5 698.5q0.5 -4.5 -6.5 -4.5q-32 -1 -52 -31.5t-20 -97.5v-571q0 -7 -6 -7t-11 6l-516 617q-4 4 -7 4q-5 0 -5 -7v-473q0 -67 20.5 -97.5t52.5 -31.5q7 0 6.5 -4.5t-6.5 -4.5q-24 3 -65 3h-27q-41 0 -65 -3q-6 0 -6.5 4.5t6.5 4.5q32 1 52.5 31.5t20.5 97.5v505
q-27 29 -46.5 42t-39.5 14q-7 0 -6.5 4.5t6.5 4.5q23 -3 64 -3l167 -1q28 0 42 -16l345 -427q5 -5 9 -5t4 7l-1 306q0 67 -20 97.5t-52 31.5q-7 0 -7 4q0 2 2 3.5t5 1.5q45 -3 64 -3h28q19 0 64 3q6 0 6.5 -4.5zM171 588l-34 39zM599.5 870q1.5 -3 -2.5 -4
q-40 -14 -60 -32.5t-40 -46.5q-17 -23 -30.5 -33.5t-40.5 -10.5q-29 0 -43.5 10.5t-31.5 34.5q-18 26 -37.5 44t-57.5 33q-4 2 -3 5t6 3q34 -1 83.5 -20t82.5 -44q32 25 83 44t85 20q5 0 6.5 -3z" />
    <glyph glyph-name="ncaron" unicode="&#x148;" horiz-adv-x="701" 
d="M711.5 207.5q4.5 0.5 4.5 -6.5q0 -67 -22 -116.5t-58 -75.5t-75 -26q-37 0 -65 30t-42 89l-65 264q-8 32 -19.5 45.5t-37.5 13.5q-35 0 -56.5 -36t-27.5 -95v-11v-173q0 -59 11.5 -80.5t48.5 -22.5q5 0 5 -4.5t-5 -4.5q-46 2 -125 2q-102 0 -160 -2q-5 0 -5 4.5t6 4.5
q25 0 36.5 5.5t17 27.5t5.5 71v189q0 56 -12.5 77.5t-51.5 17.5h-1q-3 0 -3.5 3.5t3.5 4.5q58 12 121.5 36t106.5 52q6 4 9 4q4 0 4 -8q-7 -81 -10 -123q17 51 60.5 85.5t103.5 34.5q63 0 97 -28.5t48 -84.5l61 -246q6 -22 15 -33.5t24 -11.5q22 0 36 37t13 84q0 6 4.5 6.5z
M517 673.5q2 -3.5 -2 -5.5q-40 -18 -60.5 -41.5t-39.5 -58.5q-16 -30 -29.5 -43t-41.5 -13q-29 0 -43.5 13.5t-31.5 43.5q-17 32 -37.5 55.5t-57.5 42.5q-4 2 -2.5 6t5.5 4q34 -2 84 -26.5t82 -55.5q32 32 83.5 56.5t84.5 25.5q4 0 6 -3.5z" />
    <glyph glyph-name="Eng" unicode="&#x14a;" horiz-adv-x="779" 
d="M755.5 698.5q0.5 -4.5 -6.5 -4.5q-32 -1 -52.5 -31.5t-20.5 -97.5v-604q0 -93 -30 -136t-101 -43q-70 0 -129 30q-11 5 8 33.5t45 52t31 15.5q25 -36 48.5 -54t51.5 -18q35 0 50 26.5t15 93.5v86l-521 563q-4 4 -8 4q-5 0 -5 -7l1 -473q0 -67 20.5 -97.5t52.5 -31.5
q6 0 6 -4q0 -5 -7 -5q-22 3 -64 3h-28q-41 0 -64 -3q-6 0 -6.5 4.5t6.5 4.5q32 1 52 31.5t20 97.5l1 504q-28 30 -47.5 43t-39.5 14q-7 0 -6.5 4.5t6.5 4.5q24 -3 65 -3l166 -1q15 0 24.5 -4t18.5 -12l345 -382q4 -6 8 -6q5 0 5 8l-1 261q0 67 -20.5 97.5t-52.5 31.5
q-7 0 -6.5 4.5t6.5 4.5q48 -3 65 -3h27q17 0 65 3q6 0 6.5 -4.5z" />
    <glyph glyph-name="eng" unicode="&#x14b;" horiz-adv-x="682" 
d="M533 437.5q49 -52.5 49 -151.5v-119q0 -104 -52.5 -176.5t-124 -108t-125.5 -36.5q-9 0 -9 6t9 6q45 1 73 14.5t46 63.5t18 153v215q0 71 -19.5 103.5t-59.5 32.5q-42 0 -65.5 -39t-24.5 -97v-21v-173q0 -59 11.5 -80.5t48.5 -22.5q5 0 5 -4.5t-5 -4.5q-46 2 -125 2
q-102 0 -160 -2q-5 0 -5 4.5t6 4.5q25 0 36.5 5.5t17 27.5t5.5 71v189q0 56 -12.5 77.5t-51.5 17.5h-1q-3 0 -3.5 3.5t3.5 4.5q58 12 121.5 36t106.5 52q6 4 9 4q4 0 4 -8q-4 -36 -9 -107q17 48 54 79t95 31q85 0 134 -52.5z" />
    <glyph glyph-name="Omacron" unicode="&#x14c;" horiz-adv-x="850" 
d="M208.5 27.5q-83.5 45.5 -130 126.5t-46.5 183q0 105 53.5 192t147 137.5t209.5 50.5q109 0 194.5 -45.5t133.5 -126t48 -181.5q0 -105 -54.5 -192.5t-150.5 -138.5t-214 -51q-107 0 -190.5 45.5zM621 56q36 39 36 111q0 111 -48 232.5t-125 202.5t-158 81
q-63 0 -98.5 -37.5t-35.5 -108.5q0 -110 47.5 -232.5t123.5 -205t156 -82.5q66 0 102 39zM290 771q-11 0 -11 7q0 2 3 4t8 2h271q10 0 10 -6q0 -7 -10 -7h-271z" />
    <glyph glyph-name="omacron" unicode="&#x14d;" horiz-adv-x="592" 
d="M142.5 12.5q-59.5 30.5 -92.5 85.5t-33 126q0 74 38 133t104.5 92.5t146.5 33.5q79 0 140 -30.5t95 -85t34 -125.5q0 -74 -39.5 -133.5t-107.5 -93t-150 -33.5q-76 0 -135.5 30.5zM413.5 29q22.5 22 22.5 63q0 60 -34 147.5t-81.5 152.5t-83.5 67q-38 1 -60.5 -21
t-22.5 -65q0 -60 34 -146.5t81.5 -151.5t82.5 -67q39 -1 61.5 21zM161 596q-11 0 -11 7q0 2 3 4t8 2h271q10 0 10 -6q0 -7 -10 -7h-271z" />
    <glyph glyph-name="Obreve" unicode="&#x14e;" horiz-adv-x="850" 
d="M208.5 27.5q-83.5 45.5 -130 126.5t-46.5 183q0 105 53.5 192t147 137.5t209.5 50.5q109 0 194.5 -45.5t133.5 -126t48 -181.5q0 -105 -54.5 -192.5t-150.5 -138.5t-214 -51q-107 0 -190.5 45.5zM621 56q36 39 36 111q0 111 -48 232.5t-125 202.5t-158 81
q-63 0 -98.5 -37.5t-35.5 -108.5q0 -110 47.5 -232.5t123.5 -205t156 -82.5q66 0 102 39zM386 888.5q13 -4.5 13 -14.5q0 -39 18.5 -68.5t52.5 -29.5q36 0 53.5 27.5t17.5 68.5q0 8 5 8t5 -7q0 -57 -32.5 -96.5t-94.5 -39.5q-66 0 -102.5 41t-36.5 99q0 8 9 12t38 4
q41 0 54 -4.5z" />
    <glyph glyph-name="obreve" unicode="&#x14f;" horiz-adv-x="592" 
d="M142.5 12.5q-59.5 30.5 -92.5 85.5t-33 126q0 74 38 133t104.5 92.5t146.5 33.5q79 0 140 -30.5t95 -85t34 -125.5q0 -74 -39.5 -133.5t-107.5 -93t-150 -33.5q-76 0 -135.5 30.5zM413.5 29q22.5 22 22.5 63q0 60 -34 147.5t-81.5 152.5t-83.5 67q-38 1 -60.5 -21
t-22.5 -65q0 -60 34 -146.5t81.5 -151.5t82.5 -67q39 -1 61.5 21zM257 669.5q13 -4.5 13 -14.5q0 -39 18.5 -68.5t52.5 -29.5q36 0 53.5 27.5t17.5 68.5q0 8 5 8t5 -7q0 -57 -32.5 -96.5t-94.5 -39.5q-66 0 -102.5 41t-36.5 99q0 8 9 12t38 4q41 0 54 -4.5z" />
    <glyph glyph-name="Ohungarumlaut" unicode="&#x150;" horiz-adv-x="850" 
d="M208.5 27.5q-83.5 45.5 -130 126.5t-46.5 183q0 105 53.5 192t147 137.5t209.5 50.5q109 0 194.5 -45.5t133.5 -126t48 -181.5q0 -105 -54.5 -192.5t-150.5 -138.5t-214 -51q-107 0 -190.5 45.5zM621 56q36 39 36 111q0 111 -48 232.5t-125 202.5t-158 81
q-63 0 -98.5 -37.5t-35.5 -108.5q0 -110 47.5 -232.5t123.5 -205t156 -82.5q66 0 102 39zM228 745.5q-1 3.5 3 5.5q40 28 55.5 56t24.5 63q6 21 11 30t17 10q31 6 73 6q44 0 44 -9q0 -21 -44.5 -58t-100 -69.5t-78.5 -37.5q-4 0 -5 3.5zM406 745.5q-1 3.5 3 5.5
q40 28 55.5 56t24.5 63q6 21 11 30t17 10q31 6 73 6q44 0 44 -9q0 -21 -44.5 -58t-100 -69.5t-78.5 -37.5q-4 0 -5 3.5z" />
    <glyph glyph-name="ohungarumlaut" unicode="&#x151;" horiz-adv-x="592" 
d="M142.5 12.5q-59.5 30.5 -92.5 85.5t-33 126q0 74 38 133t104.5 92.5t146.5 33.5q79 0 140 -30.5t95 -85t34 -125.5q0 -74 -39.5 -133.5t-107.5 -93t-150 -33.5q-76 0 -135.5 30.5zM413.5 29q22.5 22 22.5 63q0 60 -34 147.5t-81.5 152.5t-83.5 67q-38 1 -60.5 -21
t-22.5 -65q0 -60 34 -146.5t81.5 -151.5t82.5 -67q39 -1 61.5 21zM153 520.5q-1 3.5 3 5.5q40 28 55.5 56t24.5 63q6 21 11 30t17 10q31 6 73 6q44 0 44 -9q0 -21 -44.5 -58t-100 -69.5t-78.5 -37.5q-4 0 -5 3.5zM331 520.5q-1 3.5 3 5.5q40 28 55.5 56t24.5 63q6 21 11 30
t17 10q31 6 73 6q44 0 44 -9q0 -21 -44.5 -58t-100 -69.5t-78.5 -37.5q-4 0 -5 3.5z" />
    <glyph glyph-name="OE" unicode="&#x152;" horiz-adv-x="1098" 
d="M1080.5 287q3.5 -2 1.5 -7q-19 -130 -21 -267q0 -15 -6 -21.5t-18 -6.5q-13 0 -32 4q-80 11 -164 11h-302q-8 -1 -58 -5t-100 -4q-98 0 -178 44t-125.5 123t-45.5 179q0 108 53 194.5t146.5 136t210.5 49.5q37 0 96 -9q44 -6 71 -8h220q47 0 78 3t72 8q30 4 34 4
q11 0 16.5 -6.5t6.5 -21.5q4 -105 23 -272q1 -4 -2 -5t-5 3q-29 84 -52 128t-50 75q-39 44 -87.5 59.5t-113.5 15.5q-32 0 -32 -43v-243q0 -12 5 -21t16 -9q32 0 56 2q31 4 54.5 31t42.5 89q2 6 5.5 6t2.5 -6q-6 -42 -6 -106q0 -97 11 -158v-1q0 -4 -3 -4t-5 5
q-21 64 -46.5 95.5t-55.5 35.5q-24 2 -56 2q-11 0 -16 -9t-5 -21v-268q0 -31 8 -45t27 -14q67 0 125.5 20.5t100.5 62.5q64 63 97 189q2 8 5.5 6zM229 291.5q37 -118.5 94.5 -202t116.5 -83.5q32 0 48 6.5t26 22.5q13 19 18.5 68.5t5.5 159.5q0 252 -61 355q-46 76 -117 76
q-81 0 -124.5 -47t-43.5 -146q0 -91 37 -209.5z" />
    <glyph glyph-name="oe" unicode="&#x153;" horiz-adv-x="933" 
d="M905 93q1 -1 2 -2.5t-1 -4.5q-38 -49 -100.5 -76.5t-121.5 -27.5q-55 0 -104.5 20.5t-84.5 58.5q-40 -37 -96.5 -58t-120.5 -21q-76 0 -135.5 30.5t-92.5 85.5t-33 126q0 74 38 133t104.5 92.5t146.5 33.5q65 0 118 -20.5t89 -58.5q38 37 88.5 58t107.5 21q85 0 142 -43
t57 -121q0 -36 -13 -76l-297 -10q35 -74 96 -123.5t125 -49.5q51 0 84 33q1 1 2 0zM584.5 436q-18.5 -25 -18.5 -72q0 -60 29 -124q70 1 123 5l26 1q11 7 11 30q0 30 -18.5 75t-46 77.5t-51.5 32.5q-36 0 -54.5 -25zM413.5 29q22.5 22 22.5 63q0 60 -34 147.5t-81.5 152.5
t-83.5 67q-38 1 -60.5 -21t-22.5 -65q0 -60 34 -146.5t81.5 -151.5t82.5 -67q39 -1 61.5 21z" />
    <glyph glyph-name="Racute" unicode="&#x154;" horiz-adv-x="730" 
d="M787 -59q-1 -4 -7 -3q-104 28 -175 71t-129.5 119t-116.5 204l-39 3q-5 0 -4.5 3t5.5 4l22 1q76 9 108 56t32 134q0 84 -37 123.5t-101 41.5h-24q-20 1 -27.5 -7.5t-7.5 -31.5v-524q0 -67 20.5 -97.5t52.5 -31.5q7 0 6.5 -4.5t-6.5 -4.5q-48 3 -65 3h-194q-19 0 -64 -3
q-6 0 -6.5 4.5t6.5 4.5q32 1 52 31.5t20 97.5v430q0 67 -20 97.5t-53 31.5q-6 0 -6 4t5 4q17 0 28 -1l38 -1q35 0 63 1t49 2q104 4 162 4q160 0 235 -45.5t75 -144.5q0 -81 -69 -128t-204 -56v-1q30 -3 62 -3q34 0 76 5h2q5 0 9 -3.5t5 -8.5q33 -135 90 -241t127 -135
q6 -1 5 -5zM273.5 747.5q-1.5 3.5 3.5 5.5q59 31 83 56t41 63q3 6 41 6q33 0 59.5 -5.5t25.5 -15.5q0 -20 -49 -46.5t-110 -46.5t-86 -20q-7 0 -8.5 3.5z" />
    <glyph glyph-name="racute" unicode="&#x155;" horiz-adv-x="496" 
d="M451.5 465q30.5 -18 30.5 -48q0 -4 -2 -14l-66 -224q-1 -6 -4.5 -4.5t-2.5 6.5q4 21 4 45q0 45 -15 76t-38 46.5t-47 15.5q-37 0 -50 -48.5t-13 -135.5v-70q0 -59 11.5 -80.5t48.5 -22.5q5 0 5 -4.5t-5 -4.5q-46 2 -125 2q-102 0 -160 -2q-5 0 -5 4.5t6 4.5
q25 0 36.5 5.5t17 27.5t5.5 71v189q0 56 -12.5 77.5t-51.5 17.5h-1q-3 0 -3.5 3.5t3.5 4.5q58 12 121.5 36t106.5 52q6 4 9 4q4 0 4 -8q-7 -71 -9 -109t-2 -83q10 78 40.5 133t94.5 55q38 0 68.5 -18zM252 514q-3 0 -4 3t3 6q42 26 57.5 54.5t23.5 63.5q6 21 11 30t17 11
q42 6 72 6q44 0 44 -9q0 -21 -44.5 -59t-100 -70.5t-78.5 -35.5h-1z" />
    <glyph glyph-name="uni0156" unicode="&#x156;" horiz-adv-x="730" 
d="M787 -59q-1 -4 -7 -3q-104 28 -175 71t-129.5 119t-116.5 204l-39 3q-5 0 -4.5 3t5.5 4l22 1q76 9 108 56t32 134q0 84 -37 123.5t-101 41.5h-24q-20 1 -27.5 -7.5t-7.5 -31.5v-524q0 -67 20.5 -97.5t52.5 -31.5q7 0 6.5 -4.5t-6.5 -4.5q-48 3 -65 3h-194q-19 0 -64 -3
q-6 0 -6.5 4.5t6.5 4.5q32 1 52 31.5t20 97.5v430q0 67 -20 97.5t-53 31.5q-6 0 -6 4t5 4q17 0 28 -1l38 -1q35 0 63 1t49 2q104 4 162 4q160 0 235 -45.5t75 -144.5q0 -81 -69 -128t-204 -56v-1q30 -3 62 -3q34 0 76 5h2q5 0 9 -3.5t5 -8.5q33 -135 90 -241t127 -135
q6 -1 5 -5zM306 -221.5q0 2.5 4 4.5q66 23 66 72q0 10 -8 14t-24 7q-22 4 -33 10.5t-11 24.5q0 16 20.5 31.5t49.5 15.5q31 0 46 -14.5t15 -36.5q0 -31 -21 -59.5t-49.5 -47.5t-50.5 -23q-4 -1 -4 1.5z" />
    <glyph glyph-name="uni0157" unicode="&#x157;" horiz-adv-x="496" 
d="M451.5 465q30.5 -18 30.5 -48q0 -4 -2 -14l-66 -224q-1 -6 -4.5 -4.5t-2.5 6.5q4 21 4 45q0 45 -15 76t-38 46.5t-47 15.5q-37 0 -50 -48.5t-13 -135.5v-70q0 -59 11.5 -80.5t48.5 -22.5q5 0 5 -4.5t-5 -4.5q-46 2 -125 2q-102 0 -160 -2q-5 0 -5 4.5t6 4.5
q25 0 36.5 5.5t17 27.5t5.5 71v189q0 56 -12.5 77.5t-51.5 17.5h-1q-3 0 -3.5 3.5t3.5 4.5q58 12 121.5 36t106.5 52q6 4 9 4q4 0 4 -8q-7 -71 -9 -109t-2 -83q10 78 40.5 133t94.5 55q38 0 68.5 -18zM169 -221.5q0 2.5 4 4.5q66 23 66 72q0 10 -8 14t-24 7q-22 4 -33 10.5
t-11 24.5q0 16 20.5 31.5t49.5 15.5q31 0 46 -14.5t15 -36.5q0 -31 -21 -59.5t-49.5 -47.5t-50.5 -23q-4 -1 -4 1.5z" />
    <glyph glyph-name="Rcaron" unicode="&#x158;" horiz-adv-x="730" 
d="M787 -59q-1 -4 -7 -3q-104 28 -175 71t-129.5 119t-116.5 204l-39 3q-5 0 -4.5 3t5.5 4l22 1q76 9 108 56t32 134q0 84 -37 123.5t-101 41.5h-24q-20 1 -27.5 -7.5t-7.5 -31.5v-524q0 -67 20.5 -97.5t52.5 -31.5q7 0 6.5 -4.5t-6.5 -4.5q-48 3 -65 3h-194q-19 0 -64 -3
q-6 0 -6.5 4.5t6.5 4.5q32 1 52 31.5t20 97.5v430q0 67 -20 97.5t-53 31.5q-6 0 -6 4t5 4q17 0 28 -1l38 -1q35 0 63 1t49 2q104 4 162 4q160 0 235 -45.5t75 -144.5q0 -81 -69 -128t-204 -56v-1q30 -3 62 -3q34 0 76 5h2q5 0 9 -3.5t5 -8.5q33 -135 90 -241t127 -135
q6 -1 5 -5zM542.5 870q1.5 -3 -2.5 -4q-40 -14 -60 -32.5t-40 -46.5q-17 -23 -30.5 -33.5t-40.5 -10.5q-29 0 -43.5 10.5t-31.5 34.5q-18 26 -37.5 44t-57.5 33q-4 2 -3 5t6 3q34 -1 83.5 -20t82.5 -44q32 25 83 44t85 20q5 0 6.5 -3z" />
    <glyph glyph-name="rcaron" unicode="&#x159;" horiz-adv-x="496" 
d="M451.5 465q30.5 -18 30.5 -48q0 -4 -2 -14l-66 -224q-1 -6 -4.5 -4.5t-2.5 6.5q4 21 4 45q0 45 -15 76t-38 46.5t-47 15.5q-37 0 -50 -48.5t-13 -135.5v-70q0 -59 11.5 -80.5t48.5 -22.5q5 0 5 -4.5t-5 -4.5q-46 2 -125 2q-102 0 -160 -2q-5 0 -5 4.5t6 4.5
q25 0 36.5 5.5t17 27.5t5.5 71v189q0 56 -12.5 77.5t-51.5 17.5h-1q-3 0 -3.5 3.5t3.5 4.5q58 12 121.5 36t106.5 52q6 4 9 4q4 0 4 -8q-7 -71 -9 -109t-2 -83q10 78 40.5 133t94.5 55q38 0 68.5 -18zM464 673.5q2 -3.5 -2 -5.5q-40 -18 -60.5 -41.5t-39.5 -58.5
q-16 -30 -29.5 -43t-41.5 -13q-29 0 -43.5 13.5t-31.5 43.5q-17 32 -37.5 55.5t-57.5 42.5q-4 2 -2.5 6t5.5 4q34 -2 84 -26.5t82 -55.5q32 32 83.5 56.5t84.5 25.5q4 0 6 -3.5z" />
    <glyph glyph-name="Sacute" unicode="&#x15a;" horiz-adv-x="650" 
d="M119 305q2 7 5 7t3 -9q-3 -92 19.5 -161.5t69.5 -107.5t113 -38q49 0 81.5 23.5t32.5 78.5q0 61 -42 106t-119 94q-65 42 -106.5 75.5t-66.5 72t-25 83.5q0 50 38.5 93.5t107 69.5t153.5 26q47 0 98.5 -13t86 -36.5t34.5 -52.5q0 -4 -2 -14l-52 -163q-1 -6 -4 -6
q-4 0 -4 9q4 70 -20.5 130t-71 95.5t-104.5 35.5q-53 0 -74.5 -19t-21.5 -61q0 -33 19.5 -61.5t53.5 -54t94 -63.5q63 -39 103.5 -71t68 -76.5t27.5 -100.5q0 -64 -38 -112.5t-108 -75t-162 -26.5q-62 0 -120 17.5t-94 46t-36 58.5q0 4 2 14zM245.5 747.5q-1.5 3.5 3.5 5.5
q59 31 83 56t41 63q3 6 41 6q33 0 59.5 -5.5t25.5 -15.5q0 -20 -49 -46.5t-110 -46.5t-86 -20q-7 0 -8.5 3.5z" />
    <glyph glyph-name="sacute" unicode="&#x15b;" horiz-adv-x="489" 
d="M67 203q1 4 4 4t4 -5q12 -87 57.5 -147t107.5 -60q61 0 61 44q-1 38 -35.5 72.5t-98.5 77.5q-62 43 -94 78t-32 80q0 39 29 70t79 48.5t112 17.5q39 0 85.5 -8t77 -22.5t25.5 -34.5l-37 -138q-1 -3 -3.5 -3t-2.5 4q-12 89 -61 138.5t-112 49.5q-28 0 -39 -9t-11 -26
q0 -26 31 -52.5t107 -75.5q62 -39 100 -81t38 -98q0 -67 -65 -106t-170 -39q-46 0 -93.5 11t-76 29.5t-23.5 39.5zM203 513q-3 0 -4 3t3 6q42 26 57.5 54.5t23.5 63.5q6 21 11 30t17 11q42 6 72 6q44 0 44 -9q0 -21 -44.5 -59t-100 -70.5t-78.5 -35.5h-1z" />
    <glyph glyph-name="Scircumflex" unicode="&#x15c;" horiz-adv-x="650" 
d="M119 305q2 7 5 7t3 -9q-3 -92 19.5 -161.5t69.5 -107.5t113 -38q49 0 81.5 23.5t32.5 78.5q0 61 -42 106t-119 94q-65 42 -106.5 75.5t-66.5 72t-25 83.5q0 50 38.5 93.5t107 69.5t153.5 26q47 0 98.5 -13t86 -36.5t34.5 -52.5q0 -4 -2 -14l-52 -163q-1 -6 -4 -6
q-4 0 -4 9q4 70 -20.5 130t-71 95.5t-104.5 35.5q-53 0 -74.5 -19t-21.5 -61q0 -33 19.5 -61.5t53.5 -54t94 -63.5q63 -39 103.5 -71t68 -76.5t27.5 -100.5q0 -64 -38 -112.5t-108 -75t-162 -26.5q-62 0 -120 17.5t-94 46t-36 58.5q0 4 2 14zM526 743q0 -5 -7 -5
q-35 2 -88 23t-88 48q-34 -28 -88.5 -49t-90.5 -22q-5 0 -6 3.5t3 4.5q42 15 64 36t42 51q17 26 31.5 37.5t43.5 11.5q31 0 46.5 -12t33.5 -38q18 -28 39.5 -48.5t61.5 -37.5q3 -1 3 -3z" />
    <glyph glyph-name="scircumflex" unicode="&#x15d;" horiz-adv-x="489" 
d="M67 203q1 4 4 4t4 -5q12 -87 57.5 -147t107.5 -60q61 0 61 44q-1 38 -35.5 72.5t-98.5 77.5q-62 43 -94 78t-32 80q0 39 29 70t79 48.5t112 17.5q39 0 85.5 -8t77 -22.5t25.5 -34.5l-37 -138q-1 -3 -3.5 -3t-2.5 4q-12 89 -61 138.5t-112 49.5q-28 0 -39 -9t-11 -26
q0 -26 31 -52.5t107 -75.5q62 -39 100 -81t38 -98q0 -67 -65 -106t-170 -39q-46 0 -93.5 11t-76 29.5t-23.5 39.5zM415 526q0 -2 -2 -4t-5 -2q-33 2 -83.5 26t-82.5 56q-31 -32 -82.5 -56.5t-85.5 -25.5q-4 0 -5.5 3.5t2.5 5.5q40 18 61 42t38 58q16 30 29.5 43t41.5 13
q29 0 44 -13.5t32 -43.5q17 -32 37.5 -55.5t57.5 -42.5q3 -1 3 -4z" />
    <glyph glyph-name="Scedilla" unicode="&#x15e;" horiz-adv-x="650" 
d="M579 87q-35 -47 -99.5 -74.5t-150.5 -30.5q-14 -15 -26 -38q66 -13 92.5 -30t26.5 -47q0 -16 -14 -33.5t-39 -29.5t-56 -12q-44 0 -74.5 10.5t-30.5 33.5q0 10 11 22t23 12q7 0 13.5 -5.5t14.5 -16.5q13 -19 27.5 -29.5t39.5 -10.5q27 0 42.5 8.5t16.5 25.5
q-1 18 -32.5 32t-108.5 28l61 80h-10q-62 0 -120 17.5t-94 46t-36 58.5q0 4 2 14l61 187q2 7 5 7t3 -9q-3 -92 19.5 -161.5t69.5 -107.5t113 -38q49 0 81.5 23.5t32.5 78.5q0 61 -42 106t-119 94q-65 42 -106.5 75.5t-66.5 72t-25 83.5q0 50 38.5 93.5t107 69.5t153.5 26
q47 0 98.5 -13t86 -36.5t34.5 -52.5q0 -4 -2 -14l-52 -163q-1 -6 -4 -6q-4 0 -4 9q4 70 -20.5 130t-71 95.5t-104.5 35.5q-53 0 -74.5 -19t-21.5 -61q0 -33 19.5 -61.5t53.5 -54t94 -63.5q63 -39 103.5 -71t68 -76.5t27.5 -100.5q0 -62 -35 -109z" />
    <glyph glyph-name="scedilla" unicode="&#x15f;" horiz-adv-x="489" 
d="M219 -18q-8 -10 -19 -31q66 -14 92.5 -32t26.5 -50q0 -17 -14 -35.5t-39 -31t-56 -12.5q-44 0 -74.5 11.5t-30.5 35.5q0 10 11.5 22.5t22.5 12.5q7 0 13 -5.5t15 -17.5q13 -19 27.5 -30.5t39.5 -11.5q27 0 42.5 9t16.5 27q-1 19 -32.5 34t-108.5 30l55 75
q-45 2 -87.5 13.5t-68 29t-20.5 37.5l36 141q1 4 4 4t4 -5q11 -79 50 -136.5t93 -68.5l2 3h14l-4 -5h10q61 0 61 44q-1 38 -35.5 72.5t-98.5 77.5q-62 43 -94 78t-32 80q0 39 29 70t79 48.5t112 17.5q39 0 85.5 -8t77 -22.5t25.5 -34.5l-37 -138q-1 -3 -3.5 -3t-2.5 4
q-12 89 -61 138.5t-112 49.5q-28 0 -39 -9t-11 -26q0 -26 31 -52.5t107 -75.5q62 -39 100 -81t38 -98q0 -67 -65 -106t-170 -39h-5z" />
    <glyph glyph-name="Scaron" unicode="&#x160;" horiz-adv-x="650" 
d="M119 305q2 7 5 7t3 -9q-3 -92 19.5 -161.5t69.5 -107.5t113 -38q49 0 81.5 23.5t32.5 78.5q0 61 -42 106t-119 94q-65 42 -106.5 75.5t-66.5 72t-25 83.5q0 50 38.5 93.5t107 69.5t153.5 26q47 0 98.5 -13t86 -36.5t34.5 -52.5q0 -4 -2 -14l-52 -163q-1 -6 -4 -6
q-4 0 -4 9q4 70 -20.5 130t-71 95.5t-104.5 35.5q-53 0 -74.5 -19t-21.5 -61q0 -33 19.5 -61.5t53.5 -54t94 -63.5q63 -39 103.5 -71t68 -76.5t27.5 -100.5q0 -64 -38 -112.5t-108 -75t-162 -26.5q-62 0 -120 17.5t-94 46t-36 58.5q0 4 2 14zM514.5 870q1.5 -3 -2.5 -4
q-40 -14 -60 -32.5t-40 -46.5q-17 -23 -30.5 -33.5t-40.5 -10.5q-29 0 -43.5 10.5t-31.5 34.5q-18 26 -37.5 44t-57.5 33q-4 2 -3 5t6 3q34 -1 83.5 -20t82.5 -44q32 25 83 44t85 20q5 0 6.5 -3z" />
    <glyph glyph-name="scaron" unicode="&#x161;" horiz-adv-x="489" 
d="M67 203q1 4 4 4t4 -5q12 -87 57.5 -147t107.5 -60q61 0 61 44q-1 38 -35.5 72.5t-98.5 77.5q-62 43 -94 78t-32 80q0 39 29 70t79 48.5t112 17.5q39 0 85.5 -8t77 -22.5t25.5 -34.5l-37 -138q-1 -3 -3.5 -3t-2.5 4q-12 89 -61 138.5t-112 49.5q-28 0 -39 -9t-11 -26
q0 -26 31 -52.5t107 -75.5q62 -39 100 -81t38 -98q0 -67 -65 -106t-170 -39q-46 0 -93.5 11t-76 29.5t-23.5 39.5zM414 672.5q2 -3.5 -2 -5.5q-40 -18 -60.5 -41.5t-39.5 -58.5q-16 -30 -29.5 -43t-41.5 -13q-29 0 -43.5 13.5t-31.5 43.5q-17 32 -37.5 55.5t-57.5 42.5
q-4 2 -2.5 6t5.5 4q34 -2 84 -26.5t82 -55.5q32 32 83.5 56.5t84.5 25.5q4 0 6 -3.5z" />
    <glyph glyph-name="uni0162" unicode="&#x162;" horiz-adv-x="713" 
d="M693 447q0 -5 -3.5 -5t-4.5 5q-35 108 -72.5 165.5t-81.5 71.5q-13 8 -69 8q-8 0 -12 -11.5t-4 -25.5v-520q0 -67 27.5 -97.5t71.5 -31.5q9 0 9 -4q0 -5 -9 -5q-63 3 -88 3h-201q-24 0 -87 -3q-9 0 -9 5q0 4 9 4q44 1 71.5 31.5t27.5 97.5v520q0 13 -4.5 25t-12.5 12
q-54 0 -69 -8q-88 -30 -153 -237q-1 -5 -5 -5q-2 0 -3.5 2t-0.5 5q11 91 11 177l-1 66q0 23 22 23q12 0 33 -3q74 -12 183 -12h178q108 0 182 12q21 3 33 3q24 0 23 -28q-3 -36 -3 -73q0 -72 12 -165v-2zM260.5 -198.5q-30.5 11.5 -30.5 35.5q0 10 11.5 22.5t22.5 12.5
q7 0 13 -5.5t15 -17.5q13 -19 27.5 -30.5t39.5 -11.5q27 0 42.5 9t16.5 27q-1 19 -32.5 34t-108.5 30l68 93h14q-21 -23 -34 -49q66 -14 92.5 -32t26.5 -50q0 -17 -14 -35.5t-39 -31t-56 -12.5q-44 0 -74.5 11.5z" />
    <glyph glyph-name="uni0163" unicode="&#x163;" horiz-adv-x="366" 
d="M376 123q2 0 2.5 -2t-1.5 -6q-52 -69 -100.5 -101t-90.5 -32q-7 -10 -19 -31q66 -14 92.5 -32t26.5 -50q0 -17 -14 -35.5t-39 -31t-56 -12.5q-44 0 -74.5 11.5t-30.5 35.5q0 10 11.5 22.5t22.5 12.5q7 0 13 -5.5t15 -17.5q13 -19 27.5 -30.5t39.5 -11.5q27 0 42.5 9
t16.5 27q-1 19 -32.5 34t-108.5 30l55 76q-45 4 -73.5 40.5t-28.5 86.5v317q0 15 -3.5 22.5t-17.5 7.5h-35q-6 0 -5.5 3t5.5 4q66 12 129 61t89 117q1 7 5 7q3 0 3 -7l-5 -157q0 -13 5.5 -16t20.5 -3h87q1 0 1 -3q0 -2 -2 -4t-6 -2h-78q-17 0 -22.5 -5t-5.5 -19v-279
q0 -40 15 -60.5t39 -20.5q19 0 40 12.5t40 34.5q3 3 5 3z" />
    <glyph glyph-name="Tcaron" unicode="&#x164;" horiz-adv-x="713" 
d="M693 447q0 -5 -3.5 -5t-4.5 5q-35 108 -72.5 165.5t-81.5 71.5q-13 8 -69 8q-8 0 -12 -11.5t-4 -25.5v-520q0 -67 27.5 -97.5t71.5 -31.5q9 0 9 -4q0 -5 -9 -5q-63 3 -88 3h-201q-24 0 -87 -3q-9 0 -9 5q0 4 9 4q44 1 71.5 31.5t27.5 97.5v520q0 13 -4.5 25t-12.5 12
q-54 0 -69 -8q-88 -30 -153 -237q-1 -5 -5 -5q-2 0 -3.5 2t-0.5 5q11 91 11 177l-1 66q0 23 22 23q12 0 33 -3q74 -12 183 -12h178q108 0 182 12q21 3 33 3q24 0 23 -28q-3 -36 -3 -73q0 -72 12 -165v-2zM529.5 870q1.5 -3 -2.5 -4q-40 -14 -60 -32.5t-40 -46.5
q-17 -23 -30.5 -33.5t-40.5 -10.5q-29 0 -43.5 10.5t-31.5 34.5q-18 26 -37.5 44t-57.5 33q-4 2 -3 5t6 3q34 -1 83.5 -20t82.5 -44q32 25 83 44t85 20q5 0 6.5 -3z" />
    <glyph glyph-name="tcaron" unicode="&#x165;" horiz-adv-x="366" 
d="M104 19.5q-32 37.5 -32 90.5v317q0 15 -3.5 22.5t-17.5 7.5h-35q-6 0 -5.5 3t5.5 4q66 12 129 61t89 117q1 7 5 7q3 0 3 -7l-5 -157q0 -13 5.5 -16t20.5 -3h87q1 0 1 -3q0 -2 -2 -4t-6 -2h-78q-17 0 -22.5 -5t-5.5 -19v-279q0 -40 15 -60.5t39 -20.5q19 0 40 12.5
t40 34.5q3 3 5 3t2.5 -2t-1.5 -6q-52 -69 -100.5 -101t-90.5 -32q-50 0 -82 37.5zM389 469q-5 0 -5 6q-3 45 -12.5 72t-23.5 51q-9 17 -13 27t-4 23q0 21 10.5 28.5t47.5 7.5t48 -8t11 -29q0 -13 -3.5 -22.5t-13.5 -27.5q-14 -25 -23.5 -51.5t-12.5 -70.5q-1 -6 -6 -6z" />
    <glyph glyph-name="Tbar" unicode="&#x166;" horiz-adv-x="713" 
d="M693 447q0 -5 -3.5 -5t-4.5 5q-35 108 -72.5 165.5t-81.5 71.5q-13 8 -69 8q-8 0 -12 -11.5t-4 -25.5v-299h117q7 0 7 -5q0 -6 -7 -6h-117v-210q0 -67 27.5 -97.5t71.5 -31.5q9 0 9 -4q0 -5 -9 -5q-63 3 -88 3h-201q-24 0 -87 -3q-9 0 -9 5q0 4 9 4q44 1 71.5 31.5
t27.5 97.5v210h-119q-5 0 -5 5.5t5 5.5h119v299q0 13 -4.5 25t-12.5 12q-54 0 -69 -8q-88 -30 -153 -237q-1 -5 -5 -5q-2 0 -3.5 2t-0.5 5q11 91 11 177l-1 66q0 23 22 23q12 0 33 -3q74 -12 183 -12h178q108 0 182 12q21 3 33 3q24 0 23 -28q-3 -36 -3 -73q0 -72 12 -165
v-2z" />
    <glyph glyph-name="tbar" unicode="&#x167;" horiz-adv-x="366" 
d="M376 123q2 0 2.5 -2t-1.5 -6q-52 -69 -100.5 -101t-90.5 -32q-50 0 -82 37.5t-32 90.5v141h-50q-11 0 -11 7q0 2 3 4t8 2h50v163q0 15 -3.5 22.5t-17.5 7.5h-35q-6 0 -5.5 3t5.5 4q66 12 129 61t89 117q1 7 5 7q3 0 3 -7l-5 -157q0 -13 5.5 -16t20.5 -3h87q1 0 1 -3
q0 -2 -2 -4t-6 -2h-78q-17 0 -22.5 -5t-5.5 -19v-169h96q11 0 11 -6q0 -7 -11 -7h-96v-97q0 -40 15 -60.5t39 -20.5q19 0 40 12.5t40 34.5q3 3 5 3z" />
    <glyph glyph-name="Utilde" unicode="&#x168;" horiz-adv-x="773" 
d="M250 17.5q-70 35.5 -107.5 102t-37.5 156.5v289q0 67 -19 97.5t-50 31.5q-6 0 -5.5 4.5t5.5 4.5q45 -3 61 -3h196q23 0 77 3q8 0 8 -5q0 -4 -8 -4q-39 -1 -63 -31.5t-24 -97.5v-298q0 -101 53.5 -160t147.5 -59q57 0 101 29t68 82t24 121l-1 285q0 67 -24.5 97.5
t-63.5 31.5q-8 0 -8 4q0 5 8 5q57 -3 78 -3h25q15 0 51 3q5 0 5.5 -4.5t-4.5 -4.5q-26 -1 -42 -31.5t-16 -97.5v-282q0 -141 -71.5 -221t-198.5 -80q-95 0 -165 35.5zM259 733q-6 0 -3 9q18 59 49 88t76 29q28 0 64 -12l49 -16q38 -12 59 -12q42 0 67 39q3 4 7 4q6 0 3 -9
q-19 -59 -50 -88t-77 -29q-26 0 -62 11l-54 18q-51 17 -78 17q-20 0 -28.5 -9.5t-15.5 -32.5q-1 -7 -6 -7z" />
    <glyph glyph-name="utilde" unicode="&#x169;" horiz-adv-x="655" 
d="M666.5 208.5q3.5 0.5 3.5 -4.5q0 -58 -20.5 -109t-55.5 -81t-76 -30q-46 0 -79.5 29.5t-37.5 89.5q-13 -53 -53.5 -87t-111.5 -34q-75 0 -121 50.5t-46 147.5v120q0 56 -12 77.5t-51 17.5h-1q-3 0 -3.5 3.5t3.5 4.5q58 12 121.5 36t106.5 52q6 4 8 4q5 0 4 -8
q-7 -77 -9 -116t-2 -88v-115q0 -136 74 -136q44 0 68.5 39.5t24.5 93.5v135q0 56 -12.5 77.5t-50.5 17.5h-1q-4 0 -4 3.5t4 4.5q58 12 121.5 36t106.5 52q6 4 8 4q5 0 4 -8q-7 -77 -9 -116t-2 -88v-131q0 -71 35 -71q36 0 47.5 33t14.5 89q0 5 3.5 5.5zM152 543q-6 0 -3 9
q18 59 49 88t76 29q28 0 64 -12l49 -16q38 -12 59 -12q42 0 67 39q3 4 7 4q6 0 3 -9q-19 -59 -50 -88t-77 -29q-26 0 -62 11l-54 18q-51 17 -78 17q-20 0 -28.5 -9.5t-15.5 -32.5q-1 -7 -6 -7z" />
    <glyph glyph-name="Umacron" unicode="&#x16a;" horiz-adv-x="773" 
d="M250 17.5q-70 35.5 -107.5 102t-37.5 156.5v289q0 67 -19 97.5t-50 31.5q-6 0 -5.5 4.5t5.5 4.5q45 -3 61 -3h196q23 0 77 3q8 0 8 -5q0 -4 -8 -4q-39 -1 -63 -31.5t-24 -97.5v-298q0 -101 53.5 -160t147.5 -59q57 0 101 29t68 82t24 121l-1 285q0 67 -24.5 97.5
t-63.5 31.5q-8 0 -8 4q0 5 8 5q57 -3 78 -3h25q15 0 51 3q5 0 5.5 -4.5t-4.5 -4.5q-26 -1 -42 -31.5t-16 -97.5v-282q0 -141 -71.5 -221t-198.5 -80q-95 0 -165 35.5zM308 771q-11 0 -11 7q0 2 3 4t8 2h271q10 0 10 -6q0 -7 -10 -7h-271z" />
    <glyph glyph-name="umacron" unicode="&#x16b;" horiz-adv-x="655" 
d="M666.5 208.5q3.5 0.5 3.5 -4.5q0 -58 -20.5 -109t-55.5 -81t-76 -30q-46 0 -79.5 29.5t-37.5 89.5q-13 -53 -53.5 -87t-111.5 -34q-75 0 -121 50.5t-46 147.5v120q0 56 -12 77.5t-51 17.5h-1q-3 0 -3.5 3.5t3.5 4.5q58 12 121.5 36t106.5 52q6 4 8 4q5 0 4 -8
q-7 -77 -9 -116t-2 -88v-115q0 -136 74 -136q44 0 68.5 39.5t24.5 93.5v135q0 56 -12.5 77.5t-50.5 17.5h-1q-4 0 -4 3.5t4 4.5q58 12 121.5 36t106.5 52q6 4 8 4q5 0 4 -8q-7 -77 -9 -116t-2 -88v-131q0 -71 35 -71q36 0 47.5 33t14.5 89q0 5 3.5 5.5zM201 596q-11 0 -11 7
q0 2 3 4t8 2h271q10 0 10 -6q0 -7 -10 -7h-271z" />
    <glyph glyph-name="Ubreve" unicode="&#x16c;" horiz-adv-x="773" 
d="M250 17.5q-70 35.5 -107.5 102t-37.5 156.5v289q0 67 -19 97.5t-50 31.5q-6 0 -5.5 4.5t5.5 4.5q45 -3 61 -3h196q23 0 77 3q8 0 8 -5q0 -4 -8 -4q-39 -1 -63 -31.5t-24 -97.5v-298q0 -101 53.5 -160t147.5 -59q57 0 101 29t68 82t24 121l-1 285q0 67 -24.5 97.5
t-63.5 31.5q-8 0 -8 4q0 5 8 5q57 -3 78 -3h25q15 0 51 3q5 0 5.5 -4.5t-4.5 -4.5q-26 -1 -42 -31.5t-16 -97.5v-282q0 -141 -71.5 -221t-198.5 -80q-95 0 -165 35.5zM404 888.5q13 -4.5 13 -14.5q0 -39 18.5 -68.5t52.5 -29.5q36 0 53.5 27.5t17.5 68.5q0 8 5 8t5 -7
q0 -57 -32.5 -96.5t-94.5 -39.5q-66 0 -102.5 41t-36.5 99q0 8 9 12t38 4q41 0 54 -4.5z" />
    <glyph glyph-name="ubreve" unicode="&#x16d;" horiz-adv-x="655" 
d="M666.5 208.5q3.5 0.5 3.5 -4.5q0 -58 -20.5 -109t-55.5 -81t-76 -30q-46 0 -79.5 29.5t-37.5 89.5q-13 -53 -53.5 -87t-111.5 -34q-75 0 -121 50.5t-46 147.5v120q0 56 -12 77.5t-51 17.5h-1q-3 0 -3.5 3.5t3.5 4.5q58 12 121.5 36t106.5 52q6 4 8 4q5 0 4 -8
q-7 -77 -9 -116t-2 -88v-115q0 -136 74 -136q44 0 68.5 39.5t24.5 93.5v135q0 56 -12.5 77.5t-50.5 17.5h-1q-4 0 -4 3.5t4 4.5q58 12 121.5 36t106.5 52q6 4 8 4q5 0 4 -8q-7 -77 -9 -116t-2 -88v-131q0 -71 35 -71q36 0 47.5 33t14.5 89q0 5 3.5 5.5zM297 669.5
q13 -4.5 13 -14.5q0 -39 18.5 -68.5t52.5 -29.5q36 0 53.5 27.5t17.5 68.5q0 8 5 8t5 -7q0 -57 -32.5 -96.5t-94.5 -39.5q-66 0 -102.5 41t-36.5 99q0 8 9 12t38 4q41 0 54 -4.5z" />
    <glyph glyph-name="Uring" unicode="&#x16e;" horiz-adv-x="773" 
d="M250 17.5q-70 35.5 -107.5 102t-37.5 156.5v289q0 67 -19 97.5t-50 31.5q-6 0 -5.5 4.5t5.5 4.5q45 -3 61 -3h196q23 0 77 3q8 0 8 -5q0 -4 -8 -4q-39 -1 -63 -31.5t-24 -97.5v-298q0 -101 53.5 -160t147.5 -59q57 0 101 29t68 82t24 121l-1 285q0 67 -24.5 97.5
t-63.5 31.5q-8 0 -8 4q0 5 8 5q57 -3 78 -3h25q15 0 51 3q5 0 5.5 -4.5t-4.5 -4.5q-26 -1 -42 -31.5t-16 -97.5v-282q0 -141 -71.5 -221t-198.5 -80q-95 0 -165 35.5zM362.5 753.5q-29.5 21.5 -29.5 56.5q0 20 15 39t41 31t57 12q44 0 75.5 -21t31.5 -55t-34 -59t-84 -25
q-43 0 -72.5 21.5zM496 769q0 17 -14 43.5t-33 46.5t-35 20q-22 0 -22 -23q0 -18 13.5 -44.5t32.5 -46t35 -19.5q23 0 23 23z" />
    <glyph glyph-name="uring" unicode="&#x16f;" horiz-adv-x="655" 
d="M666.5 208.5q3.5 0.5 3.5 -4.5q0 -58 -20.5 -109t-55.5 -81t-76 -30q-46 0 -79.5 29.5t-37.5 89.5q-13 -53 -53.5 -87t-111.5 -34q-75 0 -121 50.5t-46 147.5v120q0 56 -12 77.5t-51 17.5h-1q-3 0 -3.5 3.5t3.5 4.5q58 12 121.5 36t106.5 52q6 4 8 4q5 0 4 -8
q-7 -77 -9 -116t-2 -88v-115q0 -136 74 -136q44 0 68.5 39.5t24.5 93.5v135q0 56 -12.5 77.5t-50.5 17.5h-1q-4 0 -4 3.5t4 4.5q58 12 121.5 36t106.5 52q6 4 8 4q5 0 4 -8q-7 -77 -9 -116t-2 -88v-131q0 -71 35 -71q36 0 47.5 33t14.5 89q0 5 3.5 5.5zM250.5 535
q-31.5 24 -31.5 63q0 23 16 44.5t43.5 35t60.5 13.5q48 0 81.5 -24t33.5 -62q0 -24 -16.5 -46t-45.5 -35t-64 -13q-46 0 -77.5 24zM387 532.5q6 5.5 6 20.5q0 19 -14.5 49t-35 52t-37.5 22q-12 0 -18 -5.5t-6 -20.5q0 -20 14.5 -49.5t35 -51.5t37.5 -22q12 0 18 5.5z" />
    <glyph glyph-name="Uhungarumlaut" unicode="&#x170;" horiz-adv-x="773" 
d="M250 17.5q-70 35.5 -107.5 102t-37.5 156.5v289q0 67 -19 97.5t-50 31.5q-6 0 -5.5 4.5t5.5 4.5q45 -3 61 -3h196q23 0 77 3q8 0 8 -5q0 -4 -8 -4q-39 -1 -63 -31.5t-24 -97.5v-298q0 -101 53.5 -160t147.5 -59q57 0 101 29t68 82t24 121l-1 285q0 67 -24.5 97.5
t-63.5 31.5q-8 0 -8 4q0 5 8 5q57 -3 78 -3h25q15 0 51 3q5 0 5.5 -4.5t-4.5 -4.5q-26 -1 -42 -31.5t-16 -97.5v-282q0 -141 -71.5 -221t-198.5 -80q-95 0 -165 35.5zM246 745.5q-1 3.5 3 5.5q40 28 55.5 56t24.5 63q6 21 11 30t17 10q31 6 73 6q44 0 44 -9q0 -21 -44.5 -58
t-100 -69.5t-78.5 -37.5q-4 0 -5 3.5zM424 745.5q-1 3.5 3 5.5q40 28 55.5 56t24.5 63q6 21 11 30t17 10q31 6 73 6q44 0 44 -9q0 -21 -44.5 -58t-100 -69.5t-78.5 -37.5q-4 0 -5 3.5z" />
    <glyph glyph-name="uhungarumlaut" unicode="&#x171;" horiz-adv-x="655" 
d="M666.5 208.5q3.5 0.5 3.5 -4.5q0 -58 -20.5 -109t-55.5 -81t-76 -30q-46 0 -79.5 29.5t-37.5 89.5q-13 -53 -53.5 -87t-111.5 -34q-75 0 -121 50.5t-46 147.5v120q0 56 -12 77.5t-51 17.5h-1q-3 0 -3.5 3.5t3.5 4.5q58 12 121.5 36t106.5 52q6 4 8 4q5 0 4 -8
q-7 -77 -9 -116t-2 -88v-115q0 -136 74 -136q44 0 68.5 39.5t24.5 93.5v135q0 56 -12.5 77.5t-50.5 17.5h-1q-4 0 -4 3.5t4 4.5q58 12 121.5 36t106.5 52q6 4 8 4q5 0 4 -8q-7 -77 -9 -116t-2 -88v-131q0 -71 35 -71q36 0 47.5 33t14.5 89q0 5 3.5 5.5zM193 520.5
q-1 3.5 3 5.5q40 28 55.5 56t24.5 63q6 21 11 30t17 10q31 6 73 6q44 0 44 -9q0 -21 -44.5 -58t-100 -69.5t-78.5 -37.5q-4 0 -5 3.5zM371 520.5q-1 3.5 3 5.5q40 28 55.5 56t24.5 63q6 21 11 30t17 10q31 6 73 6q44 0 44 -9q0 -21 -44.5 -58t-100 -69.5t-78.5 -37.5
q-4 0 -5 3.5z" />
    <glyph glyph-name="Uogonek" unicode="&#x172;" horiz-adv-x="773" 
d="M747.5 698.5q0.5 -4.5 -4.5 -4.5q-26 -1 -42 -31.5t-16 -97.5v-282q0 -94 -32.5 -162t-93.5 -103q-38 -39 -38 -78q0 -26 13.5 -38t35.5 -12q59 0 59 62q0 6 4 6t4 -6q0 -47 -35 -79t-96 -32q-40 0 -62.5 15.5t-22.5 44.5q0 46 55 86q-32 -5 -61 -5q-95 0 -165 35.5
t-107.5 102t-37.5 156.5v289q0 67 -19 97.5t-50 31.5q-6 0 -5.5 4.5t5.5 4.5q45 -3 61 -3h196q23 0 77 3q8 0 8 -5q0 -4 -8 -4q-39 -1 -63 -31.5t-24 -97.5v-298q0 -101 53.5 -160t147.5 -59q57 0 101 29t68 82t24 121l-1 285q0 67 -24.5 97.5t-63.5 31.5q-8 0 -8 4q0 5 8 5
q57 -3 78 -3h25q15 0 51 3q5 0 5.5 -4.5z" />
    <glyph glyph-name="uogonek" unicode="&#x173;" horiz-adv-x="655" 
d="M638 -71q4 0 4 -6q0 -47 -35 -79t-96 -32q-40 0 -62.5 15.5t-22.5 44.5q0 60 95 112h-3q-46 0 -79.5 29.5t-37.5 89.5q-13 -53 -53.5 -87t-111.5 -34q-75 0 -121 50.5t-46 147.5v120q0 56 -12 77.5t-51 17.5h-1q-3 0 -3.5 3.5t3.5 4.5q58 12 121.5 36t106.5 52q6 4 8 4
q5 0 4 -8q-7 -77 -9 -116t-2 -88v-115q0 -136 74 -136q44 0 68.5 39.5t24.5 93.5v135q0 56 -12.5 77.5t-50.5 17.5h-1q-4 0 -4 3.5t4 4.5q58 12 121.5 36t106.5 52q6 4 8 4q5 0 4 -8q-7 -77 -9 -116t-2 -88v-131q0 -71 35 -71q36 0 47.5 33t14.5 89q0 5 3.5 5.5t3.5 -4.5
q0 -64 -24.5 -118.5t-64.5 -80.5q-32 -28 -43.5 -50t-11.5 -44q0 -26 13.5 -38t35.5 -12q59 0 59 62q0 6 4 6z" />
    <glyph glyph-name="Wcircumflex" unicode="&#x174;" horiz-adv-x="1093" 
d="M1088.5 698.5q0.5 -4.5 -5.5 -4.5q-24 -1 -44 -29.5t-41 -94.5l-156 -473v-1q-2 -4 -2 -11q0 -4 3 -16l6 -12q2 -6 2 -9q0 -10 -9 -12l-140 -51q-6 -2 -9 -2q-13 0 -17 13l-129 398l-98 -295v-1q-3 -7 -3 -13q0 -8 4 -16l5 -12q2 -6 2 -9q0 -10 -9 -12l-140 -51
q-6 -2 -9 -2q-12 0 -16 13l-187 574q-21 66 -41 94.5t-44 29.5q-6 0 -5.5 4.5t5.5 4.5q36 -3 52 -3h200q17 0 59 3q6 0 6.5 -4.5t-6.5 -4.5q-21 -1 -35 -16t-14 -46q0 -28 11 -62l148 -457q2 -5 6 -5q5 0 7 5l89 268q5 15 5 24q0 10 -8 34l2 -1l-43 132q-22 66 -46 94.5
t-53 29.5q-7 0 -6.5 4.5t6.5 4.5q45 -3 63 -3h205q20 0 74 3q8 0 8 -5q0 -4 -8 -4q-28 -1 -47 -18t-19 -52q0 -24 10 -54l147 -457q1 -7 7 -7q5 0 7 7l150 457q10 31 10 55q0 34 -18.5 51t-45.5 18q-8 0 -8 4q0 5 8 5q51 -3 73 -3h24q13 0 52 3q5 0 5.5 -4.5zM732 743
q0 -5 -7 -5q-35 2 -88 23t-88 48q-34 -28 -88.5 -49t-90.5 -22q-5 0 -6 3.5t3 4.5q42 15 64 36t42 51q17 26 31.5 37.5t43.5 11.5q31 0 46.5 -12t33.5 -38q18 -28 39.5 -48.5t61.5 -37.5q3 -1 3 -3z" />
    <glyph glyph-name="wcircumflex" unicode="&#x175;" horiz-adv-x="865" 
d="M862 462.5q0 -4.5 -4 -4.5q-23 0 -39.5 -24t-44.5 -94l-99 -250q-1 -3 -1 -8q0 -4 3 -13l10 -21q1 -2 1 -5q0 -8 -7 -9l-129 -49q-3 -1 -7 -1q-9 0 -13 10l-100 263l-66 -167q-1 -3 -1 -7t1.5 -8t1.5 -6l10 -21q1 -2 1 -5q0 -7 -6 -9l-129 -49q-3 -1 -7 -1q-9 0 -13 10
l-134 345q-26 69 -42.5 94t-40.5 25q-4 0 -4 4.5t4 4.5q22 -2 46 -2h179q24 0 46 2q4 0 4 -4.5t-4 -4.5q-32 0 -32 -37q0 -31 20 -82l87 -228q3 -6 6 -6q5 0 6 6l63 158l-27 70q-26 69 -43.5 94t-44.5 25q-4 0 -4 4.5t4 4.5q24 -2 51 -2h179q34 0 66 2q5 0 5 -4.5t-5 -4.5
q-49 0 -49 -46q0 -29 17 -73l85 -228q2 -6 6 -6q5 0 6 6l90 228q17 43 17 71q0 48 -56 48q-7 0 -7 5q0 4 7 4q34 -2 75 -2h12q24 0 46 2q4 0 4 -4.5zM601 527q0 -2 -2 -4t-5 -2q-33 2 -83.5 26t-82.5 56q-31 -32 -82.5 -56.5t-85.5 -25.5q-4 0 -5.5 3.5t2.5 5.5q40 18 61 42
t38 58q16 30 29.5 43t41.5 13q29 0 44 -13.5t32 -43.5q17 -32 37.5 -55.5t57.5 -42.5q3 -1 3 -4z" />
    <glyph glyph-name="Ycircumflex" unicode="&#x176;" horiz-adv-x="703" 
d="M194 -3q-6 0 -6.5 4.5t6.5 4.5q32 1 52.5 31.5t19.5 97.5v114q0 26 -10 46l-146 281q-35 66 -56 92t-43 27q-6 0 -5.5 4.5t5.5 4.5q18 -3 52 -3h207q50 0 78 3q8 0 8 -5q0 -4 -8 -4q-27 -1 -46 -15.5t-19 -42.5q0 -25 18 -61l132 -264q5 -9 9 -9q5 0 10 10l132 262
q17 34 17 61q0 28 -18.5 42.5t-45.5 15.5q-8 0 -8 4q0 5 8 5q54 -3 77 -3h26q13 0 52 3q5 0 5 -4.5t-5 -4.5q-22 -1 -43 -27t-55 -92l-141 -280q-9 -17 -9 -45l1 -115q0 -67 20 -97.5t52 -31.5q7 0 6.5 -4.5t-6.5 -4.5q-45 3 -65 3h-193q-17 0 -65 -3zM531 743q0 -5 -7 -5
q-35 2 -88 23t-88 48q-34 -28 -88.5 -49t-90.5 -22q-5 0 -6 3.5t3 4.5q42 15 64 36t42 51q17 26 31.5 37.5t43.5 11.5q31 0 46.5 -12t33.5 -38q18 -28 39.5 -48.5t61.5 -37.5q3 -1 3 -3z" />
    <glyph glyph-name="ycircumflex" unicode="&#x177;" horiz-adv-x="577" 
d="M574 462.5q0 -4.5 -4 -4.5q-24 0 -40.5 -24.5t-44.5 -93.5l-146 -352q-32 -74 -57.5 -116t-58.5 -64t-80 -22q-33 0 -65.5 11t-54.5 29.5t-23 37.5q0 17 15 51.5t33.5 64.5t24.5 30q3 0 2 -8q-3 -23 16 -68t50 -79.5t64 -34.5q22 0 38 16.5t28 49.5q1 17 -11.5 51
t-31.5 79l-135 324q-29 70 -45.5 94t-39.5 24q-4 0 -4 4.5t4 4.5q20 -2 45 -2h180q42 0 78 2q7 0 7 -4q0 -5 -7 -5q-60 0 -60 -49q0 -25 18 -69l96 -231q3 -7 7 -7t7 6l96 232q17 40 17 67q0 51 -64 51q-7 0 -7 5q0 4 7 4q38 -2 83 -2h13q24 0 46 2q4 0 4 -4.5zM463 527
q0 -2 -2 -4t-5 -2q-33 2 -83.5 26t-82.5 56q-31 -32 -82.5 -56.5t-85.5 -25.5q-4 0 -5.5 3.5t2.5 5.5q40 18 61 42t38 58q16 30 29.5 43t41.5 13q29 0 44 -13.5t32 -43.5q17 -32 37.5 -55.5t57.5 -42.5q3 -1 3 -4z" />
    <glyph glyph-name="Ydieresis" unicode="&#x178;" horiz-adv-x="703" 
d="M194 -3q-6 0 -6.5 4.5t6.5 4.5q32 1 52.5 31.5t19.5 97.5v114q0 26 -10 46l-146 281q-35 66 -56 92t-43 27q-6 0 -5.5 4.5t5.5 4.5q18 -3 52 -3h207q50 0 78 3q8 0 8 -5q0 -4 -8 -4q-27 -1 -46 -15.5t-19 -42.5q0 -25 18 -61l132 -264q5 -9 9 -9q5 0 10 10l132 262
q17 34 17 61q0 28 -18.5 42.5t-45.5 15.5q-8 0 -8 4q0 5 8 5q54 -3 77 -3h26q13 0 52 3q5 0 5 -4.5t-5 -4.5q-22 -1 -43 -27t-55 -92l-141 -280q-9 -17 -9 -45l1 -115q0 -67 20 -97.5t52 -31.5q7 0 6.5 -4.5t-6.5 -4.5q-45 3 -65 3h-193q-17 0 -65 -3zM200.5 769
q-21.5 18 -21.5 43q1 30 24.5 50.5t61.5 20.5q29 0 50 -18t21 -43q0 -30 -23.5 -50.5t-60.5 -20.5q-30 0 -51.5 18zM380.5 768q-21.5 17 -21.5 42q0 31 23 52t62 21q30 0 50.5 -18t20.5 -43q0 -30 -23.5 -50.5t-60.5 -20.5q-29 0 -50.5 17z" />
    <glyph glyph-name="Zacute" unicode="&#x179;" horiz-adv-x="687" 
d="M572 -10q-46 10 -93 10h-338q-30 0 -64 -2q-12 -1 -28 -1q-20 0 -20 15q0 9 8 23l410 638q3 6 3 11q0 9 -10 8l-160 -8q-56 -3 -95.5 -24.5t-69 -72.5t-52.5 -141q-1 -6 -5 -5.5t-3 5.5q13 100 18 241q1 14 6.5 20.5t16.5 6.5q5 0 33 -4q67 -10 129 -10h162l213 3
q13 0 13 -9q0 -11 -23 -45l-400 -628q-3 -4 -3 -8q0 -6 10 -5l189 9q75 5 136 75.5t87 187.5q2 6 4 6q5 0 3 -6q-22 -122 -20 -267q0 -14 -5.5 -20.5t-17.5 -6.5q-6 0 -34 4zM242.5 747.5q-1.5 3.5 3.5 5.5q59 31 83 56t41 63q3 6 41 6q33 0 59.5 -5.5t25.5 -15.5
q0 -20 -49 -46.5t-110 -46.5t-86 -20q-7 0 -8.5 3.5z" />
    <glyph glyph-name="zacute" unicode="&#x17a;" horiz-adv-x="511" 
d="M450 -5q-32 5 -64 5h-181q-25 0 -87 -2l-78 -1q-14 0 -14 11q0 6 9 23l251 412q2 3 2 8q0 6 -8 6l-75 -4q-45 -1 -84.5 -34.5t-60.5 -103.5q-1 -6 -5 -5t-3 6q8 52 8 95q0 33 -2 48v4q0 9 9 9q8 0 29.5 -3t62.5 -3h158l161 2q9 0 9 -7q0 -5 -18 -33q-27 -41 -49 -80
l-199 -327q-3 -3 -3 -7q0 -6 10 -6l85 5q50 0 81 19.5t49.5 54t36.5 94.5q2 5 5.5 4.5t2.5 -6.5q-10 -71 -10 -113q0 -27 3 -60q0 -7 -2 -10t-8 -3q-7 0 -21 2zM218 514q-3 0 -4 3t3 6q42 26 57.5 54.5t23.5 63.5q6 21 11 30t17 11q42 6 72 6q44 0 44 -9q0 -21 -44.5 -59
t-100 -70.5t-78.5 -35.5h-1z" />
    <glyph glyph-name="Zdotaccent" unicode="&#x17b;" horiz-adv-x="687" 
d="M572 -10q-46 10 -93 10h-338q-30 0 -64 -2q-12 -1 -28 -1q-20 0 -20 15q0 9 8 23l410 638q3 6 3 11q0 9 -10 8l-160 -8q-56 -3 -95.5 -24.5t-69 -72.5t-52.5 -141q-1 -6 -5 -5.5t-3 5.5q13 100 18 241q1 14 6.5 20.5t16.5 6.5q5 0 33 -4q67 -10 129 -10h162l213 3
q13 0 13 -9q0 -11 -23 -45l-400 -628q-3 -4 -3 -8q0 -6 10 -5l189 9q75 5 136 75.5t87 187.5q2 6 4 6q5 0 3 -6q-22 -122 -20 -267q0 -14 -5.5 -20.5t-17.5 -6.5q-6 0 -34 4zM273.5 757.5q-20.5 15.5 -20.5 39.5q0 31 28.5 52.5t71.5 21.5q35 0 56 -16t21 -41q0 -30 -29 -51
t-73 -21q-34 0 -54.5 15.5z" />
    <glyph glyph-name="zdotaccent" unicode="&#x17c;" horiz-adv-x="511" 
d="M450 -5q-32 5 -64 5h-181q-25 0 -87 -2l-78 -1q-14 0 -14 11q0 6 9 23l251 412q2 3 2 8q0 6 -8 6l-75 -4q-45 -1 -84.5 -34.5t-60.5 -103.5q-1 -6 -5 -5t-3 6q8 52 8 95q0 33 -2 48v4q0 9 9 9q8 0 29.5 -3t62.5 -3h158l161 2q9 0 9 -7q0 -5 -18 -33q-27 -41 -49 -80
l-199 -327q-3 -3 -3 -7q0 -6 10 -6l85 5q50 0 81 19.5t49.5 54t36.5 94.5q2 5 5.5 4.5t2.5 -6.5q-10 -71 -10 -113q0 -27 3 -60q0 -7 -2 -10t-8 -3q-7 0 -21 2zM201.5 554.5q-21.5 18.5 -21.5 43.5q1 30 24.5 51t61.5 21q30 0 51 -18t21 -44q0 -30 -23.5 -51t-61.5 -21
q-30 0 -51.5 18.5z" />
    <glyph glyph-name="Zcaron" unicode="&#x17d;" horiz-adv-x="687" 
d="M572 -10q-46 10 -93 10h-338q-30 0 -64 -2q-12 -1 -28 -1q-20 0 -20 15q0 9 8 23l410 638q3 6 3 11q0 9 -10 8l-160 -8q-56 -3 -95.5 -24.5t-69 -72.5t-52.5 -141q-1 -6 -5 -5.5t-3 5.5q13 100 18 241q1 14 6.5 20.5t16.5 6.5q5 0 33 -4q67 -10 129 -10h162l213 3
q13 0 13 -9q0 -11 -23 -45l-400 -628q-3 -4 -3 -8q0 -6 10 -5l189 9q75 5 136 75.5t87 187.5q2 6 4 6q5 0 3 -6q-22 -122 -20 -267q0 -14 -5.5 -20.5t-17.5 -6.5q-6 0 -34 4zM511.5 870q1.5 -3 -2.5 -4q-40 -14 -60 -32.5t-40 -46.5q-17 -23 -30.5 -33.5t-40.5 -10.5
q-29 0 -43.5 10.5t-31.5 34.5q-18 26 -37.5 44t-57.5 33q-4 2 -3 5t6 3q34 -1 83.5 -20t82.5 -44q32 25 83 44t85 20q5 0 6.5 -3z" />
    <glyph glyph-name="zcaron" unicode="&#x17e;" horiz-adv-x="511" 
d="M450 -5q-32 5 -64 5h-181q-25 0 -87 -2l-78 -1q-14 0 -14 11q0 6 9 23l251 412q2 3 2 8q0 6 -8 6l-75 -4q-45 -1 -84.5 -34.5t-60.5 -103.5q-1 -6 -5 -5t-3 6q8 52 8 95q0 33 -2 48v4q0 9 9 9q8 0 29.5 -3t62.5 -3h158l161 2q9 0 9 -7q0 -5 -18 -33q-27 -41 -49 -80
l-199 -327q-3 -3 -3 -7q0 -6 10 -6l85 5q50 0 81 19.5t49.5 54t36.5 94.5q2 5 5.5 4.5t2.5 -6.5q-10 -71 -10 -113q0 -27 3 -60q0 -7 -2 -10t-8 -3q-7 0 -21 2zM430 673.5q2 -3.5 -2 -5.5q-40 -18 -60.5 -41.5t-39.5 -58.5q-16 -30 -29.5 -43t-41.5 -13q-29 0 -43.5 13.5
t-31.5 43.5q-17 32 -37.5 55.5t-57.5 42.5q-4 2 -2.5 6t5.5 4q34 -2 84 -26.5t82 -55.5q32 32 83.5 56.5t84.5 25.5q4 0 6 -3.5z" />
    <glyph glyph-name="uni018F" unicode="&#x18f;" horiz-adv-x="780" 
d="M571.5 673q81.5 -44 129 -124.5t47.5 -184.5q0 -101 -53 -189t-143.5 -141t-198.5 -53q-109 0 -181 36.5t-106 98.5t-34 139q0 59 13 101l510 -7q-42 116 -122 191.5t-177 75.5q-49 0 -92 -13.5t-80 -48.5q-5 -4 -7 -2t2 7q64 77 145 117.5t169 40.5q97 0 178.5 -44z
M551 52.5q36 38.5 36 113.5q0 88 -29 173l-319 -10q-6 -27 -6 -61q0 -71 31 -129.5t81 -91.5t105 -33q65 0 101 38.5z" />
    <glyph glyph-name="florin" unicode="&#x192;" horiz-adv-x="753" 
d="M312 81q0 25 -13 86q-4 17 -5 22q-7 45 -7 88q0 30 6 88q1 5 1 13q0 17 -6.5 23t-19.5 6h-59q-11 0 -11 5q0 7 13 8q34 2 55 15.5t36.5 42t32.5 81.5q25 62 67.5 103.5t92.5 61.5t99 20q42 0 75.5 -15t47.5 -42q4 -8 4 -13q0 -17 -19 -31q-20 -16 -49 -30.5t-44 -14.5
q-8 0 -11 5q-24 47 -54 73.5t-57 26.5q-15 0 -26 -7q-19 -11 -19 -62q0 -36 11 -106l-3 -56q11 -52 46 -52h83q11 0 11 -5q0 -3 -4.5 -5.5t-11.5 -2.5h-78q-23 0 -31 -7.5t-10 -29.5l-9 -100q-6 -66 -32 -120q-39 -82 -110 -124.5t-144 -42.5q-43 0 -77 15t-48 42
q-3 5 -3 12q0 16 18 31q20 16 49 31t45 15q7 0 10 -5q24 -48 54 -74.5t58 -26.5q15 0 26 7q20 12 20 51z" />
    <glyph glyph-name="uni019D" unicode="&#x19d;" horiz-adv-x="779" 
d="M755.5 698.5q0.5 -4.5 -6.5 -4.5q-32 -1 -52.5 -31.5t-20.5 -97.5v-571q0 -7 -5 -7q-6 0 -12 6l-515 617q-4 4 -8 4q-5 0 -5 -7l1 -451v-195q0 -93 -30.5 -136t-100.5 -43t-130 30q-10 5 9 33.5t45 52t31 15.5q24 -36 47.5 -54t51.5 -18q36 0 50.5 26.5t14.5 93.5v195
l1 482q-28 30 -47.5 43t-39.5 14q-7 0 -6.5 4.5t6.5 4.5q24 -3 65 -3l166 -1q29 0 43 -16l345 -427q5 -5 8 -5q5 0 5 7l-1 306q0 67 -20.5 97.5t-52.5 31.5q-7 0 -6.5 4.5t6.5 4.5q48 -3 65 -3h27q17 0 65 3q6 0 6.5 -4.5z" />
    <glyph glyph-name="uni01CD" unicode="&#x1cd;" horiz-adv-x="753" 
d="M748 1.5q0 -4.5 -5 -4.5q-36 3 -47 3h-204q-25 0 -82 -3q-9 0 -9 5q0 4 8 4q31 1 51.5 17t20.5 49q0 24 -13 56l-36 87q-7 5 -12 5t-11 -3q-61 -26 -134 -42.5t-143 -20.5q-18 0 -24 -17v1l-4 -10q-12 -31 -12 -54q0 -34 22 -50.5t55 -17.5q9 0 9 -4q0 -5 -9 -5
q-63 3 -87 3h-25q-14 0 -47 -3q-5 0 -5 4.5t5 4.5q21 1 39.5 28t45.5 94l175 430q4 11 4 26q0 23 -9 41l-21 52q-6 16 -22 17q-4 1 -3 3.5t5 2.5h183q9 0 14 -2.5t8 -11.5l228 -558q27 -67 46 -94t40 -28q5 0 5 -4.5zM417.5 237q3.5 7 0.5 12h1l-133 326l-161 -396
q-1 -3 -1 -8q0 -8 10 -8q70 4 142.5 20t129.5 43q8 4 11.5 11zM549.5 870q1.5 -3 -2.5 -4q-40 -14 -60 -32.5t-40 -46.5q-17 -23 -30.5 -33.5t-40.5 -10.5q-29 0 -43.5 10.5t-31.5 34.5q-18 26 -37.5 44t-57.5 33q-4 2 -3 5t6 3q34 -1 83.5 -20t82.5 -44q32 25 83 44t85 20
q5 0 6.5 -3z" />
    <glyph glyph-name="uni01CE" unicode="&#x1ce;" horiz-adv-x="600" 
d="M611.5 207.5q4.5 0.5 4.5 -6.5q0 -67 -22 -116.5t-58 -75.5t-76 -26q-36 0 -64 30.5t-41 88.5l-3 14q-19 -65 -62 -99t-95 -34q-58 0 -98 25t-59 65t-17 84q1 51 49.5 80t128.5 29q67 0 120 -11l-24 99q-11 47 -36 70t-69 23q-59 0 -98 -31t-47 -102q-2 -8 -6 -8t-4 8
q10 89 77.5 129.5t152.5 40.5q94 0 141 -34t67 -117l47 -208q10 -45 38 -45q22 0 35.5 36.5t13.5 84.5q0 6 4.5 6.5zM343 142q0 9 -1 15l-20 83q-38 11 -71 11q-43 0 -60.5 -16.5t-17.5 -60.5q0 -46 25.5 -80t69.5 -34q59 0 71 60q4 9 4 22zM441 673.5q2 -3.5 -2 -5.5
q-40 -18 -60.5 -41.5t-39.5 -58.5q-16 -30 -29.5 -43t-41.5 -13q-29 0 -43.5 13.5t-31.5 43.5q-17 32 -37.5 55.5t-57.5 42.5q-4 2 -2.5 6t5.5 4q34 -2 84 -26.5t82 -55.5q32 32 83.5 56.5t84.5 25.5q4 0 6 -3.5z" />
    <glyph glyph-name="uni01CF" unicode="&#x1cf;" horiz-adv-x="395" 
d="M88 662.5q-20 30.5 -52 31.5q-7 0 -7 4q0 2 2 3.5t5 1.5q45 -3 64 -3h194q17 0 65 3q6 0 6.5 -4.5t-6.5 -4.5q-32 -1 -52.5 -31.5t-20.5 -97.5v-430q0 -67 20.5 -97.5t52.5 -31.5q7 0 6.5 -4.5t-6.5 -4.5q-48 3 -65 3h-194q-19 0 -64 -3q-6 0 -6.5 4.5t6.5 4.5
q32 1 52 31.5t20 97.5v430q0 67 -20 97.5zM374.5 870q1.5 -3 -2.5 -4q-40 -14 -60 -32.5t-40 -46.5q-17 -23 -30.5 -33.5t-40.5 -10.5q-29 0 -43.5 10.5t-31.5 34.5q-18 26 -37.5 44t-57.5 33q-4 2 -3 5t6 3q34 -1 83.5 -20t82.5 -44q32 25 83 44t85 20q5 0 6.5 -3z" />
    <glyph glyph-name="uni01D0" unicode="&#x1d0;" horiz-adv-x="328" 
d="M260.5 42.5q12.5 -34.5 47.5 -35.5q5 0 5 -5t-5 -4q-19 1 -142 1q-124 0 -143 -1q-5 0 -4.5 4.5t6.5 4.5q30 0 44 31t14 95v167q0 56 -12.5 77.5t-51.5 17.5h-1q-3 0 -3.5 3.5t3.5 4.5q58 12 121.5 36t106.5 52q6 4 9 4q4 0 4 -8q-7 -72 -9 -111t-2 -93v-150
q0 -56 12.5 -90.5zM330 673.5q2 -3.5 -2 -5.5q-40 -18 -60.5 -41.5t-39.5 -58.5q-16 -30 -29.5 -43t-41.5 -13q-29 0 -43.5 13.5t-31.5 43.5q-17 32 -37.5 55.5t-57.5 42.5q-4 2 -2.5 6t5.5 4q34 -2 84 -26.5t82 -55.5q32 32 83.5 56.5t84.5 25.5q4 0 6 -3.5z" />
    <glyph glyph-name="uni01D1" unicode="&#x1d1;" horiz-adv-x="850" 
d="M208.5 27.5q-83.5 45.5 -130 126.5t-46.5 183q0 105 53.5 192t147 137.5t209.5 50.5q109 0 194.5 -45.5t133.5 -126t48 -181.5q0 -105 -54.5 -192.5t-150.5 -138.5t-214 -51q-107 0 -190.5 45.5zM621 56q36 39 36 111q0 111 -48 232.5t-125 202.5t-158 81
q-63 0 -98.5 -37.5t-35.5 -108.5q0 -110 47.5 -232.5t123.5 -205t156 -82.5q66 0 102 39zM598.5 870q1.5 -3 -2.5 -4q-40 -14 -60 -32.5t-40 -46.5q-17 -23 -30.5 -33.5t-40.5 -10.5q-29 0 -43.5 10.5t-31.5 34.5q-18 26 -37.5 44t-57.5 33q-4 2 -3 5t6 3q34 -1 83.5 -20
t82.5 -44q32 25 83 44t85 20q5 0 6.5 -3z" />
    <glyph glyph-name="uni01D2" unicode="&#x1d2;" horiz-adv-x="592" 
d="M142.5 12.5q-59.5 30.5 -92.5 85.5t-33 126q0 74 38 133t104.5 92.5t146.5 33.5q79 0 140 -30.5t95 -85t34 -125.5q0 -74 -39.5 -133.5t-107.5 -93t-150 -33.5q-76 0 -135.5 30.5zM413.5 29q22.5 22 22.5 63q0 60 -34 147.5t-81.5 152.5t-83.5 67q-38 1 -60.5 -21
t-22.5 -65q0 -60 34 -146.5t81.5 -151.5t82.5 -67q39 -1 61.5 21zM469 673.5q2 -3.5 -2 -5.5q-40 -18 -60.5 -41.5t-39.5 -58.5q-16 -30 -29.5 -43t-41.5 -13q-29 0 -43.5 13.5t-31.5 43.5q-17 32 -37.5 55.5t-57.5 42.5q-4 2 -2.5 6t5.5 4q34 -2 84 -26.5t82 -55.5
q32 32 83.5 56.5t84.5 25.5q4 0 6 -3.5z" />
    <glyph glyph-name="uni01D3" unicode="&#x1d3;" horiz-adv-x="773" 
d="M250 17.5q-70 35.5 -107.5 102t-37.5 156.5v289q0 67 -19 97.5t-50 31.5q-6 0 -5.5 4.5t5.5 4.5q45 -3 61 -3h196q23 0 77 3q8 0 8 -5q0 -4 -8 -4q-39 -1 -63 -31.5t-24 -97.5v-298q0 -101 53.5 -160t147.5 -59q57 0 101 29t68 82t24 121l-1 285q0 67 -24.5 97.5
t-63.5 31.5q-8 0 -8 4q0 5 8 5q57 -3 78 -3h25q15 0 51 3q5 0 5.5 -4.5t-4.5 -4.5q-26 -1 -42 -31.5t-16 -97.5v-282q0 -141 -71.5 -221t-198.5 -80q-95 0 -165 35.5zM616.5 870q1.5 -3 -2.5 -4q-40 -14 -60 -32.5t-40 -46.5q-17 -23 -30.5 -33.5t-40.5 -10.5
q-29 0 -43.5 10.5t-31.5 34.5q-18 26 -37.5 44t-57.5 33q-4 2 -3 5t6 3q34 -1 83.5 -20t82.5 -44q32 25 83 44t85 20q5 0 6.5 -3z" />
    <glyph glyph-name="uni01D4" unicode="&#x1d4;" horiz-adv-x="655" 
d="M666.5 208.5q3.5 0.5 3.5 -4.5q0 -58 -20.5 -109t-55.5 -81t-76 -30q-46 0 -79.5 29.5t-37.5 89.5q-13 -53 -53.5 -87t-111.5 -34q-75 0 -121 50.5t-46 147.5v120q0 56 -12 77.5t-51 17.5h-1q-3 0 -3.5 3.5t3.5 4.5q58 12 121.5 36t106.5 52q6 4 8 4q5 0 4 -8
q-7 -77 -9 -116t-2 -88v-115q0 -136 74 -136q44 0 68.5 39.5t24.5 93.5v135q0 56 -12.5 77.5t-50.5 17.5h-1q-4 0 -4 3.5t4 4.5q58 12 121.5 36t106.5 52q6 4 8 4q5 0 4 -8q-7 -77 -9 -116t-2 -88v-131q0 -71 35 -71q36 0 47.5 33t14.5 89q0 5 3.5 5.5zM509 673.5
q2 -3.5 -2 -5.5q-40 -18 -60.5 -41.5t-39.5 -58.5q-16 -30 -29.5 -43t-41.5 -13q-29 0 -43.5 13.5t-31.5 43.5q-17 32 -37.5 55.5t-57.5 42.5q-4 2 -2.5 6t5.5 4q34 -2 84 -26.5t82 -55.5q32 32 83.5 56.5t84.5 25.5q4 0 6 -3.5z" />
    <glyph glyph-name="uni01D5" unicode="&#x1d5;" horiz-adv-x="773" 
d="M250 17.5q-70 35.5 -107.5 102t-37.5 156.5v289q0 67 -19 97.5t-50 31.5q-6 0 -5.5 4.5t5.5 4.5q45 -3 61 -3h196q23 0 77 3q8 0 8 -5q0 -4 -8 -4q-39 -1 -63 -31.5t-24 -97.5v-298q0 -101 53.5 -160t147.5 -59q57 0 101 29t68 82t24 121l-1 285q0 67 -24.5 97.5
t-63.5 31.5q-8 0 -8 4q0 5 8 5q57 -3 78 -3h25q15 0 51 3q5 0 5.5 -4.5t-4.5 -4.5q-26 -1 -42 -31.5t-16 -97.5v-282q0 -141 -71.5 -221t-198.5 -80q-95 0 -165 35.5zM297.5 769q-21.5 18 -21.5 43q1 30 24.5 50.5t61.5 20.5q29 0 50 -18t21 -43q0 -30 -23.5 -50.5
t-60.5 -20.5q-30 0 -51.5 18zM477.5 768q-21.5 17 -21.5 42q0 31 23 52t62 21q30 0 50.5 -18t20.5 -43q0 -30 -23.5 -50.5t-60.5 -20.5q-29 0 -50.5 17zM306 925q-11 0 -11 7q0 2 3 4t8 2h271q10 0 10 -6q0 -7 -10 -7h-271z" />
    <glyph glyph-name="uni01D6" unicode="&#x1d6;" horiz-adv-x="655" 
d="M666.5 208.5q3.5 0.5 3.5 -4.5q0 -58 -20.5 -109t-55.5 -81t-76 -30q-46 0 -79.5 29.5t-37.5 89.5q-13 -53 -53.5 -87t-111.5 -34q-75 0 -121 50.5t-46 147.5v120q0 56 -12 77.5t-51 17.5h-1q-3 0 -3.5 3.5t3.5 4.5q58 12 121.5 36t106.5 52q6 4 8 4q5 0 4 -8
q-7 -77 -9 -116t-2 -88v-115q0 -136 74 -136q44 0 68.5 39.5t24.5 93.5v135q0 56 -12.5 77.5t-50.5 17.5h-1q-4 0 -4 3.5t4 4.5q58 12 121.5 36t106.5 52q6 4 8 4q5 0 4 -8q-7 -77 -9 -116t-2 -88v-131q0 -71 35 -71q36 0 47.5 33t14.5 89q0 5 3.5 5.5zM192.5 559
q-21.5 18 -21.5 43q1 30 24.5 50.5t61.5 20.5q29 0 50 -18t21 -43q0 -30 -23.5 -50.5t-60.5 -20.5q-30 0 -51.5 18zM372.5 558q-21.5 17 -21.5 42q0 31 23 52t62 21q30 0 50.5 -18t20.5 -43q0 -30 -23.5 -50.5t-60.5 -20.5q-29 0 -50.5 17zM201 779q-11 0 -11 7q0 2 3 4t8 2
h271q10 0 10 -6q0 -7 -10 -7h-271z" />
    <glyph glyph-name="uni01D7" unicode="&#x1d7;" horiz-adv-x="773" 
d="M250 17.5q-70 35.5 -107.5 102t-37.5 156.5v289q0 67 -19 97.5t-50 31.5q-6 0 -5.5 4.5t5.5 4.5q45 -3 61 -3h196q23 0 77 3q8 0 8 -5q0 -4 -8 -4q-39 -1 -63 -31.5t-24 -97.5v-298q0 -101 53.5 -160t147.5 -59q57 0 101 29t68 82t24 121l-1 285q0 67 -24.5 97.5
t-63.5 31.5q-8 0 -8 4q0 5 8 5q57 -3 78 -3h25q15 0 51 3q5 0 5.5 -4.5t-4.5 -4.5q-26 -1 -42 -31.5t-16 -97.5v-282q0 -141 -71.5 -221t-198.5 -80q-95 0 -165 35.5zM297.5 769q-21.5 18 -21.5 43q1 30 24.5 50.5t61.5 20.5q29 0 50 -18t21 -43q0 -30 -23.5 -50.5
t-60.5 -20.5q-30 0 -51.5 18zM477.5 768q-21.5 17 -21.5 42q0 31 23 52t62 21q30 0 50.5 -18t20.5 -43q0 -30 -23.5 -50.5t-60.5 -20.5q-29 0 -50.5 17zM345.5 901.5q-1.5 3.5 3.5 5.5q59 31 83 56t41 63q3 6 41 6q33 0 59.5 -5.5t25.5 -15.5q0 -20 -49 -46.5t-110 -46.5
t-86 -20q-7 0 -8.5 3.5z" />
    <glyph glyph-name="uni01D8" unicode="&#x1d8;" horiz-adv-x="655" 
d="M666.5 208.5q3.5 0.5 3.5 -4.5q0 -58 -20.5 -109t-55.5 -81t-76 -30q-46 0 -79.5 29.5t-37.5 89.5q-13 -53 -53.5 -87t-111.5 -34q-75 0 -121 50.5t-46 147.5v120q0 56 -12 77.5t-51 17.5h-1q-3 0 -3.5 3.5t3.5 4.5q58 12 121.5 36t106.5 52q6 4 8 4q5 0 4 -8
q-7 -77 -9 -116t-2 -88v-115q0 -136 74 -136q44 0 68.5 39.5t24.5 93.5v135q0 56 -12.5 77.5t-50.5 17.5h-1q-4 0 -4 3.5t4 4.5q58 12 121.5 36t106.5 52q6 4 8 4q5 0 4 -8q-7 -77 -9 -116t-2 -88v-131q0 -71 35 -71q36 0 47.5 33t14.5 89q0 5 3.5 5.5zM192.5 559
q-21.5 18 -21.5 43q1 30 24.5 50.5t61.5 20.5q29 0 50 -18t21 -43q0 -30 -23.5 -50.5t-60.5 -20.5q-30 0 -51.5 18zM372.5 558q-21.5 17 -21.5 42q0 31 23 52t62 21q30 0 50.5 -18t20.5 -43q0 -30 -23.5 -50.5t-60.5 -20.5q-29 0 -50.5 17zM297 697q-3 0 -4 3t3 6
q42 26 57.5 54.5t23.5 63.5q6 21 11 30t17 11q42 6 72 6q44 0 44 -9q0 -21 -44.5 -59t-100 -70.5t-78.5 -35.5h-1z" />
    <glyph glyph-name="uni01D9" unicode="&#x1d9;" horiz-adv-x="773" 
d="M250 17.5q-70 35.5 -107.5 102t-37.5 156.5v289q0 67 -19 97.5t-50 31.5q-6 0 -5.5 4.5t5.5 4.5q45 -3 61 -3h196q23 0 77 3q8 0 8 -5q0 -4 -8 -4q-39 -1 -63 -31.5t-24 -97.5v-298q0 -101 53.5 -160t147.5 -59q57 0 101 29t68 82t24 121l-1 285q0 67 -24.5 97.5
t-63.5 31.5q-8 0 -8 4q0 5 8 5q57 -3 78 -3h25q15 0 51 3q5 0 5.5 -4.5t-4.5 -4.5q-26 -1 -42 -31.5t-16 -97.5v-282q0 -141 -71.5 -221t-198.5 -80q-95 0 -165 35.5zM297.5 769q-21.5 18 -21.5 43q1 30 24.5 50.5t61.5 20.5q29 0 50 -18t21 -43q0 -30 -23.5 -50.5
t-60.5 -20.5q-30 0 -51.5 18zM477.5 768q-21.5 17 -21.5 42q0 31 23 52t62 21q30 0 50.5 -18t20.5 -43q0 -30 -23.5 -50.5t-60.5 -20.5q-29 0 -50.5 17zM614.5 1024q1.5 -3 -2.5 -4q-40 -14 -60 -32.5t-40 -46.5q-17 -23 -30.5 -33.5t-40.5 -10.5q-29 0 -43.5 10.5
t-31.5 34.5q-18 26 -37.5 44t-57.5 33q-4 2 -3 5t6 3q34 -1 83.5 -20t82.5 -44q32 25 83 44t85 20q5 0 6.5 -3z" />
    <glyph glyph-name="uni01DA" unicode="&#x1da;" horiz-adv-x="655" 
d="M666.5 208.5q3.5 0.5 3.5 -4.5q0 -58 -20.5 -109t-55.5 -81t-76 -30q-46 0 -79.5 29.5t-37.5 89.5q-13 -53 -53.5 -87t-111.5 -34q-75 0 -121 50.5t-46 147.5v120q0 56 -12 77.5t-51 17.5h-1q-3 0 -3.5 3.5t3.5 4.5q58 12 121.5 36t106.5 52q6 4 8 4q5 0 4 -8
q-7 -77 -9 -116t-2 -88v-115q0 -136 74 -136q44 0 68.5 39.5t24.5 93.5v135q0 56 -12.5 77.5t-50.5 17.5h-1q-4 0 -4 3.5t4 4.5q58 12 121.5 36t106.5 52q6 4 8 4q5 0 4 -8q-7 -77 -9 -116t-2 -88v-131q0 -71 35 -71q36 0 47.5 33t14.5 89q0 5 3.5 5.5zM192.5 559
q-21.5 18 -21.5 43q1 30 24.5 50.5t61.5 20.5q29 0 50 -18t21 -43q0 -30 -23.5 -50.5t-60.5 -20.5q-30 0 -51.5 18zM372.5 558q-21.5 17 -21.5 42q0 31 23 52t62 21q30 0 50.5 -18t20.5 -43q0 -30 -23.5 -50.5t-60.5 -20.5q-29 0 -50.5 17zM509 856.5q2 -3.5 -2 -5.5
q-40 -18 -60.5 -41.5t-39.5 -58.5q-16 -30 -29.5 -43t-41.5 -13q-29 0 -43.5 13.5t-31.5 43.5q-17 32 -37.5 55.5t-57.5 42.5q-4 2 -2.5 6t5.5 4q34 -2 84 -26.5t82 -55.5q32 32 83.5 56.5t84.5 25.5q4 0 6 -3.5z" />
    <glyph glyph-name="uni01DB" unicode="&#x1db;" horiz-adv-x="773" 
d="M250 17.5q-70 35.5 -107.5 102t-37.5 156.5v289q0 67 -19 97.5t-50 31.5q-6 0 -5.5 4.5t5.5 4.5q45 -3 61 -3h196q23 0 77 3q8 0 8 -5q0 -4 -8 -4q-39 -1 -63 -31.5t-24 -97.5v-298q0 -101 53.5 -160t147.5 -59q57 0 101 29t68 82t24 121l-1 285q0 67 -24.5 97.5
t-63.5 31.5q-8 0 -8 4q0 5 8 5q57 -3 78 -3h25q15 0 51 3q5 0 5.5 -4.5t-4.5 -4.5q-26 -1 -42 -31.5t-16 -97.5v-282q0 -141 -71.5 -221t-198.5 -80q-95 0 -165 35.5zM297.5 769q-21.5 18 -21.5 43q1 30 24.5 50.5t61.5 20.5q29 0 50 -18t21 -43q0 -30 -23.5 -50.5
t-60.5 -20.5q-30 0 -51.5 18zM477.5 768q-21.5 17 -21.5 42q0 31 23 52t62 21q30 0 50.5 -18t20.5 -43q0 -30 -23.5 -50.5t-60.5 -20.5q-29 0 -50.5 17zM380 918q-61 20 -110 46.5t-49 46.5q-1 10 25.5 15.5t59.5 5.5q38 0 41 -6q17 -38 41 -63t83 -56q3 -1 3 -4q0 -5 -8 -5
q-25 0 -86 20z" />
    <glyph glyph-name="uni01DC" unicode="&#x1dc;" horiz-adv-x="655" 
d="M666.5 208.5q3.5 0.5 3.5 -4.5q0 -58 -20.5 -109t-55.5 -81t-76 -30q-46 0 -79.5 29.5t-37.5 89.5q-13 -53 -53.5 -87t-111.5 -34q-75 0 -121 50.5t-46 147.5v120q0 56 -12 77.5t-51 17.5h-1q-3 0 -3.5 3.5t3.5 4.5q58 12 121.5 36t106.5 52q6 4 8 4q5 0 4 -8
q-7 -77 -9 -116t-2 -88v-115q0 -136 74 -136q44 0 68.5 39.5t24.5 93.5v135q0 56 -12.5 77.5t-50.5 17.5h-1q-4 0 -4 3.5t4 4.5q58 12 121.5 36t106.5 52q6 4 8 4q5 0 4 -8q-7 -77 -9 -116t-2 -88v-131q0 -71 35 -71q36 0 47.5 33t14.5 89q0 5 3.5 5.5zM192.5 559
q-21.5 18 -21.5 43q1 30 24.5 50.5t61.5 20.5q29 0 50 -18t21 -43q0 -30 -23.5 -50.5t-60.5 -20.5q-30 0 -51.5 18zM372.5 558q-21.5 17 -21.5 42q0 31 23 52t62 21q30 0 50.5 -18t20.5 -43q0 -30 -23.5 -50.5t-60.5 -20.5q-29 0 -50.5 17zM333.5 731q-55.5 30 -99.5 66.5
t-44 64.5q0 9 44 9q42 0 73 -6q12 -2 17.5 -11.5t9.5 -29.5q8 -35 23.5 -63.5t57.5 -54.5q4 -2 3 -5.5t-5 -3.5q-24 4 -79.5 34z" />
    <glyph glyph-name="Gcaron" unicode="&#x1e6;" horiz-adv-x="730" 
d="M704 338q10 0 14 -3t4 -11q0 -7 -3.5 -20.5t-4.5 -25.5q-5 -39 -5 -129q0 -10 -2.5 -16t-8.5 -14q-58 -69 -138.5 -103t-170.5 -34q-96 0 -178 44t-130.5 124.5t-48.5 185.5q0 103 52.5 190.5t141 139t191.5 51.5q73 0 135.5 -16.5t99 -41.5t36.5 -49q0 -6 -1 -9
l-108 -269q63 0 115 5zM597.5 144q-10.5 36 -31.5 91q-45 72 -166 97q-6 1 -5.5 5.5t6.5 3.5q73 -9 170 -9q14 35 14 76q0 77 -52 152q-38 57 -93 91t-105 34q-147 0 -147 -146q0 -123 49.5 -244t123.5 -198t142 -77q95 0 104 63q1 25 -9.5 61zM570.5 870q1.5 -3 -2.5 -4
q-40 -14 -60 -32.5t-40 -46.5q-17 -23 -30.5 -33.5t-40.5 -10.5q-29 0 -43.5 10.5t-31.5 34.5q-18 26 -37.5 44t-57.5 33q-4 2 -3 5t6 3q34 -1 83.5 -20t82.5 -44q32 25 83 44t85 20q5 0 6.5 -3z" />
    <glyph glyph-name="gcaron" unicode="&#x1e7;" horiz-adv-x="524" 
d="M489 11q33 -37 33 -87q0 -61 -39 -100.5t-108 -39.5q-78 0 -125 53q-58 -24 -114 -24q-60 0 -91 32t-31 83q0 50 30 90t77 67q-52 22 -81.5 65.5t-29.5 102.5q0 68 33.5 119.5t91 80t127.5 28.5q47 0 111 -6q68 -8 123 -7q3 0 3 -4q0 -3 -3 -5.5t-8 -2.5q-40 2 -50 2
q-46 0 -46 -9q0 -3 7 -8q41 -29 66 -71t25 -93q0 -60 -33.5 -109.5t-91.5 -77.5t-128 -28q-58 0 -105 18q-29 -14 -43 -28t-14 -38q0 -18 12.5 -29t32.5 -11q30 0 58 8.5t75 27.5q45 18 78.5 28t68.5 10q56 0 89 -37zM151 440q-19 -21 -19 -62q0 -62 23.5 -131.5t60.5 -117
t77 -47.5q37 0 56 20.5t19 58.5q0 55 -25 126.5t-63 122.5t-73 51q-37 0 -56 -21zM439 -191.5q23 12.5 23 38.5q0 19 -12 30t-34 11q-31 0 -60 -9t-68 -27l-28 -12q46 -44 118 -44q38 0 61 12.5zM437 673.5q2 -3.5 -2 -5.5q-40 -18 -60.5 -41.5t-39.5 -58.5
q-16 -30 -29.5 -43t-41.5 -13q-29 0 -43.5 13.5t-31.5 43.5q-17 32 -37.5 55.5t-57.5 42.5q-4 2 -2.5 6t5.5 4q34 -2 84 -26.5t82 -55.5q32 32 83.5 56.5t84.5 25.5q4 0 6 -3.5z" />
    <glyph glyph-name="uni01EA" unicode="&#x1ea;" horiz-adv-x="850" 
d="M708 -21q4 0 4 -6q0 -47 -35 -79t-96 -32q-40 0 -62.5 15.5t-22.5 44.5q0 43 50 83q-69 -23 -147 -23q-107 0 -190.5 45.5t-130 126.5t-46.5 183q0 105 53.5 192t147 137.5t209.5 50.5q109 0 194.5 -45.5t133.5 -126t48 -181.5q0 -93 -42.5 -172t-117.5 -132
q-36 -29 -49 -52.5t-13 -46.5q0 -26 13.5 -38t35.5 -12q59 0 59 62q0 6 4 6zM581 28q9 6 22 12q54 39 54 127q0 111 -48 232.5t-125 202.5t-158 81q-63 0 -98.5 -37.5t-35.5 -108.5q0 -110 47.5 -232.5t123.5 -205t156 -82.5q34 0 62 11z" />
    <glyph glyph-name="uni01EB" unicode="&#x1eb;" horiz-adv-x="592" 
d="M389 -32.5q-13 -23.5 -13 -45.5q0 -26 13.5 -38t35.5 -12q59 0 59 62q0 6 4 6t4 -6q0 -47 -35 -79t-96 -32q-40 0 -62.5 15.5t-22.5 44.5q0 59 92 110q-44 -11 -90 -11q-76 0 -135.5 30.5t-92.5 85.5t-33 126q0 74 38 133t104.5 92.5t146.5 33.5q79 0 140 -30.5t95 -85
t34 -125.5q0 -72 -37 -130t-101 -92q-35 -29 -48 -52.5zM413.5 29q22.5 22 22.5 63q0 60 -34 147.5t-81.5 152.5t-83.5 67q-38 1 -60.5 -21t-22.5 -65q0 -60 34 -146.5t81.5 -151.5t82.5 -67q39 -1 61.5 21z" />
    <glyph glyph-name="Aringacute" unicode="&#x1fa;" horiz-adv-x="753" 
d="M231.5 877q-1.5 3 2.5 5q53 28 75 51t37 57q3 5 35 5q29 0 54 -5t25 -14q0 -18 -44.5 -42t-99.5 -42t-77 -18q-6 0 -7.5 3zM420.5 858.5q32.5 -21.5 32.5 -54.5q0 -34 -34 -59t-84 -25q-43 0 -72.5 21.5t-29.5 56.5q0 20 15 39t40.5 31t55.5 12q44 0 76.5 -21.5zM396 757
q0 17 -14 43.5t-33 46.5t-35 20q-22 0 -22 -23q0 -18 13.5 -44.5t32.5 -46t35 -19.5q23 0 23 23zM748 1.5q0 -4.5 -5 -4.5q-36 3 -47 3h-204q-25 0 -82 -3q-9 0 -9 5q0 4 8 4q31 1 51.5 17t20.5 49q0 24 -13 56l-36 87q-7 5 -12 5t-11 -3q-61 -26 -134 -42.5t-143 -20.5
q-18 0 -24 -17v1l-4 -10q-12 -31 -12 -54q0 -34 22 -50.5t55 -17.5q9 0 9 -4q0 -5 -9 -5q-63 3 -87 3h-25q-14 0 -47 -3q-5 0 -5 4.5t5 4.5q21 1 39.5 28t45.5 94l175 430q4 11 4 26q0 23 -9 41l-21 52q-6 16 -22 17q-4 1 -3 3.5t5 2.5h183q9 0 14 -2.5t8 -11.5l228 -558
q27 -67 46 -94t40 -28q5 0 5 -4.5zM417.5 237q3.5 7 0.5 12h1l-133 326l-161 -396q-1 -3 -1 -8q0 -8 10 -8q70 4 142.5 20t129.5 43q8 4 11.5 11z" />
    <glyph glyph-name="aringacute" unicode="&#x1fb;" horiz-adv-x="600" 
d="M611.5 207.5q4.5 0.5 4.5 -6.5q0 -67 -22 -116.5t-58 -75.5t-76 -26q-36 0 -64 30.5t-41 88.5l-3 14q-19 -65 -62 -99t-95 -34q-58 0 -98 25t-59 65t-17 84q1 51 49.5 80t128.5 29q67 0 120 -11l-24 99q-11 47 -36 70t-69 23q-59 0 -98 -31t-47 -102q-2 -8 -6 -8t-4 8
q10 89 77.5 129.5t152.5 40.5q94 0 141 -34t67 -117l47 -208q10 -45 38 -45q22 0 35.5 36.5t13.5 84.5q0 6 4.5 6.5zM343 142q0 9 -1 15l-20 83q-38 11 -71 11q-43 0 -60.5 -16.5t-17.5 -60.5q0 -46 25.5 -80t69.5 -34q59 0 71 60q4 9 4 22zM182.5 535q-31.5 24 -31.5 63
q0 23 16 44.5t43.5 35t60.5 13.5q48 0 81.5 -24t33.5 -62q0 -24 -16.5 -46t-45.5 -35t-64 -13q-46 0 -77.5 24zM319 532.5q6 5.5 6 20.5q0 19 -14.5 49t-35 52t-37.5 22q-12 0 -18 -5.5t-6 -20.5q0 -20 14.5 -49.5t35 -51.5t37.5 -22q12 0 18 5.5zM226 706q-3 0 -4 3t3 6
q42 26 57.5 54.5t23.5 63.5q6 21 11 30t17 11q42 6 72 6q44 0 44 -9q0 -21 -44.5 -59t-100 -70.5t-78.5 -35.5h-1z" />
    </font>
</defs>
</svg>
