<svg width="32" height="32" viewBox="0 0 32 32" fill="none" xmlns="http://www.w3.org/2000/svg">
<path d="M0 16C0 7.16344 7.16344 0 16 0C24.8366 0 32 7.16344 32 16C32 24.8366 24.8366 32 16 32C7.16344 32 0 24.8366 0 16Z" fill="#FFFC00"/>
<path d="M24.3445 21.1115C21.2201 19.599 20.7222 17.2639 20.7 17.0907C20.6732 16.8809 20.6428 16.7159 20.8742 16.5025C21.0974 16.2963 22.0877 15.6834 22.3624 15.4917C22.8166 15.1741 23.0166 14.8571 22.8692 14.4674C22.7661 14.1978 22.515 14.0962 22.2506 14.0962C22.1672 14.0965 22.084 14.1058 22.0026 14.1241C21.5036 14.2323 21.0191 14.4823 20.7387 14.5499C20.705 14.5586 20.6704 14.5632 20.6356 14.5638C20.4861 14.5638 20.4294 14.4973 20.4438 14.3174C20.4789 13.772 20.5531 12.7075 20.467 11.7132C20.349 10.3451 19.9077 9.66721 19.3845 9.0677C19.1314 8.77697 17.9561 7.52795 15.688 7.52795C13.4198 7.52795 12.2461 8.77697 11.9945 9.0641C11.4698 9.6636 11.029 10.3415 10.912 11.7096C10.8259 12.7039 10.9032 13.7679 10.9352 14.3138C10.9455 14.4849 10.8929 14.5602 10.7434 14.5602C10.7086 14.5596 10.674 14.5549 10.6403 14.5463C10.3604 14.4787 9.87588 14.2287 9.37689 14.1205C9.29549 14.1022 9.21235 14.0929 9.12894 14.0926C8.86347 14.0926 8.61346 14.1957 8.51036 14.4638C8.36293 14.8535 8.56191 15.1705 9.0176 15.488C9.29235 15.6798 10.2826 16.2922 10.5058 16.4989C10.7367 16.7123 10.7068 16.8773 10.68 17.0871C10.6579 17.2629 10.1594 19.598 7.03556 21.1079C6.85257 21.1965 6.54121 21.3841 7.0902 21.6873C7.95209 22.1636 8.52582 22.1125 8.97172 22.3997C9.35008 22.6435 9.12636 23.1693 9.40163 23.359C9.73979 23.5925 10.7393 23.3425 12.0306 23.7688C13.1131 24.1255 13.7709 25.1333 15.6905 25.1333C17.6102 25.1333 18.287 24.1209 19.3505 23.7688C20.6392 23.3425 21.6408 23.5925 21.9794 23.359C22.2542 23.1693 22.031 22.6435 22.4093 22.3997C22.8552 22.1125 23.4285 22.1636 24.2909 21.6873C24.8388 21.3878 24.5275 21.2001 24.3445 21.1115Z" fill="white"/>
<path d="M25.7037 20.9336C25.5635 20.5521 25.2965 20.348 24.9923 20.1789C24.9351 20.1454 24.8825 20.1186 24.8377 20.098C24.747 20.051 24.6542 20.0057 24.5619 19.9577C23.6139 19.4551 22.8737 18.8211 22.3603 18.0695C22.2145 17.8579 22.088 17.6337 21.9824 17.3994C21.9386 17.2741 21.9407 17.203 21.9721 17.1381C22.0033 17.088 22.0445 17.045 22.0932 17.0118C22.2561 16.904 22.4242 16.7947 22.5381 16.721C22.7412 16.5896 22.902 16.4854 23.0057 16.4117C23.3948 16.1396 23.667 15.8504 23.8371 15.5272C23.9558 15.3039 24.025 15.0576 24.0401 14.8052C24.0551 14.5527 24.0156 14.3 23.9242 14.0642C23.6665 13.3858 23.0258 12.9647 22.2494 12.9647C22.0857 12.9645 21.9224 12.9818 21.7623 13.0162C21.7195 13.0255 21.6767 13.0353 21.635 13.0461C21.6422 12.5822 21.6319 12.0925 21.5907 11.6105C21.4443 9.91613 20.8509 9.02796 20.2324 8.31968C19.8362 7.87585 19.3696 7.50035 18.8514 7.2083C17.9127 6.6722 16.8482 6.40002 15.6879 6.40002C14.5275 6.40002 13.4682 6.6722 12.5285 7.2083C12.0089 7.50044 11.5414 7.87669 11.1449 8.32174C10.5263 9.03002 9.93301 9.91974 9.78661 11.6126C9.74537 12.0946 9.73506 12.5869 9.74176 13.0482C9.70001 13.0374 9.65774 13.0276 9.61495 13.0183C9.45487 12.9839 9.29157 12.9666 9.12782 12.9668C8.35099 12.9668 7.70921 13.3879 7.4525 14.0663C7.36074 14.3022 7.32085 14.5551 7.33552 14.8078C7.3502 15.0605 7.41911 15.3071 7.53756 15.5308C7.70818 15.854 7.98036 16.1432 8.36955 16.4153C8.47264 16.4875 8.63399 16.5916 8.83709 16.7246C8.94689 16.7958 9.1072 16.8999 9.26442 17.004C9.31943 17.0396 9.36619 17.0865 9.40154 17.1417C9.43453 17.2092 9.43557 17.2819 9.38659 17.4159C9.28244 17.6452 9.15806 17.8648 9.01493 18.0721C8.51285 18.8067 7.79427 19.4294 6.87671 19.9278C6.39061 20.1856 5.88543 20.3578 5.67202 20.9377C5.51119 21.3753 5.61635 21.8733 6.02513 22.2929C6.17516 22.4495 6.34916 22.5812 6.54061 22.6831C6.93897 22.902 7.36257 23.0715 7.802 23.1878C7.89268 23.2111 7.97877 23.2497 8.05665 23.3017C8.20562 23.4321 8.18449 23.6285 8.38295 23.9161C8.48257 24.0648 8.60916 24.1935 8.75616 24.2955C9.17267 24.5832 9.64073 24.6012 10.1366 24.6203C10.5846 24.6373 11.0923 24.6569 11.6722 24.8481C11.9125 24.9275 12.162 25.0811 12.4511 25.2605C13.1455 25.6873 14.096 26.2714 15.6868 26.2714C17.2776 26.2714 18.2349 25.6842 18.9344 25.2559C19.2215 25.0796 19.4694 24.9275 19.703 24.8502C20.2829 24.6584 20.7906 24.6394 21.2386 24.6223C21.7345 24.6033 22.2025 24.5852 22.619 24.2976C22.7931 24.1762 22.9382 24.0178 23.0438 23.8337C23.1866 23.5909 23.183 23.4213 23.317 23.3027C23.3901 23.2532 23.4709 23.2162 23.5562 23.1934C24.0016 23.0768 24.431 22.9058 24.8346 22.6841C25.038 22.575 25.2211 22.4317 25.3758 22.2604L25.381 22.2542C25.7645 21.8439 25.8609 21.3604 25.7037 20.9336ZM24.2897 21.6934C23.4273 22.1697 22.8541 22.1186 22.4082 22.4058C22.0293 22.6496 22.2536 23.1754 21.9783 23.3651C21.6401 23.5986 20.6406 23.3486 19.3493 23.7749C18.2843 24.127 17.6049 25.1394 15.6894 25.1394C13.7739 25.1394 13.1104 24.129 12.0279 23.7723C10.7392 23.346 9.73764 23.596 9.39897 23.3625C9.12421 23.1728 9.34742 22.647 8.96905 22.4032C8.52265 22.1161 7.94943 22.1671 7.08754 21.6934C6.53855 21.3903 6.8499 21.2026 7.0329 21.114C10.1567 19.6015 10.6552 17.2664 10.6774 17.0932C10.7042 16.8834 10.7341 16.7184 10.5031 16.505C10.2799 16.2988 9.28968 15.6859 9.01493 15.4942C8.56028 15.1766 8.36027 14.8596 8.5077 14.4699C8.61079 14.2003 8.86235 14.0988 9.12628 14.0988C9.20969 14.099 9.29283 14.1084 9.37422 14.1266C9.87321 14.2349 10.3578 14.4849 10.6377 14.5524C10.6714 14.561 10.706 14.5657 10.7408 14.5663C10.8903 14.5663 10.9428 14.491 10.9325 14.3199C10.9006 13.774 10.8232 12.7101 10.9093 11.7157C11.0274 10.3476 11.4681 9.66973 11.9918 9.07023C12.2434 8.78207 13.4254 7.53306 15.6858 7.53306C17.9462 7.53306 19.1313 8.77692 19.3828 9.06404C19.9071 9.66355 20.3483 10.3414 20.4654 11.7095C20.5514 12.7039 20.4772 13.7683 20.4422 14.3137C20.4303 14.4936 20.4844 14.5601 20.6339 14.5601C20.6687 14.5596 20.7033 14.5549 20.737 14.5462C21.0174 14.4787 21.502 14.2287 22.001 14.1204C22.0824 14.1022 22.1655 14.0928 22.2489 14.0926C22.5144 14.0926 22.7644 14.1957 22.8675 14.4637C23.0149 14.8534 22.816 15.1705 22.3608 15.488C22.086 15.6797 21.0958 16.2921 20.8726 16.4989C20.6411 16.7123 20.6715 16.8772 20.6984 17.087C20.7205 17.2628 21.2185 19.5979 24.3428 21.1078C24.5274 21.2001 24.8387 21.3877 24.2897 21.6934Z" fill="black"/>
</svg>
