<svg width="32" height="32" viewBox="0 0 32 32" fill="none" xmlns="http://www.w3.org/2000/svg">
<path d="M0 16C0 7.16344 7.16344 0 16 0C24.8366 0 32 7.16344 32 16C32 24.8366 24.8366 32 16 32C7.16344 32 0 24.8366 0 16Z" fill="black"/>
<path d="M20.462 12.886C21.9024 13.9193 23.6671 14.5273 25.573 14.5273V10.8468C25.2123 10.8469 24.8525 10.8091 24.4996 10.7341V13.6312C22.5939 13.6312 20.8295 13.0232 19.3886 11.9899V19.5009C19.3886 23.2583 16.3535 26.304 12.6097 26.304C11.2128 26.304 9.91448 25.8802 8.83594 25.1533C10.0669 26.4165 11.7836 27.2 13.6828 27.2C17.4269 27.2 20.4621 24.1543 20.4621 20.3968V12.886H20.462ZM21.7861 9.17274C21.0499 8.36562 20.5666 7.32258 20.462 6.16944V5.69604H19.4448C19.7009 7.16168 20.5742 8.41383 21.7861 9.17274ZM11.2039 22.27C10.7926 21.7288 10.5703 21.0668 10.5713 20.386C10.5713 18.6676 11.9596 17.2742 13.6723 17.2742C13.9915 17.2741 14.3088 17.3232 14.6129 17.42V13.6572C14.2575 13.6083 13.8987 13.5875 13.5401 13.5952V16.524C13.2356 16.4271 12.9182 16.3779 12.5989 16.3782C10.8862 16.3782 9.49806 17.7714 9.49806 19.4901C9.49806 20.7054 10.1919 21.7575 11.2039 22.27Z" fill="#FF004F"/>
<path d="M19.3886 11.9898C20.8294 13.0231 22.5938 13.6311 24.4996 13.6311V10.734C23.4358 10.5066 22.4941 9.94872 21.786 9.17274C20.574 8.41375 19.7008 7.1616 19.4448 5.69604H16.773V20.3966C16.767 22.1104 15.3811 23.4981 13.6721 23.4981C12.665 23.4981 11.7702 23.0163 11.2036 22.27C10.1917 21.7575 9.49785 20.7053 9.49785 19.4902C9.49785 17.7716 10.886 16.3783 12.5987 16.3783C12.9269 16.3783 13.2432 16.4296 13.5398 16.524V13.5952C9.86183 13.6715 6.90381 16.6875 6.90381 20.3967C6.90381 22.2483 7.64042 23.9269 8.83596 25.1534C9.9145 25.8802 11.2129 26.3041 12.6098 26.3041C16.3536 26.3041 19.3887 23.2582 19.3887 19.5009V11.9898H19.3886Z" fill="white"/>
<path d="M24.4996 10.734V9.95063C23.5403 9.95209 22.5999 9.68249 21.786 9.17265C22.5065 9.96424 23.4552 10.5101 24.4996 10.734ZM19.4448 5.69603C19.4204 5.55597 19.4016 5.41498 19.3886 5.27345V4.80005H15.6996V19.5008C15.6937 21.2144 14.308 22.602 12.5988 22.602C12.097 22.602 11.6232 22.4825 11.2036 22.2701C11.7703 23.0163 12.665 23.498 13.6721 23.498C15.381 23.498 16.7671 22.1105 16.7731 20.3967V5.69603H19.4448ZM13.54 13.5952V12.7613C13.2318 12.719 12.921 12.6978 12.6099 12.6979C8.86569 12.6979 5.83057 15.7437 5.83057 19.5008C5.83057 21.8563 7.02342 23.9321 8.83606 25.1532C7.64052 23.9268 6.90391 22.2482 6.90391 20.3966C6.90391 16.6875 9.86185 13.6715 13.54 13.5952Z" fill="#00F2EA"/>
</svg>
